<?xml version="1.0" encoding="UTF-8"?>
<svg version="1.1" xmlns="http://www.w3.org/2000/svg" width="262" height="263">
<path d="M0 0 C1.1547583 0.011521 2.3095166 0.02304199 3.49926758 0.03491211 C5.74488186 0.06303989 7.9904304 0.09730644 10.23583984 0.13867188 C12.45511432 0.17617863 14.67495892 0.1810753 16.89453125 0.171875 C36.52305613 0.69740445 58.16032749 10.34544826 74.125 21.1875 C74.87007812 21.64640625 75.61515625 22.1053125 76.3828125 22.578125 C83.37458107 26.93858281 89.18987728 32.52746021 95.125 38.1875 C95.7746875 38.78433594 96.424375 39.38117187 97.09375 39.99609375 C112.69838119 54.7542473 123.09601408 74.7841424 129.125 95.1875 C129.46144531 96.19876953 129.46144531 96.19876953 129.8046875 97.23046875 C131.11230798 101.28767477 131.298236 104.94321791 131.125 109.1875 C131.785 109.1875 132.445 109.1875 133.125 109.1875 C133.22517076 115.16075964 133.29707253 121.133512 133.34472656 127.10742188 C133.36462815 129.13224828 133.39175946 131.15701889 133.42675781 133.18164062 C133.64036861 145.87263506 133.04765191 157.05168183 129.125 169.1875 C128.87331055 170.00347656 128.62162109 170.81945312 128.36230469 171.66015625 C123.3869153 186.96224272 116.14891487 200.64339481 106.125 213.1875 C105.2262407 214.47713245 104.33011992 215.76861058 103.4375 217.0625 C100.351975 221.18232775 96.74025315 224.78710181 93.125 228.4375 C92.53114502 229.04062012 91.93729004 229.64374023 91.32543945 230.26513672 C87.82777103 233.73810204 84.32909545 236.56653672 80.125 239.1875 C79.47917969 239.64511719 78.83335937 240.10273438 78.16796875 240.57421875 C60.03654668 253.28529991 37.20632795 263.51363799 14.76953125 263.48828125 C13.90543137 263.49256638 13.04133148 263.4968515 12.15104675 263.50126648 C10.33337269 263.50697197 8.51567582 263.50753819 6.69799805 263.50317383 C3.96166599 263.50002778 1.22643223 263.52347245 -1.50976562 263.54882812 C-11.73899636 263.58604201 -20.96202579 262.91413578 -30.875 260.1875 C-31.6393335 259.99406006 -32.40366699 259.80062012 -33.19116211 259.60131836 C-43.77324308 256.83789464 -53.31412392 252.42079343 -62.875 247.1875 C-64.298125 246.41212891 -64.298125 246.41212891 -65.75 245.62109375 C-93.70495879 229.59067207 -116.33013523 200.21694538 -124.875 169.1875 C-130.1409466 147.4131413 -132.16318946 121.00415732 -125.875 99.1875 C-125.60091309 98.17502197 -125.60091309 98.17502197 -125.32128906 97.14208984 C-116.48517754 65.02594395 -95.19818519 36.75143748 -66.875 19.1875 C-66.00488281 18.64480469 -65.13476562 18.10210938 -64.23828125 17.54296875 C-51.8294859 10.34092673 -38.00980076 4.66788571 -23.875 2.1875 C-23.09366699 2.02048584 -22.31233398 1.85347168 -21.50732422 1.68139648 C-14.28107814 0.20416118 -7.36214063 -0.09026338 0 0 Z " fill="#020202" transform="translate(128.875,-0.1875)"/>
<path d="M0 0 C1.1547583 0.011521 2.3095166 0.02304199 3.49926758 0.03491211 C5.74488186 0.06303989 7.9904304 0.09730644 10.23583984 0.13867188 C12.45511432 0.17617863 14.67495892 0.1810753 16.89453125 0.171875 C36.52305613 0.69740445 58.16032749 10.34544826 74.125 21.1875 C74.87007812 21.64640625 75.61515625 22.1053125 76.3828125 22.578125 C83.37458107 26.93858281 89.18987728 32.52746021 95.125 38.1875 C95.7746875 38.78433594 96.424375 39.38117187 97.09375 39.99609375 C112.69838119 54.7542473 123.09601408 74.7841424 129.125 95.1875 C129.46144531 96.19876953 129.46144531 96.19876953 129.8046875 97.23046875 C131.11230798 101.28767477 131.298236 104.94321791 131.125 109.1875 C131.785 109.1875 132.445 109.1875 133.125 109.1875 C133.22517076 115.16075964 133.29707253 121.133512 133.34472656 127.10742188 C133.36462815 129.13224828 133.39175946 131.15701889 133.42675781 133.18164062 C133.64036861 145.87263506 133.04765191 157.05168183 129.125 169.1875 C128.87331055 170.00347656 128.62162109 170.81945312 128.36230469 171.66015625 C123.3869153 186.96224272 116.14891487 200.64339481 106.125 213.1875 C105.2262407 214.47713245 104.33011992 215.76861058 103.4375 217.0625 C100.351975 221.18232775 96.74025315 224.78710181 93.125 228.4375 C92.53114502 229.04062012 91.93729004 229.64374023 91.32543945 230.26513672 C87.82777103 233.73810204 84.32909545 236.56653672 80.125 239.1875 C79.47917969 239.64511719 78.83335937 240.10273438 78.16796875 240.57421875 C60.03654668 253.28529991 37.20632795 263.51363799 14.76953125 263.48828125 C13.90543137 263.49256638 13.04133148 263.4968515 12.15104675 263.50126648 C10.33337269 263.50697197 8.51567582 263.50753819 6.69799805 263.50317383 C3.96166599 263.50002778 1.22643223 263.52347245 -1.50976562 263.54882812 C-11.73899636 263.58604201 -20.96202579 262.91413578 -30.875 260.1875 C-31.6393335 259.99406006 -32.40366699 259.80062012 -33.19116211 259.60131836 C-43.77324308 256.83789464 -53.31412392 252.42079343 -62.875 247.1875 C-64.298125 246.41212891 -64.298125 246.41212891 -65.75 245.62109375 C-93.70495879 229.59067207 -116.33013523 200.21694538 -124.875 169.1875 C-130.1409466 147.4131413 -132.16318946 121.00415732 -125.875 99.1875 C-125.60091309 98.17502197 -125.60091309 98.17502197 -125.32128906 97.14208984 C-116.48517754 65.02594395 -95.19818519 36.75143748 -66.875 19.1875 C-66.00488281 18.64480469 -65.13476562 18.10210938 -64.23828125 17.54296875 C-51.8294859 10.34092673 -38.00980076 4.66788571 -23.875 2.1875 C-23.09366699 2.02048584 -22.31233398 1.85347168 -21.50732422 1.68139648 C-14.28107814 0.20416118 -7.36214063 -0.09026338 0 0 Z M-25.875 16.1875 C-26.52629883 16.35378906 -27.17759766 16.52007813 -27.84863281 16.69140625 C-48.8349643 22.21681776 -66.25197275 33.30033998 -81.875 48.1875 C-82.4628125 48.70054688 -83.050625 49.21359375 -83.65625 49.7421875 C-102.63174101 67.01704488 -114.67361763 96.68380922 -116.0168457 121.84448242 C-116.99638073 151.19829543 -110.85147347 179.96628904 -91.875 203.1875 C-91.34390625 203.90035156 -90.8128125 204.61320313 -90.265625 205.34765625 C-79.46659716 219.78764072 -65.65882904 229.81617011 -49.875 238.1875 C-48.59109375 238.87972656 -48.59109375 238.87972656 -47.28125 239.5859375 C-41.15642616 242.62896707 -34.73621742 244.53894367 -28.1875 246.4375 C-27.29603271 246.69611816 -26.40456543 246.95473633 -25.48608398 247.22119141 C-9.1011647 251.79365608 9.55588492 251.83909561 26.125 248.1875 C27.12273437 247.98125 28.12046875 247.775 29.1484375 247.5625 C36.51476196 245.89608213 43.22719108 243.22093411 50.125 240.1875 C51.78897715 239.51414848 53.45480318 238.84527261 55.125 238.1875 C53.64484681 233.85966078 51.32493982 230.45056324 48.625 226.8125 C45.15283791 222.03968679 41.75836644 217.2339553 38.5 212.3125 C38.10578857 211.71751709 37.71157715 211.12253418 37.30541992 210.50952148 C36.42720104 209.1823189 35.54955216 207.85473903 34.67236328 206.52685547 C31.43746138 201.63622277 28.1868144 196.75606292 24.9375 191.875 C24.27218262 190.87291504 23.60686523 189.87083008 22.92138672 188.83837891 C18.74217193 182.558649 14.47623445 176.34913765 10.125 170.1875 C4.34811375 161.95948632 -1.25356593 153.62681204 -6.8125 145.25 C-12.02720719 137.3942979 -17.31121015 129.61606437 -22.859375 121.9921875 C-24.32231604 119.95654473 -25.71319064 117.91917475 -27.078125 115.8203125 C-27.67109375 114.95148438 -28.2640625 114.08265625 -28.875 113.1875 C-29.205 113.1875 -29.535 113.1875 -29.875 113.1875 C-29.87864563 114.17055618 -29.88229126 115.15361237 -29.88604736 116.16645813 C-29.92295788 125.42217688 -29.98068694 134.67756171 -30.05890274 143.93302631 C-30.09844453 148.69161184 -30.13059996 153.45001046 -30.14599609 158.20874023 C-30.16111877 162.79957068 -30.19548543 167.38988751 -30.24330902 171.98048973 C-30.25816832 173.73355843 -30.26604361 175.48670045 -30.26688385 177.23983192 C-30.2692417 179.69210461 -30.29622317 182.14294411 -30.32910156 184.5949707 C-30.32155602 185.68685448 -30.32155602 185.68685448 -30.31385803 186.80079651 C-30.38191606 190.07260678 -30.44245133 191.74576194 -32.78192139 194.13493347 C-36.40277283 195.95578579 -38.84506669 195.63527037 -42.875 195.1875 C-45.5947062 192.43754468 -46.25003127 190.43281251 -46.2492218 186.61984253 C-46.25623611 185.70850555 -46.26325043 184.79716858 -46.27047729 183.85821533 C-46.26283356 182.86585876 -46.25518982 181.8735022 -46.24731445 180.85107422 C-46.25096512 179.80031708 -46.25461578 178.74955994 -46.25837708 177.66696167 C-46.26648697 174.19187285 -46.25287022 170.7172496 -46.23828125 167.2421875 C-46.23776278 164.831309 -46.23827998 162.42043008 -46.23979187 160.009552 C-46.23970213 154.95731291 -46.22926773 149.90523335 -46.21118164 144.85302734 C-46.18847026 138.36490639 -46.18795462 131.87701811 -46.19469929 125.38886833 C-46.19803412 120.41161008 -46.19141875 115.43440526 -46.18157005 110.45715714 C-46.1777112 108.06406051 -46.17657266 105.67095795 -46.1781559 103.27785873 C-46.17852513 99.94016861 -46.16594699 96.6027815 -46.1496582 93.26513672 C-46.15213562 92.26873169 -46.15461304 91.27232666 -46.15716553 90.24572754 C-46.15008072 89.34003021 -46.14299591 88.43433289 -46.13569641 87.50119019 C-46.13261711 86.31710477 -46.13261711 86.31710477 -46.12947559 85.10909843 C-45.875 83.1875 -45.875 83.1875 -43.875 81.1875 C-38.26424595 80.72760213 -35.58178077 80.92235253 -30.875 84.1875 C-28.92553711 86.55517578 -28.92553711 86.55517578 -26.96484375 89.5078125 C-26.59133286 90.06453644 -26.21782196 90.62126038 -25.83299255 91.19485474 C-24.50267062 93.18530423 -23.18908333 95.18629547 -21.875 97.1875 C-20.78198869 98.83599399 -19.68836532 100.48408227 -18.59423828 102.13183594 C-14.86033411 107.76555891 -11.14823047 113.41349745 -7.4375 119.0625 C-4.918648 122.89367614 -2.39894631 126.72429275 0.12109375 130.5546875 C0.72666107 131.47533997 1.33222839 132.39599243 1.95614624 133.34454346 C6.9812807 140.97981351 12.04405553 148.58930097 17.125 156.1875 C19.63558258 159.95084445 22.14382335 163.71574957 24.65234375 167.48046875 C26.22473006 169.83935448 27.80017156 172.19614022 29.37890625 174.55078125 C35.23229511 183.29077283 40.9925737 192.09068871 46.74224854 200.89910889 C52.48544603 209.69662744 58.27065271 218.4636258 64.125 227.1875 C64.785 228.1775 65.445 229.1675 66.125 230.1875 C79.40947105 225.59269191 90.69647194 211.93391589 98.75 200.75 C99.17611572 200.15872314 99.60223145 199.56744629 100.04125977 198.95825195 C102.01767989 196.11635929 103.63088278 193.65483979 104.125 190.1875 C104.785 190.1875 105.445 190.1875 106.125 190.1875 C107.06303229 187.86600108 107.99425217 185.54208728 108.91796875 183.21484375 C109.72051715 181.20197964 110.53558675 179.1940614 111.36328125 177.19140625 C116.57703291 164.26194781 120.24522337 150.77311032 120.2578125 136.7578125 C120.25876923 136.08201141 120.25972595 135.40621033 120.26071167 134.70993042 C120.26138679 133.29652817 120.25957956 131.8831227 120.25537109 130.46972656 C120.24996255 128.29745672 120.25536424 126.12538893 120.26171875 123.953125 C120.26105883 122.57552038 120.25977947 121.19791588 120.2578125 119.8203125 C120.25612061 117.94690186 120.25612061 117.94690186 120.25439453 116.03564453 C120.45030607 113.28804388 120.45030607 113.28804388 119.125 112.1875 C118.81152029 110.48454265 118.50350058 108.78037096 118.2253418 107.07128906 C116.84025922 98.63531571 114.61797824 91.02685458 111.125 83.1875 C110.67125 82.16914062 110.2175 81.15078125 109.75 80.1015625 C104.79017931 69.61585462 98.05822826 60.9298174 90.19921875 52.45703125 C88.47049035 50.5655224 86.89135212 48.63907822 85.3125 46.625 C68.80776853 27.30902306 39.29934814 15.76563756 14.44946289 13.35302734 C0.75896783 12.3781134 -12.55511429 12.78200345 -25.875 16.1875 Z " fill="#F6F6F7" transform="translate(128.875,-0.1875)"/>
<path d="M0 0 C2.59562683 0.95857239 2.59562683 0.95857239 5 3 C5.75945899 6.00570327 5.63081626 8.97663204 5.56762695 12.0612793 C5.56835709 12.98830658 5.56908722 13.91533386 5.56983948 14.87045288 C5.56635204 17.93896715 5.52743584 21.00596923 5.48828125 24.07421875 C5.47895725 26.1998461 5.47183919 28.32548418 5.46684265 30.4511261 C5.44774048 36.04918012 5.39861137 41.64658676 5.34332275 47.24438477 C5.29219999 52.95515179 5.26934349 58.66602329 5.24414062 64.37695312 C5.19049622 75.58492005 5.10514406 86.79240622 5 98 C4.34 98 3.68 98 3 98 C1.69749507 96.08965944 0.4840895 94.11831337 -0.6875 92.125 C-1.33074219 91.03445312 -1.97398437 89.94390625 -2.63671875 88.8203125 C-2.99269135 88.20842575 -3.34866394 87.596539 -3.71542358 86.96611023 C-4.98153549 84.92754908 -4.98153549 84.92754908 -6.73306274 83.02375793 C-13.18688343 75.32089762 -12.98059373 67.89346725 -12.82421875 58.37890625 C-12.82131031 56.78613033 -12.82093188 55.19334798 -12.82295227 53.60057068 C-12.81975316 50.28272386 -12.79299898 46.96621665 -12.74780273 43.64868164 C-12.6908103 39.39573652 -12.68297742 35.14444047 -12.69121075 30.89117527 C-12.69400492 27.6114114 -12.67642881 24.3320162 -12.65207863 21.052351 C-12.6418718 19.48347368 -12.63677118 17.91455451 -12.63687706 16.345644 C-12.63291592 14.16008752 -12.60282856 11.97646164 -12.56518555 9.79125977 C-12.55295456 8.54901138 -12.54072357 7.306763 -12.52812195 6.02687073 C-12 3 -12 3 -10.21076965 1.09898376 C-6.90636872 -0.54364914 -3.5721013 -0.67849969 0 0 Z " fill="#F5F5F5" transform="translate(176,77)"/>
<path d="M0 0 C0.66 0 1.32 0 2 0 C1.67 0.99 1.34 1.98 1 3 C0.34 3 -0.32 3 -1 3 C-1 26.43 -1 49.86 -1 74 C-1.33 74 -1.66 74 -2 74 C-2.04627898 64.64692389 -2.08184653 55.29388701 -2.10362434 45.94072151 C-2.114075 41.59797251 -2.12825747 37.25530167 -2.15087891 32.91259766 C-2.17256174 28.72401025 -2.18455896 24.53549816 -2.18975449 20.34685898 C-2.19345847 18.7464161 -2.20069113 17.14597749 -2.21146011 15.54556656 C-2.22591463 13.30909468 -2.22798051 11.07293663 -2.22705078 8.83642578 C-2.231492 7.56179474 -2.23593323 6.2871637 -2.24050903 4.97390747 C-2 2 -2 2 0 0 Z " fill="#B4B4B4" transform="translate(166,78)"/>
</svg>
