<svg width="161" height="33" viewBox="0 0 161 33" fill="none" xmlns="http://www.w3.org/2000/svg">
<path d="M16.118 23.7852L10.5847 27.1186C10.3402 27.2741 10.0847 27.3408 9.81799 27.3186C9.55133 27.2963 9.31799 27.2074 9.11799 27.0519C8.91799 26.8963 8.76244 26.7021 8.65133 26.4692C8.54021 26.2363 8.51799 25.975 8.58466 25.6852L10.0513 19.3852L5.15133 15.1519C4.9291 14.9519 4.79044 14.7239 4.73533 14.4679C4.68021 14.2119 4.69666 13.9621 4.78466 13.7186C4.87266 13.475 5.00599 13.275 5.18466 13.1186C5.36333 12.9621 5.60777 12.8621 5.91799 12.8186L12.3847 12.2519L14.8847 6.31855C14.9958 6.05189 15.1682 5.85189 15.402 5.71855C15.6358 5.58522 15.8744 5.51855 16.118 5.51855C16.3615 5.51855 16.6002 5.58522 16.834 5.71855C17.0678 5.85189 17.2402 6.05189 17.3513 6.31855L19.8513 12.2519L26.318 12.8186C26.6291 12.863 26.8735 12.963 27.0513 13.1186C27.2291 13.2741 27.3624 13.4741 27.4513 13.7186C27.5402 13.963 27.5571 14.2132 27.502 14.4692C27.4469 14.7252 27.3078 14.9528 27.0847 15.1519L22.1847 19.3852L23.6513 25.6852C23.718 25.9741 23.6958 26.2354 23.5847 26.4692C23.4735 26.703 23.318 26.8972 23.118 27.0519C22.918 27.2066 22.6847 27.2954 22.418 27.3186C22.1513 27.3417 21.8958 27.275 21.6513 27.1186L16.118 23.7852Z" fill="#F3993F"/>
<path d="M48.118 23.7852L42.5847 27.1186C42.3402 27.2741 42.0847 27.3408 41.818 27.3186C41.5513 27.2963 41.318 27.2074 41.118 27.0519C40.918 26.8963 40.7624 26.7021 40.6513 26.4692C40.5402 26.2363 40.518 25.975 40.5847 25.6852L42.0513 19.3852L37.1513 15.1519C36.9291 14.9519 36.7904 14.7239 36.7353 14.4679C36.6802 14.2119 36.6967 13.9621 36.7847 13.7186C36.8727 13.475 37.006 13.275 37.1847 13.1186C37.3633 12.9621 37.6078 12.8621 37.918 12.8186L44.3847 12.2519L46.8847 6.31855C46.9958 6.05189 47.1682 5.85189 47.402 5.71855C47.6358 5.58522 47.8744 5.51855 48.118 5.51855C48.3615 5.51855 48.6002 5.58522 48.834 5.71855C49.0678 5.85189 49.2402 6.05189 49.3513 6.31855L51.8513 12.2519L58.318 12.8186C58.6291 12.863 58.8735 12.963 59.0513 13.1186C59.2291 13.2741 59.3624 13.4741 59.4513 13.7186C59.5402 13.963 59.5571 14.2132 59.502 14.4692C59.4469 14.7252 59.3078 14.9528 59.0847 15.1519L54.1847 19.3852L55.6513 25.6852C55.718 25.9741 55.6958 26.2354 55.5847 26.4692C55.4735 26.703 55.318 26.8972 55.118 27.0519C54.918 27.2066 54.6847 27.2954 54.418 27.3186C54.1513 27.3417 53.8958 27.275 53.6513 27.1186L48.118 23.7852Z" fill="#F3993F"/>
<path d="M80.118 23.7852L74.5847 27.1186C74.3402 27.2741 74.0847 27.3408 73.818 27.3186C73.5513 27.2963 73.318 27.2074 73.118 27.0519C72.918 26.8963 72.7624 26.7021 72.6513 26.4692C72.5402 26.2363 72.518 25.975 72.5847 25.6852L74.0513 19.3852L69.1513 15.1519C68.9291 14.9519 68.7904 14.7239 68.7353 14.4679C68.6802 14.2119 68.6967 13.9621 68.7847 13.7186C68.8727 13.475 69.006 13.275 69.1847 13.1186C69.3633 12.9621 69.6078 12.8621 69.918 12.8186L76.3847 12.2519L78.8847 6.31855C78.9958 6.05189 79.1682 5.85189 79.402 5.71855C79.6358 5.58522 79.8744 5.51855 80.118 5.51855C80.3615 5.51855 80.6002 5.58522 80.834 5.71855C81.0678 5.85189 81.2402 6.05189 81.3513 6.31855L83.8513 12.2519L90.318 12.8186C90.6291 12.863 90.8735 12.963 91.0513 13.1186C91.2291 13.2741 91.3624 13.4741 91.4513 13.7186C91.5402 13.963 91.5571 14.2132 91.502 14.4692C91.4469 14.7252 91.3078 14.9528 91.0847 15.1519L86.1847 19.3852L87.6513 25.6852C87.718 25.9741 87.6958 26.2354 87.5847 26.4692C87.4735 26.703 87.318 26.8972 87.118 27.0519C86.918 27.2066 86.6847 27.2954 86.418 27.3186C86.1513 27.3417 85.8958 27.275 85.6513 27.1186L80.118 23.7852Z" fill="#F3993F"/>
<path d="M112.118 23.7852L106.585 27.1186C106.34 27.2741 106.085 27.3408 105.818 27.3186C105.551 27.2963 105.318 27.2074 105.118 27.0519C104.918 26.8963 104.762 26.7021 104.651 26.4692C104.54 26.2363 104.518 25.975 104.585 25.6852L106.051 19.3852L101.151 15.1519C100.929 14.9519 100.79 14.7239 100.735 14.4679C100.68 14.2119 100.697 13.9621 100.785 13.7186C100.873 13.475 101.006 13.275 101.185 13.1186C101.363 12.9621 101.608 12.8621 101.918 12.8186L108.385 12.2519L110.885 6.31855C110.996 6.05189 111.168 5.85189 111.402 5.71855C111.636 5.58522 111.874 5.51855 112.118 5.51855C112.362 5.51855 112.6 5.58522 112.834 5.71855C113.068 5.85189 113.24 6.05189 113.351 6.31855L115.851 12.2519L122.318 12.8186C122.629 12.863 122.874 12.963 123.051 13.1186C123.229 13.2741 123.362 13.4741 123.451 13.7186C123.54 13.963 123.557 14.2132 123.502 14.4692C123.447 14.7252 123.308 14.9528 123.085 15.1519L118.185 19.3852L119.651 25.6852C119.718 25.9741 119.696 26.2354 119.585 26.4692C119.474 26.703 119.318 26.8972 119.118 27.0519C118.918 27.2066 118.685 27.2954 118.418 27.3186C118.151 27.3417 117.896 27.275 117.651 27.1186L112.118 23.7852Z" fill="#F3993F"/>
<path d="M144.118 23.7852L138.585 27.1186C138.34 27.2741 138.085 27.3408 137.818 27.3186C137.551 27.2963 137.318 27.2074 137.118 27.0519C136.918 26.8963 136.762 26.7021 136.651 26.4692C136.54 26.2363 136.518 25.975 136.585 25.6852L138.051 19.3852L133.151 15.1519C132.929 14.9519 132.79 14.7239 132.735 14.4679C132.68 14.2119 132.697 13.9621 132.785 13.7186C132.873 13.475 133.006 13.275 133.185 13.1186C133.363 12.9621 133.608 12.8621 133.918 12.8186L140.385 12.2519L142.885 6.31855C142.996 6.05189 143.168 5.85189 143.402 5.71855C143.636 5.58522 143.874 5.51855 144.118 5.51855C144.362 5.51855 144.6 5.58522 144.834 5.71855C145.068 5.85189 145.24 6.05189 145.351 6.31855L147.851 12.2519L154.318 12.8186C154.629 12.863 154.874 12.963 155.051 13.1186C155.229 13.2741 155.362 13.4741 155.451 13.7186C155.54 13.963 155.557 14.2132 155.502 14.4692C155.447 14.7252 155.308 14.9528 155.085 15.1519L150.185 19.3852L151.651 25.6852C151.718 25.9741 151.696 26.2354 151.585 26.4692C151.474 26.703 151.318 26.8972 151.118 27.0519C150.918 27.2066 150.685 27.2954 150.418 27.3186C150.151 27.3417 149.896 27.275 149.651 27.1186L144.118 23.7852Z" fill="#F3993F"/>
</svg>
