<svg width="28" height="28" viewBox="0 0 28 28" fill="none" xmlns="http://www.w3.org/2000/svg">
<path d="M14 0C21.7322 0 28 6.2678 28 14C28 21.7322 21.7322 28 14 28C6.2678 28 0 21.7322 0 14C0 6.2678 6.2678 0 14 0ZM18.949 8.9334L12.019 15.8634L9.051 12.894C8.92102 12.7639 8.76669 12.6607 8.59682 12.5903C8.42696 12.5199 8.24488 12.4836 8.06099 12.4835C7.68962 12.4834 7.3334 12.6308 7.0707 12.8933C6.808 13.1558 6.66035 13.5119 6.66022 13.8833C6.66009 14.2547 6.80749 14.6109 7.07 14.8736L10.9312 18.7348C11.0742 18.8779 11.244 18.9914 11.4309 19.0688C11.6178 19.1463 11.8181 19.1861 12.0204 19.1861C12.2227 19.1861 12.423 19.1463 12.6099 19.0688C12.7968 18.9914 12.9666 18.8779 13.1096 18.7348L20.93 10.9144C21.1927 10.6517 21.3403 10.2954 21.3403 9.9239C21.3403 9.55239 21.1927 9.1961 20.93 8.9334C20.6673 8.6707 20.311 8.52312 19.9395 8.52312C19.568 8.52312 19.2117 8.6707 18.949 8.9334Z" fill="#E17B0E"/>
</svg>
