<svg width="1018" height="644" viewBox="0 0 1018 644" fill="none" xmlns="http://www.w3.org/2000/svg">
<g opacity="0.7">
<path d="M0 509C0 227.887 227.887 0 509 0C790.113 0 1018 227.887 1018 509C1018 790.113 790.113 1018 509 1018C227.887 1018 0 790.113 0 509Z" fill="#6600EB" fill-opacity="0.2"/>
<path d="M109.315 509C109.315 288.26 288.26 109.315 509 109.315C729.74 109.315 908.685 288.26 908.685 509C908.685 729.74 729.74 908.685 509 908.685C288.26 908.685 109.315 729.74 109.315 509Z" fill="#6600EB" fill-opacity="0.4"/>
<path d="M218.631 509C218.631 348.634 348.634 218.631 509 218.631C669.366 218.631 799.369 348.634 799.369 509C799.369 669.366 669.366 799.369 509 799.369C348.634 799.369 218.631 669.366 218.631 509Z" fill="#6600EB" fill-opacity="0.6"/>
<circle cx="509" cy="509" r="181.054" fill="#6600EB" fill-opacity="0.8"/>
</g>
</svg>
