<svg width="19" height="15" viewBox="0 0 19 15" fill="none" xmlns="http://www.w3.org/2000/svg">
<path d="M1.16675 3.3335L7.97085 8.09636C8.52182 8.48205 8.79731 8.67489 9.09697 8.74959C9.36166 8.81557 9.6385 8.81557 9.90319 8.74959C10.2029 8.67489 10.4783 8.48205 11.0293 8.09637L17.8334 3.3335M5.16675 14.1668H13.8334C15.2335 14.1668 15.9336 14.1668 16.4684 13.8943C16.9388 13.6547 17.3212 13.2722 17.5609 12.8018C17.8334 12.267 17.8334 11.567 17.8334 10.1668V4.8335C17.8334 3.43336 17.8334 2.7333 17.5609 2.19852C17.3212 1.72811 16.9388 1.34566 16.4684 1.10598C15.9336 0.833496 15.2335 0.833496 13.8334 0.833496H5.16675C3.76662 0.833496 3.06655 0.833496 2.53177 1.10598C2.06137 1.34566 1.67892 1.72811 1.43923 2.19852C1.16675 2.7333 1.16675 3.43336 1.16675 4.8335V10.1668C1.16675 11.567 1.16675 12.267 1.43923 12.8018C1.67892 13.2722 2.06137 13.6547 2.53177 13.8943C3.06655 14.1668 3.76662 14.1668 5.16675 14.1668Z" stroke="#0A0D12" stroke-width="1.66667" stroke-linecap="round" stroke-linejoin="round"/>
</svg>
