<svg width="250" height="191" viewBox="0 0 250 191" fill="none" xmlns="http://www.w3.org/2000/svg">
<g filter="url(#filter0_f_18435_4419)">
<ellipse cx="122.786" cy="154.725" rx="91.609" ry="17.6726" fill="#6600EB" fill-opacity="0.35"/>
</g>
<path d="M123.793 190C176.26 190 218.793 147.467 218.793 95C218.793 42.533 176.26 0 123.793 0C71.3258 0 28.7928 42.533 28.7928 95C28.7928 147.467 71.3258 190 123.793 190Z" fill="url(#paint0_linear_18435_4419)"/>
<g filter="url(#filter1_d_18435_4419)">
<path d="M203.371 64.2913L121.963 121.104L40.5544 64.2913L115.077 12.2624C117.098 10.8538 119.503 10.0986 121.966 10.0986C124.43 10.0986 126.834 10.8538 128.855 12.2624L143.72 22.6547L147.612 25.3575L186.803 52.7233L190.932 55.6221L203.371 64.2913Z" fill="#F3EBFF"/>
</g>
<path d="M108.726 111.868L40.5544 160.342V64.2915L108.726 111.868Z" fill="url(#paint1_linear_18435_4419)"/>
<g filter="url(#filter2_f_18435_4419)">
<ellipse cx="161.738" cy="62.3952" rx="30.2959" ry="9.73797" fill="#14A800" fill-opacity="0.3"/>
</g>
<path d="M135.206 111.868L203.378 160.342V64.2915L135.206 111.868Z" fill="url(#paint2_linear_18435_4419)"/>
<path d="M40.5544 160.342L114.99 107.422C117.027 105.971 119.465 105.191 121.966 105.191C124.467 105.191 126.906 105.971 128.943 107.422L203.371 160.342H40.5544Z" fill="url(#paint3_linear_18435_4419)"/>
<path d="M163.139 56.2762C165.412 56.2762 166.999 54.7252 166.999 52.5609C166.999 50.3966 165.412 48.8455 163.139 48.8455C160.903 48.8455 159.279 50.3966 159.279 52.5609C159.279 54.7252 160.903 56.2762 163.139 56.2762ZM166.241 47.5109C166.241 44.9859 167.468 44.0119 169.343 43.038C171.868 41.7394 173.744 39.6112 173.744 36.5812C173.744 32.0723 169.452 28.898 163.716 28.898C157.656 28.898 153.328 32.4691 152.895 37.483L159.857 38.7455C160.109 36.4369 161.48 34.7416 163.428 34.7416C164.979 34.7416 166.169 35.8237 166.169 37.3026C166.169 38.7816 164.834 39.6112 163.68 40.3687C161.155 42.028 160.073 43.9037 160.073 47.5109H166.241Z" fill="white"/>
<g filter="url(#filter3_d_18435_4419)">
<path d="M49.156 46.8867C36.6757 52.7248 23.2644 56.3185 9.53707 57.5033C11.3919 61.815 24.5711 83.398 63.6938 101.182C64.7514 101.344 89.1818 89.9795 102.589 82.1858C102.133 82.8367 60.9441 67.6806 49.156 46.8867Z" fill="url(#paint4_linear_18435_4419)"/>
</g>
<path d="M50.1219 57.6174C49.5476 57.219 48.8202 57.1114 48.1551 57.3266L26.3194 64.3911C25.5371 64.6441 25.2584 65.6076 25.7848 66.2392C26.2086 66.7478 26.9023 66.942 27.5286 66.7275L49.9215 59.0576C50.5533 58.8412 50.6707 57.9982 50.1219 57.6174Z" fill="#C9DFFF"/>
<path d="M49.7432 66.3183C49.1894 65.7983 48.3944 65.625 47.6744 65.8673L32.5579 70.9547C31.8913 71.179 31.6559 72.0014 32.1029 72.5444C32.4681 72.9881 33.0699 73.1591 33.6138 72.9739L49.4717 67.5745C50.007 67.3922 50.1555 66.7054 49.7432 66.3183Z" fill="#C9DFFF"/>
<path d="M57.8568 70.6268C57.2789 70.164 56.5015 70.0359 55.8057 70.2888L38.3933 76.6173C37.7099 76.8657 37.5042 77.7327 38.0032 78.2616C38.385 78.6662 38.9712 78.8043 39.4935 78.6127L57.6403 71.9534C58.2044 71.7464 58.3259 71.0024 57.8568 70.6268Z" fill="#C9DFFF"/>
<path d="M63.9443 83.6887C63.409 83.0971 62.5654 82.8947 61.8199 83.1792L51.8687 86.9766C51.2577 87.2098 51.0374 87.9614 51.4259 88.4876C51.7899 88.9807 52.4389 89.1691 53.0105 88.9478L63.6767 84.8167C64.1367 84.6385 64.2752 84.0546 63.9443 83.6887Z" fill="#C9DFFF"/>
<g filter="url(#filter4_d_18435_4419)">
<path d="M193.423 76.9854C208.556 84.0643 224.818 88.422 241.463 89.8586C239.214 95.0868 223.233 121.257 175.795 142.821C174.512 143.019 144.889 129.238 128.632 119.788C129.185 120.577 179.129 102.199 193.423 76.9854Z" fill="url(#paint5_linear_18435_4419)"/>
</g>
<path d="M192.252 89.9976C192.948 89.5144 193.83 89.384 194.637 89.6449L221.114 98.211C222.062 98.5179 222.4 99.6861 221.762 100.452C221.248 101.069 220.407 101.304 219.647 101.044L192.495 91.7439C191.729 91.4814 191.586 90.4592 192.252 89.9976Z" fill="#C9DFFF"/>
<path d="M184.838 97.0486C185.51 96.4181 186.474 96.2079 187.347 96.5017L205.677 102.671C206.485 102.943 206.77 103.94 206.228 104.598C205.786 105.136 205.056 105.344 204.396 105.119L185.168 98.5718C184.519 98.3508 184.339 97.518 184.838 97.0486Z" fill="#C9DFFF"/>
<path d="M177.22 102.902C177.921 102.341 178.863 102.186 179.707 102.492L200.821 110.166C201.649 110.467 201.899 111.519 201.294 112.16C200.831 112.651 200.12 112.818 199.487 112.586L177.483 104.511C176.799 104.26 176.651 103.358 177.22 102.902Z" fill="#C9DFFF"/>
<path d="M160.077 114.613C160.726 113.896 161.749 113.65 162.653 113.995L174.72 118.6C175.461 118.883 175.728 119.794 175.257 120.432C174.815 121.03 174.028 121.259 173.335 120.99L160.402 115.981C159.844 115.765 159.676 115.057 160.077 114.613Z" fill="#C9DFFF"/>
<path d="M167.954 108.359C168.668 107.911 169.549 107.819 170.341 108.108L198.144 118.274C199.032 118.599 199.247 119.757 198.535 120.379C198.064 120.791 197.405 120.913 196.818 120.696L168.138 110.131C167.365 109.846 167.256 108.797 167.954 108.359Z" fill="#C9DFFF"/>
<path d="M69.9664 73.4815C69.3774 73.1119 68.6506 73.0355 67.9975 73.2742L45.0688 81.6577C44.336 81.9257 44.1585 82.8811 44.7461 83.3944C45.1348 83.7339 45.6779 83.8341 46.1621 83.6557L69.8144 74.9428C70.4523 74.7078 70.5423 73.8427 69.9664 73.4815Z" fill="#C9DFFF"/>
<path d="M203.575 22.3608C203.575 25.1495 201.314 27.4102 198.526 27.4102C195.737 27.4102 193.476 25.1495 193.476 22.3608C193.476 19.5722 195.737 17.3115 198.526 17.3115C201.314 17.3115 203.575 19.5722 203.575 22.3608Z" fill="#C7A4F3"/>
<ellipse cx="57.8663" cy="169.513" rx="5.04932" ry="5.04932" fill="#C7A4F3"/>
<ellipse cx="179.771" cy="177.447" rx="5.04932" ry="5.04932" fill="#C7A4F3"/>
<path d="M71.3312 26.447C71.7577 24.6804 74.2705 24.6804 74.6969 26.447L76.1322 32.3928C76.2846 33.0241 76.7775 33.517 77.4088 33.6694L83.3546 35.1047C85.1213 35.5311 85.1212 38.0439 83.3546 38.4704L77.4088 39.9057C76.7775 40.0581 76.2846 40.551 76.1322 41.1823L74.6969 47.1281C74.2705 48.8947 71.7577 48.8947 71.3312 47.1281L69.896 41.1823C69.7436 40.551 69.2506 40.0581 68.6193 39.9057L62.6735 38.4704C60.9069 38.0439 60.9069 35.5311 62.6735 35.1047L68.6193 33.6694C69.2506 33.517 69.7436 33.0241 69.896 32.3928L71.3312 26.447Z" fill="#F3993F"/>
<path d="M215.868 151.913C216.294 150.147 218.807 150.147 219.233 151.913L220.669 157.859C220.821 158.49 221.314 158.983 221.945 159.136L227.891 160.571C229.658 160.997 229.658 163.51 227.891 163.937L221.945 165.372C221.314 165.524 220.821 166.017 220.669 166.649L219.233 172.594C218.807 174.361 216.294 174.361 215.868 172.594L214.432 166.649C214.28 166.017 213.787 165.524 213.156 165.372L207.21 163.937C205.443 163.51 205.443 160.997 207.21 160.571L213.156 159.136C213.787 158.983 214.28 158.49 214.432 157.859L215.868 151.913Z" fill="#F3993F"/>
<path d="M31.4712 137.997C32.5678 137.821 33.4432 138.898 33.047 139.936L30.3726 146.939C29.9764 147.976 28.6056 148.196 27.9053 147.334L23.1777 141.516C22.4773 140.654 22.9726 139.358 24.0692 139.182L31.4712 137.997Z" fill="#C7A4F3"/>
<path d="M218.732 66.6087C218.458 65.5325 219.451 64.5629 220.52 64.8634L227.737 66.8914C228.806 67.1918 229.149 68.537 228.354 69.3127L222.99 74.5486C222.195 75.3242 220.858 74.9487 220.584 73.8726L218.732 66.6087Z" fill="#C7A4F3"/>
<path d="M162.674 70.5079C177.675 70.5079 189.837 58.3466 189.837 43.3448C189.837 28.343 177.675 16.1816 162.674 16.1816C147.672 16.1816 135.51 28.343 135.51 43.3448C135.51 58.3466 147.672 70.5079 162.674 70.5079Z" fill="url(#paint6_linear_18435_4419)"/>
<path d="M175.609 36.0283L159.665 51.9719L152.418 44.7248" stroke="white" stroke-width="6.62592" stroke-linecap="round" stroke-linejoin="round"/>
<defs>
<filter id="filter0_f_18435_4419" x="13.144" y="119.019" width="219.285" height="71.4118" filterUnits="userSpaceOnUse" color-interpolation-filters="sRGB">
<feFlood flood-opacity="0" result="BackgroundImageFix"/>
<feBlend mode="normal" in="SourceGraphic" in2="BackgroundImageFix" result="shape"/>
<feGaussianBlur stdDeviation="9.01664" result="effect1_foregroundBlur_18435_4419"/>
</filter>
<filter id="filter1_d_18435_4419" x="37.6691" y="10.0986" width="168.587" height="116.776" filterUnits="userSpaceOnUse" color-interpolation-filters="sRGB">
<feFlood flood-opacity="0" result="BackgroundImageFix"/>
<feColorMatrix in="SourceAlpha" type="matrix" values="0 0 0 0 0 0 0 0 0 0 0 0 0 0 0 0 0 0 127 0" result="hardAlpha"/>
<feOffset dy="2.88532"/>
<feGaussianBlur stdDeviation="1.44266"/>
<feComposite in2="hardAlpha" operator="out"/>
<feColorMatrix type="matrix" values="0 0 0 0 0 0 0 0 0 0 0 0 0 0 0 0 0 0 0.25 0"/>
<feBlend mode="normal" in2="BackgroundImageFix" result="effect1_dropShadow_18435_4419"/>
<feBlend mode="normal" in="SourceGraphic" in2="effect1_dropShadow_18435_4419" result="shape"/>
</filter>
<filter id="filter2_f_18435_4419" x="113.409" y="34.624" width="96.6583" height="55.5426" filterUnits="userSpaceOnUse" color-interpolation-filters="sRGB">
<feFlood flood-opacity="0" result="BackgroundImageFix"/>
<feBlend mode="normal" in="SourceGraphic" in2="BackgroundImageFix" result="shape"/>
<feGaussianBlur stdDeviation="9.01664" result="effect1_foregroundBlur_18435_4419"/>
</filter>
<filter id="filter3_d_18435_4419" x="0.881139" y="41.1161" width="110.364" height="71.6088" filterUnits="userSpaceOnUse" color-interpolation-filters="sRGB">
<feFlood flood-opacity="0" result="BackgroundImageFix"/>
<feColorMatrix in="SourceAlpha" type="matrix" values="0 0 0 0 0 0 0 0 0 0 0 0 0 0 0 0 0 0 127 0" result="hardAlpha"/>
<feOffset dy="2.88532"/>
<feGaussianBlur stdDeviation="4.32799"/>
<feComposite in2="hardAlpha" operator="out"/>
<feColorMatrix type="matrix" values="0 0 0 0 0.0196078 0 0 0 0 0.168627 0 0 0 0 0.396078 0 0 0 0.15 0"/>
<feBlend mode="normal" in2="BackgroundImageFix" result="effect1_dropShadow_18435_4419"/>
<feBlend mode="normal" in="SourceGraphic" in2="effect1_dropShadow_18435_4419" result="shape"/>
</filter>
<filter id="filter4_d_18435_4419" x="111.996" y="75.5427" width="137.356" height="90.3631" filterUnits="userSpaceOnUse" color-interpolation-filters="sRGB">
<feFlood flood-opacity="0" result="BackgroundImageFix"/>
<feColorMatrix in="SourceAlpha" type="matrix" values="0 0 0 0 0 0 0 0 0 0 0 0 0 0 0 0 0 0 127 0" result="hardAlpha"/>
<feOffset dx="-4.37328" dy="10.82"/>
<feGaussianBlur stdDeviation="6.13131"/>
<feComposite in2="hardAlpha" operator="out"/>
<feColorMatrix type="matrix" values="0 0 0 0 0.021441 0 0 0 0 0.168056 0 0 0 0 0.395833 0 0 0 0.15 0"/>
<feBlend mode="normal" in2="BackgroundImageFix" result="effect1_dropShadow_18435_4419"/>
<feBlend mode="normal" in="SourceGraphic" in2="effect1_dropShadow_18435_4419" result="shape"/>
</filter>
<linearGradient id="paint0_linear_18435_4419" x1="123.061" y1="-30.9343" x2="125.007" y2="302.691" gradientUnits="userSpaceOnUse">
<stop stop-color="#F3EBFF" stop-opacity="0.2"/>
<stop offset="1" stop-color="#F3EBFF"/>
</linearGradient>
<linearGradient id="paint1_linear_18435_4419" x1="74.6401" y1="64.2915" x2="74.6401" y2="160.342" gradientUnits="userSpaceOnUse">
<stop stop-color="#8B32FF"/>
<stop offset="1" stop-color="#B08EDD"/>
</linearGradient>
<linearGradient id="paint2_linear_18435_4419" x1="169.292" y1="64.2915" x2="169.292" y2="160.342" gradientUnits="userSpaceOnUse">
<stop stop-color="#8B32FF"/>
<stop offset="1" stop-color="#B08EDD"/>
</linearGradient>
<linearGradient id="paint3_linear_18435_4419" x1="121.963" y1="105.191" x2="121.963" y2="160.342" gradientUnits="userSpaceOnUse">
<stop stop-color="#6600EB"/>
<stop offset="1" stop-color="#C599FF"/>
</linearGradient>
<linearGradient id="paint4_linear_18435_4419" x1="19.6357" y1="71.0513" x2="80.5882" y2="59.1493" gradientUnits="userSpaceOnUse">
<stop stop-color="#C6DDFF"/>
<stop offset="1" stop-color="white"/>
</linearGradient>
<linearGradient id="paint5_linear_18435_4419" x1="229.218" y1="106.286" x2="155.309" y2="91.8545" gradientUnits="userSpaceOnUse">
<stop stop-color="#C6DDFF"/>
<stop offset="1" stop-color="white"/>
</linearGradient>
<linearGradient id="paint6_linear_18435_4419" x1="135.77" y1="19.8368" x2="189.87" y2="70.6906" gradientUnits="userSpaceOnUse">
<stop stop-color="#8FE783"/>
<stop offset="1" stop-color="#20A10F"/>
</linearGradient>
</defs>
</svg>
