<svg width="250" height="191" viewBox="0 0 250 191" fill="none" xmlns="http://www.w3.org/2000/svg">
<g filter="url(#filter0_f_20711_4351)">
<ellipse cx="122.786" cy="154.725" rx="91.609" ry="17.6726" fill="#6600EB" fill-opacity="0.35"/>
</g>
<path d="M123.793 190C176.26 190 218.793 147.467 218.793 95C218.793 42.533 176.26 0 123.793 0C71.3258 0 28.7928 42.533 28.7928 95C28.7928 147.467 71.3258 190 123.793 190Z" fill="url(#paint0_linear_20711_4351)"/>
<g filter="url(#filter1_d_20711_4351)">
<path d="M203.371 64.2913L121.963 121.104L40.5544 64.2913L115.077 12.2624C117.098 10.8538 119.503 10.0986 121.966 10.0986C124.43 10.0986 126.834 10.8538 128.855 12.2624L143.72 22.6547L147.612 25.3575L186.803 52.7233L190.932 55.6221L203.371 64.2913Z" fill="#F3EBFF"/>
</g>
<path d="M108.726 111.868L40.5544 160.342V64.2915L108.726 111.868Z" fill="url(#paint1_linear_20711_4351)"/>
<g filter="url(#filter2_f_20711_4351)">
<ellipse cx="161.738" cy="62.3952" rx="30.2959" ry="9.73797" fill="#E65243" fill-opacity="0.3"/>
</g>
<path d="M135.206 111.868L203.378 160.342V64.2915L135.206 111.868Z" fill="url(#paint2_linear_20711_4351)"/>
<path d="M40.5544 160.342L114.99 107.422C117.027 105.971 119.465 105.191 121.966 105.191C124.467 105.191 126.906 105.971 128.943 107.422L203.371 160.342H40.5544Z" fill="url(#paint3_linear_20711_4351)"/>
<g filter="url(#filter3_d_20711_4351)">
<path d="M49.156 46.8867C36.6757 52.7248 23.2644 56.3185 9.53707 57.5033C11.3919 61.815 24.5711 83.398 63.6938 101.182C64.7514 101.344 89.1818 89.9795 102.589 82.1858C102.133 82.8367 60.9441 67.6806 49.156 46.8867Z" fill="url(#paint4_linear_20711_4351)"/>
</g>
<path d="M50.1219 57.6174C49.5476 57.219 48.8202 57.1114 48.1551 57.3266L26.3194 64.3911C25.5371 64.6441 25.2584 65.6076 25.7848 66.2392C26.2086 66.7478 26.9023 66.942 27.5286 66.7275L49.9215 59.0576C50.5533 58.8412 50.6707 57.9982 50.1219 57.6174Z" fill="#C9DFFF"/>
<path d="M49.7433 66.3183C49.1895 65.7983 48.3946 65.625 47.6745 65.8673L32.558 70.9547C31.8914 71.179 31.6561 72.0014 32.103 72.5444C32.4682 72.9881 33.07 73.1591 33.6139 72.9739L49.4718 67.5745C50.0072 67.3922 50.1556 66.7054 49.7433 66.3183Z" fill="#C9DFFF"/>
<path d="M57.8569 70.6268C57.279 70.164 56.5017 70.0359 55.8058 70.2888L38.3934 76.6173C37.71 76.8657 37.5043 77.7327 38.0033 78.2616C38.3851 78.6662 38.9713 78.8043 39.4936 78.6127L57.6404 71.9534C58.2046 71.7464 58.326 71.0024 57.8569 70.6268Z" fill="#C9DFFF"/>
<path d="M63.9444 83.6887C63.4091 83.0971 62.5655 82.8947 61.8201 83.1792L51.8689 86.9766C51.2578 87.2098 51.0375 87.9614 51.426 88.4876C51.7901 88.9807 52.439 89.1691 53.0106 88.9478L63.6768 84.8167C64.1368 84.6385 64.2753 84.0546 63.9444 83.6887Z" fill="#C9DFFF"/>
<g filter="url(#filter4_d_20711_4351)">
<path d="M193.423 76.9854C208.556 84.0643 224.818 88.422 241.463 89.8586C239.214 95.0868 223.233 121.257 175.795 142.821C174.512 143.019 144.889 129.238 128.632 119.788C129.185 120.577 179.129 102.199 193.423 76.9854Z" fill="url(#paint5_linear_20711_4351)"/>
</g>
<path d="M192.252 89.9976C192.948 89.5144 193.83 89.384 194.637 89.6449L221.114 98.211C222.062 98.5179 222.4 99.6861 221.762 100.452C221.248 101.069 220.407 101.304 219.647 101.044L192.495 91.7439C191.729 91.4814 191.586 90.4592 192.252 89.9976Z" fill="#C9DFFF"/>
<path d="M184.838 97.0486C185.51 96.4181 186.474 96.2079 187.347 96.5017L205.677 102.671C206.485 102.943 206.77 103.94 206.228 104.598C205.786 105.136 205.056 105.344 204.396 105.119L185.168 98.5718C184.519 98.3508 184.339 97.518 184.838 97.0486Z" fill="#C9DFFF"/>
<path d="M177.22 102.902C177.921 102.341 178.863 102.186 179.707 102.492L200.821 110.166C201.649 110.467 201.899 111.519 201.294 112.16C200.831 112.651 200.12 112.818 199.487 112.586L177.483 104.511C176.799 104.26 176.651 103.358 177.22 102.902Z" fill="#C9DFFF"/>
<path d="M160.077 114.613C160.726 113.896 161.749 113.65 162.653 113.995L174.72 118.6C175.461 118.883 175.728 119.794 175.257 120.432C174.815 121.03 174.028 121.259 173.335 120.99L160.402 115.981C159.844 115.765 159.676 115.057 160.077 114.613Z" fill="#C9DFFF"/>
<path d="M167.954 108.359C168.668 107.911 169.549 107.819 170.341 108.108L198.144 118.274C199.032 118.599 199.247 119.757 198.535 120.379C198.064 120.791 197.405 120.913 196.818 120.696L168.138 110.131C167.365 109.846 167.256 108.797 167.954 108.359Z" fill="#C9DFFF"/>
<path d="M69.9665 73.4815C69.3775 73.1119 68.6507 73.0355 67.9976 73.2742L45.069 81.6577C44.3361 81.9257 44.1586 82.8811 44.7463 83.3944C45.135 83.7339 45.678 83.8341 46.1623 83.6557L69.8145 74.9428C70.4524 74.7078 70.5424 73.8427 69.9665 73.4815Z" fill="#C9DFFF"/>
<path d="M203.575 22.3608C203.575 25.1495 201.314 27.4102 198.526 27.4102C195.737 27.4102 193.476 25.1495 193.476 22.3608C193.476 19.5722 195.737 17.3115 198.526 17.3115C201.314 17.3115 203.575 19.5722 203.575 22.3608Z" fill="#C7A4F3"/>
<ellipse cx="57.8665" cy="169.513" rx="5.04932" ry="5.04932" fill="#C7A4F3"/>
<ellipse cx="179.771" cy="177.447" rx="5.04932" ry="5.04932" fill="#C7A4F3"/>
<path d="M31.4712 137.997C32.5678 137.821 33.4432 138.898 33.047 139.936L30.3726 146.939C29.9764 147.976 28.6056 148.196 27.9053 147.334L23.1777 141.516C22.4773 140.654 22.9726 139.358 24.0692 139.182L31.4712 137.997Z" fill="#C7A4F3"/>
<path d="M218.732 66.6087C218.458 65.5325 219.451 64.5629 220.52 64.8634L227.737 66.8914C228.806 67.1918 229.149 68.537 228.355 69.3127L222.99 74.5486C222.195 75.3242 220.859 74.9487 220.584 73.8726L218.732 66.6087Z" fill="#C7A4F3"/>
<path d="M164.5 74C179.136 74 191 62.1355 191 47.5C191 32.8645 179.136 21 164.5 21C149.864 21 138 32.8645 138 47.5C138 62.1355 149.864 74 164.5 74Z" fill="url(#paint6_linear_20711_4351)"/>
<path fill-rule="evenodd" clip-rule="evenodd" d="M159.315 38.5622C158.812 38.0932 158.146 37.8379 157.458 37.85C156.77 37.8622 156.114 38.1408 155.627 38.6273C155.141 39.1137 154.862 39.77 154.85 40.4579C154.838 41.1458 155.093 41.8115 155.562 42.3148L161.651 48.4039L155.562 54.493C155.093 54.9964 154.838 55.6621 154.85 56.3499C154.862 57.0378 155.141 57.6941 155.627 58.1806C156.114 58.667 156.77 58.9457 157.458 58.9578C158.146 58.97 158.812 58.7146 159.315 58.2456L165.404 52.1565L171.493 58.2456C171.996 58.7146 172.662 58.97 173.35 58.9578C174.038 58.9457 174.694 58.667 175.181 58.1806C175.667 57.6941 175.946 57.0378 175.958 56.3499C175.97 55.6621 175.715 54.9964 175.246 54.493L169.157 48.4039L175.246 42.3148C175.715 41.8115 175.97 41.1458 175.958 40.4579C175.946 39.77 175.667 39.1137 175.181 38.6273C174.694 38.1408 174.038 37.8622 173.35 37.85C172.662 37.8379 171.996 38.0932 171.493 38.5622L165.404 44.6513L159.315 38.5622Z" fill="white"/>
<defs>
<filter id="filter0_f_20711_4351" x="13.1441" y="119.019" width="219.285" height="71.4118" filterUnits="userSpaceOnUse" color-interpolation-filters="sRGB">
<feFlood flood-opacity="0" result="BackgroundImageFix"/>
<feBlend mode="normal" in="SourceGraphic" in2="BackgroundImageFix" result="shape"/>
<feGaussianBlur stdDeviation="9.01664" result="effect1_foregroundBlur_20711_4351"/>
</filter>
<filter id="filter1_d_20711_4351" x="37.6691" y="10.0986" width="168.587" height="116.776" filterUnits="userSpaceOnUse" color-interpolation-filters="sRGB">
<feFlood flood-opacity="0" result="BackgroundImageFix"/>
<feColorMatrix in="SourceAlpha" type="matrix" values="0 0 0 0 0 0 0 0 0 0 0 0 0 0 0 0 0 0 127 0" result="hardAlpha"/>
<feOffset dy="2.88532"/>
<feGaussianBlur stdDeviation="1.44266"/>
<feComposite in2="hardAlpha" operator="out"/>
<feColorMatrix type="matrix" values="0 0 0 0 0 0 0 0 0 0 0 0 0 0 0 0 0 0 0.25 0"/>
<feBlend mode="normal" in2="BackgroundImageFix" result="effect1_dropShadow_20711_4351"/>
<feBlend mode="normal" in="SourceGraphic" in2="effect1_dropShadow_20711_4351" result="shape"/>
</filter>
<filter id="filter2_f_20711_4351" x="113.409" y="34.624" width="96.6583" height="55.5426" filterUnits="userSpaceOnUse" color-interpolation-filters="sRGB">
<feFlood flood-opacity="0" result="BackgroundImageFix"/>
<feBlend mode="normal" in="SourceGraphic" in2="BackgroundImageFix" result="shape"/>
<feGaussianBlur stdDeviation="9.01664" result="effect1_foregroundBlur_20711_4351"/>
</filter>
<filter id="filter3_d_20711_4351" x="0.881139" y="41.1161" width="110.364" height="71.6088" filterUnits="userSpaceOnUse" color-interpolation-filters="sRGB">
<feFlood flood-opacity="0" result="BackgroundImageFix"/>
<feColorMatrix in="SourceAlpha" type="matrix" values="0 0 0 0 0 0 0 0 0 0 0 0 0 0 0 0 0 0 127 0" result="hardAlpha"/>
<feOffset dy="2.88532"/>
<feGaussianBlur stdDeviation="4.32799"/>
<feComposite in2="hardAlpha" operator="out"/>
<feColorMatrix type="matrix" values="0 0 0 0 0.0196078 0 0 0 0 0.168627 0 0 0 0 0.396078 0 0 0 0.15 0"/>
<feBlend mode="normal" in2="BackgroundImageFix" result="effect1_dropShadow_20711_4351"/>
<feBlend mode="normal" in="SourceGraphic" in2="effect1_dropShadow_20711_4351" result="shape"/>
</filter>
<filter id="filter4_d_20711_4351" x="111.996" y="75.5427" width="137.356" height="90.3631" filterUnits="userSpaceOnUse" color-interpolation-filters="sRGB">
<feFlood flood-opacity="0" result="BackgroundImageFix"/>
<feColorMatrix in="SourceAlpha" type="matrix" values="0 0 0 0 0 0 0 0 0 0 0 0 0 0 0 0 0 0 127 0" result="hardAlpha"/>
<feOffset dx="-4.37328" dy="10.82"/>
<feGaussianBlur stdDeviation="6.13131"/>
<feComposite in2="hardAlpha" operator="out"/>
<feColorMatrix type="matrix" values="0 0 0 0 0.021441 0 0 0 0 0.168056 0 0 0 0 0.395833 0 0 0 0.15 0"/>
<feBlend mode="normal" in2="BackgroundImageFix" result="effect1_dropShadow_20711_4351"/>
<feBlend mode="normal" in="SourceGraphic" in2="effect1_dropShadow_20711_4351" result="shape"/>
</filter>
<linearGradient id="paint0_linear_20711_4351" x1="123.061" y1="-30.9343" x2="125.007" y2="302.691" gradientUnits="userSpaceOnUse">
<stop stop-color="#F3EBFF" stop-opacity="0.2"/>
<stop offset="1" stop-color="#F3EBFF"/>
</linearGradient>
<linearGradient id="paint1_linear_20711_4351" x1="74.6401" y1="64.2915" x2="74.6401" y2="160.342" gradientUnits="userSpaceOnUse">
<stop stop-color="#8B32FF"/>
<stop offset="1" stop-color="#B08EDD"/>
</linearGradient>
<linearGradient id="paint2_linear_20711_4351" x1="169.292" y1="64.2915" x2="169.292" y2="160.342" gradientUnits="userSpaceOnUse">
<stop stop-color="#8B32FF"/>
<stop offset="1" stop-color="#B08EDD"/>
</linearGradient>
<linearGradient id="paint3_linear_20711_4351" x1="121.963" y1="105.191" x2="121.963" y2="160.342" gradientUnits="userSpaceOnUse">
<stop stop-color="#6600EB"/>
<stop offset="1" stop-color="#C599FF"/>
</linearGradient>
<linearGradient id="paint4_linear_20711_4351" x1="19.6357" y1="71.0513" x2="80.5882" y2="59.1493" gradientUnits="userSpaceOnUse">
<stop stop-color="#C6DDFF"/>
<stop offset="1" stop-color="white"/>
</linearGradient>
<linearGradient id="paint5_linear_20711_4351" x1="229.218" y1="106.286" x2="155.309" y2="91.8545" gradientUnits="userSpaceOnUse">
<stop stop-color="#C6DDFF"/>
<stop offset="1" stop-color="white"/>
</linearGradient>
<linearGradient id="paint6_linear_20711_4351" x1="164.5" y1="21" x2="164.5" y2="74" gradientUnits="userSpaceOnUse">
<stop stop-color="#E34C3D"/>
<stop offset="1" stop-color="#FF8C80"/>
</linearGradient>
</defs>
</svg>
