<svg width="19" height="19" viewBox="0 0 19 19" fill="none" xmlns="http://www.w3.org/2000/svg">
<path d="M8.24952 10.2501L16.9995 1.50014M8.35584 10.5235L10.5459 16.1552C10.7389 16.6513 10.8353 16.8994 10.9743 16.9718C11.0948 17.0346 11.2384 17.0347 11.359 16.972C11.498 16.8998 11.5948 16.6518 11.7883 16.1559L17.2803 2.08281C17.455 1.63516 17.5423 1.41133 17.4945 1.26831C17.453 1.1441 17.3556 1.04663 17.2314 1.00514C17.0883 0.957356 16.8645 1.0447 16.4169 1.21939L2.34373 6.71134C1.84784 6.90486 1.59989 7.00163 1.52763 7.14071C1.46499 7.26129 1.46508 7.40483 1.52786 7.52533C1.60028 7.66433 1.84834 7.7608 2.34446 7.95373L7.97613 10.1438C8.07684 10.183 8.12719 10.2026 8.16959 10.2328C8.20717 10.2596 8.24004 10.2925 8.26685 10.3301C8.29709 10.3725 8.31667 10.4228 8.35584 10.5235Z" stroke="#FDFDFD" stroke-width="2" stroke-linecap="round" stroke-linejoin="round"/>
</svg>
