<svg width="48" height="48" viewBox="0 0 48 48" fill="none" xmlns="http://www.w3.org/2000/svg">
<rect width="48" height="48" rx="24" fill="#410292"/>
<path d="M18.4789 33.7274V20.7612H14.173V33.7274H18.4794H18.4789ZM16.3269 18.9912C17.8281 18.9912 18.7627 17.9955 18.7627 16.7512C18.7346 15.4786 17.8281 14.5107 16.3554 14.5107C14.8817 14.5107 13.9192 15.4786 13.9192 16.7511C13.9192 17.9954 14.8535 18.9911 16.2986 18.9911H16.3265L16.3269 18.9912ZM20.8623 33.7274H25.1679V26.4872C25.1679 26.1002 25.196 25.7122 25.3098 25.4358C25.6209 24.6612 26.3294 23.8594 27.5192 23.8594C29.0768 23.8594 29.7003 25.0483 29.7003 26.7916V33.7274H34.0058V26.2929C34.0058 22.3105 31.8819 20.4572 29.049 20.4572C26.7264 20.4572 25.7063 21.7565 25.1396 22.6414H25.1683V20.7616H20.8625C20.9187 21.978 20.8622 33.7278 20.8622 33.7278L20.8623 33.7274Z" fill="#FDFDFD"/>
</svg>
