<svg width="48" height="48" viewBox="0 0 48 48" fill="none" xmlns="http://www.w3.org/2000/svg">
<rect width="48" height="48" rx="24" fill="#410292"/>
<g clip-path="url(#clip0_23434_3607)">
<path fill-rule="evenodd" clip-rule="evenodd" d="M24.4158 10.6006C20.9937 10.6024 17.6838 11.8144 15.078 14.02C12.4721 16.2255 10.7403 19.2808 10.1921 22.6395C9.64389 25.9982 10.3151 29.4413 12.0856 32.353C13.8562 35.2648 16.6107 37.4554 19.8566 38.5332C20.5727 38.6661 20.8424 38.2223 20.8424 37.8449C20.8424 37.4676 20.8281 36.3734 20.8233 35.1772C16.8132 36.0435 15.9658 33.485 15.9658 33.485C15.3118 31.8236 14.3665 31.3869 14.3665 31.3869C13.0585 30.4992 14.4644 30.5158 14.4644 30.5158C15.9133 30.6179 16.6748 31.9945 16.6748 31.9945C17.959 34.1851 20.0476 33.5514 20.8687 33.1812C20.9976 32.2532 21.3723 31.6219 21.7853 31.2635C18.582 30.9027 15.2163 29.6733 15.2163 24.1812C15.1965 22.7569 15.728 21.3795 16.701 20.3339C16.553 19.9732 16.0589 18.5159 16.8418 16.5365C16.8418 16.5365 18.0521 16.152 20.8066 18.0056C23.1693 17.3632 25.6622 17.3632 28.0249 18.0056C30.7771 16.152 31.9849 16.5365 31.9849 16.5365C32.7702 18.5112 32.2761 19.9684 32.1281 20.3339C33.1042 21.3796 33.6369 22.7595 33.6152 24.186C33.6152 29.6899 30.2424 30.9027 27.0343 31.2564C27.5499 31.7026 28.0106 32.5736 28.0106 33.9122C28.0106 35.8299 27.9938 37.3726 27.9938 37.8449C27.9938 38.2271 28.254 38.6733 28.9844 38.5332C32.2307 37.4553 34.9855 35.2643 36.756 32.352C38.5266 29.4397 39.1974 25.9962 38.6486 22.6372C38.0997 19.2782 36.367 16.2229 33.7604 14.0177C31.1537 11.8125 27.843 10.6012 24.4205 10.6006H24.4158Z" fill="white"/>
<path d="M15.4582 31.1803C15.4271 31.2515 15.3126 31.2729 15.2195 31.223C15.1264 31.1732 15.0572 31.0806 15.0906 31.007C15.124 30.9335 15.2362 30.9145 15.3293 30.9643C15.4224 31.0142 15.494 31.1091 15.4582 31.1803Z" fill="white"/>
<path d="M16.0441 31.8281C15.9947 31.8529 15.9381 31.8598 15.8841 31.8477C15.8301 31.8356 15.7821 31.8052 15.7481 31.7617C15.655 31.662 15.6359 31.5244 15.7075 31.4626C15.7792 31.4009 15.9081 31.4294 16.0012 31.5291C16.0942 31.6288 16.1157 31.7664 16.0441 31.8281Z" fill="white"/>
<path d="M16.6121 32.652C16.5238 32.7137 16.3734 32.652 16.2898 32.5286C16.2667 32.5064 16.2484 32.4799 16.2358 32.4505C16.2233 32.4212 16.2168 32.3896 16.2168 32.3577C16.2168 32.3258 16.2233 32.2942 16.2358 32.2648C16.2484 32.2355 16.2667 32.2089 16.2898 32.1868C16.3782 32.1275 16.5286 32.1868 16.6121 32.3078C16.6956 32.4289 16.698 32.5903 16.6121 32.652Z" fill="white"/>
<path d="M17.3831 33.4493C17.3043 33.5371 17.1444 33.5134 17.0131 33.3947C16.8818 33.2761 16.8508 33.1147 16.9295 33.0292C17.0083 32.9438 17.1682 32.9675 17.3043 33.0838C17.4404 33.2001 17.4666 33.3639 17.3831 33.4493Z" fill="white"/>
<path d="M18.4639 33.9147C18.428 34.0263 18.2657 34.0761 18.1034 34.0286C17.9411 33.9812 17.8337 33.8483 17.8647 33.7343C17.8957 33.6204 18.0605 33.5682 18.2252 33.6204C18.3899 33.6726 18.4949 33.7984 18.4639 33.9147Z" fill="white"/>
<path d="M19.6436 33.9955C19.6436 34.1118 19.5099 34.2115 19.3381 34.2139C19.1662 34.2163 19.0254 34.1213 19.0254 34.005C19.0254 33.8887 19.1591 33.789 19.3309 33.7867C19.5028 33.7843 19.6436 33.8769 19.6436 33.9955Z" fill="white"/>
<path d="M20.7409 33.8128C20.7624 33.9291 20.643 34.0501 20.4711 34.0786C20.2993 34.1071 20.1489 34.0382 20.1274 33.9243C20.1059 33.8104 20.2301 33.687 20.3972 33.6561C20.5642 33.6253 20.7194 33.6965 20.7409 33.8128Z" fill="white"/>
</g>
<defs>
<clipPath id="clip0_23434_3607">
<rect width="28.83" height="28.83" fill="white" transform="translate(10 10)"/>
</clipPath>
</defs>
</svg>
