<svg width="48" height="48" viewBox="0 0 48 48" fill="none" xmlns="http://www.w3.org/2000/svg">
<rect width="48" height="48" rx="24" fill="#410292"/>
<path d="M23.853 38.3086C15.9053 38.3086 9.43652 31.8398 9.43652 23.8921C9.43652 15.9444 15.9053 9.47559 23.853 9.47559C31.8007 9.47559 38.2695 15.9444 38.2695 23.8921C38.2695 31.8398 31.8007 38.3086 23.853 38.3086ZM23.853 11.8008C17.1842 11.8008 11.7618 17.2233 11.7618 23.8921C11.7618 30.5609 17.1842 35.9833 23.853 35.9833C30.5218 35.9833 35.9443 30.5609 35.9443 23.8921C35.9443 17.2233 30.5218 11.8008 23.853 11.8008Z" fill="#FDFDFD"/>
<path d="M19.6684 22.4737C16.9433 22.4737 13.9948 22.0692 10.8511 21.2507C10.228 21.0879 9.85592 20.4554 10.0187 19.8323C10.1815 19.2091 10.8139 18.8371 11.4371 18.9998C20.9613 21.4739 28.416 19.9067 32.9921 14.4749C33.406 13.9866 34.1407 13.9215 34.629 14.3354C35.122 14.7493 35.1824 15.4841 34.7686 15.9724C31.1365 20.2834 26.0024 22.4737 19.6684 22.4737Z" fill="#FDFDFD"/>
<path d="M13.8552 33.7554C13.5855 33.7554 13.3204 33.6623 13.1018 33.4763C12.6135 33.0578 12.5577 32.323 12.9716 31.8347C19.7706 23.887 28.5693 21.9989 37.1123 26.6634C37.675 26.9703 37.8843 27.6772 37.5773 28.2399C37.2704 28.8026 36.5635 29.0119 36.0008 28.7049C25.7419 23.1104 18.2778 29.2118 14.7388 33.3508C14.5109 33.6158 14.1854 33.7554 13.8552 33.7554Z" fill="#FDFDFD"/>
<path d="M27.6616 37.7508C27.6198 37.7508 27.5779 37.7508 27.5361 37.7461C26.8989 37.6764 26.4385 37.1044 26.5083 36.4626C27.4151 28.1476 25.2759 19.7627 20.1557 11.5314C19.8163 10.9873 19.9837 10.2711 20.5278 9.93162C21.0719 9.59213 21.7881 9.75955 22.1275 10.3037C27.5314 18.9861 29.7822 27.8732 28.8196 36.7184C28.7498 37.3137 28.2476 37.7508 27.6616 37.7508Z" fill="#FDFDFD"/>
</svg>
