<svg width="48" height="48" viewBox="0 0 48 48" fill="none" xmlns="http://www.w3.org/2000/svg">
<rect width="48" height="48" rx="24" fill="#410292"/>
<path d="M20.0057 24.0614C20.0057 21.8504 21.7971 20.0576 24.0074 20.0576C26.2178 20.0576 28.0102 21.8504 28.0102 24.0614C28.0102 26.2725 26.2178 28.0653 24.0074 28.0653C21.7971 28.0653 20.0057 26.2725 20.0057 24.0614ZM17.8419 24.0614C17.8419 27.4677 20.6022 30.2288 24.0074 30.2288C27.4127 30.2288 30.173 27.4677 30.173 24.0614C30.173 20.6552 27.4127 17.8941 24.0074 17.8941C20.6022 17.8941 17.8419 20.6552 17.8419 24.0614ZM28.9762 17.6496C28.9761 17.9346 29.0605 18.2133 29.2187 18.4504C29.377 18.6875 29.6019 18.8723 29.8652 18.9815C30.1284 19.0907 30.4181 19.1194 30.6976 19.0639C30.9771 19.0084 31.2339 18.8712 31.4355 18.6697C31.6371 18.4682 31.7744 18.2115 31.8301 17.9319C31.8859 17.6523 31.8574 17.3625 31.7485 17.0991C31.6395 16.8357 31.4549 16.6106 31.2181 16.4521C30.9812 16.2936 30.7026 16.209 30.4177 16.2089H30.4171C30.0351 16.2091 29.6688 16.3609 29.3986 16.631C29.1285 16.9011 28.9765 17.2675 28.9762 17.6496ZM19.1565 33.8378C17.9859 33.7845 17.3496 33.5895 16.9268 33.4247C16.3662 33.2064 15.9662 32.9464 15.5456 32.5263C15.1251 32.1062 14.8648 31.7065 14.6475 31.1457C14.4827 30.7229 14.2877 30.0863 14.2344 28.9153C14.1762 27.6493 14.1646 27.269 14.1646 24.0615C14.1646 20.8541 14.1772 20.4749 14.2344 19.2078C14.2878 18.0368 14.4842 17.4014 14.6475 16.9774C14.8657 16.4166 15.1257 16.0165 15.5456 15.5958C15.9656 15.1752 16.3652 14.9148 16.9268 14.6975C17.3494 14.5326 17.9859 14.3375 19.1565 14.2843C20.4222 14.2261 20.8024 14.2144 24.0074 14.2144C27.2125 14.2144 27.5931 14.227 28.8598 14.2843C30.0304 14.3376 30.6657 14.5341 31.0896 14.6975C31.6502 14.9148 32.0502 15.1758 32.4707 15.5958C32.8912 16.0159 33.1506 16.4166 33.3688 16.9774C33.5337 17.4001 33.7287 18.0368 33.7819 19.2078C33.8401 20.4749 33.8517 20.8541 33.8517 24.0615C33.8517 27.269 33.8401 27.6482 33.7819 28.9153C33.7286 30.0863 33.5326 30.7228 33.3688 31.1457C33.1506 31.7065 32.8907 32.1066 32.4707 32.5263C32.0507 32.946 31.6502 33.2064 31.0896 33.4247C30.6669 33.5896 30.0304 33.7846 28.8598 33.8378C27.5941 33.8961 27.2139 33.9077 24.0074 33.9077C20.8009 33.9077 20.4218 33.8961 19.1565 33.8378ZM19.0571 12.1235C17.7789 12.1817 16.9054 12.3845 16.1426 12.6814C15.3527 12.988 14.6839 13.3993 14.0156 14.0667C13.3474 14.7342 12.9372 15.4042 12.6307 16.1944C12.3339 16.9579 12.1312 17.8311 12.073 19.1097C12.0138 20.3903 12.0002 20.7997 12.0002 24.0614C12.0002 27.3232 12.0138 27.7326 12.073 29.0132C12.1312 30.2919 12.3339 31.165 12.6307 31.9285C12.9372 32.7183 13.3475 33.389 14.0156 34.0561C14.6838 34.7233 15.3527 35.134 16.1426 35.4415C16.9069 35.7384 17.7789 35.9411 19.0571 35.9994C20.338 36.0576 20.7467 36.0721 24.0074 36.0721C27.2682 36.0721 27.6775 36.0586 28.9578 35.9994C30.2361 35.9411 31.109 35.7384 31.8723 35.4415C32.6618 35.134 33.331 34.7236 33.9993 34.0561C34.6675 33.3887 35.0768 32.7183 35.3842 31.9285C35.681 31.165 35.8847 30.2918 35.9419 29.0132C36.0001 27.7316 36.0137 27.3232 36.0137 24.0614C36.0137 20.7997 36.0001 20.3903 35.9419 19.1097C35.8837 17.831 35.681 16.9574 35.3842 16.1944C35.0768 15.4046 34.6665 14.7352 33.9993 14.0667C33.332 13.3983 32.6618 12.988 31.8732 12.6814C31.109 12.3845 30.236 12.1808 28.9587 12.1235C27.6785 12.0653 27.2692 12.0508 24.0084 12.0508C20.7476 12.0508 20.338 12.0643 19.0571 12.1235Z" fill="#FDFDFD"/>
<path d="M20.0057 24.0614C20.0057 21.8504 21.7971 20.0576 24.0074 20.0576C26.2178 20.0576 28.0102 21.8504 28.0102 24.0614C28.0102 26.2725 26.2178 28.0653 24.0074 28.0653C21.7971 28.0653 20.0057 26.2725 20.0057 24.0614ZM17.8419 24.0614C17.8419 27.4677 20.6022 30.2288 24.0074 30.2288C27.4127 30.2288 30.173 27.4677 30.173 24.0614C30.173 20.6552 27.4127 17.8941 24.0074 17.8941C20.6022 17.8941 17.8419 20.6552 17.8419 24.0614ZM28.9762 17.6496C28.9761 17.9346 29.0605 18.2133 29.2187 18.4504C29.377 18.6875 29.6019 18.8723 29.8652 18.9815C30.1284 19.0907 30.4181 19.1194 30.6976 19.0639C30.9771 19.0084 31.2339 18.8712 31.4355 18.6697C31.6371 18.4682 31.7744 18.2115 31.8301 17.9319C31.8859 17.6523 31.8574 17.3625 31.7485 17.0991C31.6395 16.8357 31.4549 16.6106 31.2181 16.4521C30.9812 16.2936 30.7026 16.209 30.4177 16.2089H30.4171C30.0351 16.2091 29.6688 16.3609 29.3986 16.631C29.1285 16.9011 28.9765 17.2675 28.9762 17.6496ZM19.1565 33.8378C17.9859 33.7845 17.3496 33.5895 16.9268 33.4247C16.3662 33.2064 15.9662 32.9464 15.5456 32.5263C15.1251 32.1062 14.8648 31.7065 14.6475 31.1457C14.4827 30.7229 14.2877 30.0863 14.2344 28.9153C14.1762 27.6493 14.1646 27.269 14.1646 24.0615C14.1646 20.8541 14.1772 20.4749 14.2344 19.2078C14.2878 18.0368 14.4842 17.4014 14.6475 16.9774C14.8657 16.4166 15.1257 16.0165 15.5456 15.5958C15.9656 15.1752 16.3652 14.9148 16.9268 14.6975C17.3494 14.5326 17.9859 14.3375 19.1565 14.2843C20.4222 14.2261 20.8024 14.2144 24.0074 14.2144C27.2125 14.2144 27.5931 14.227 28.8598 14.2843C30.0304 14.3376 30.6657 14.5341 31.0896 14.6975C31.6502 14.9148 32.0502 15.1758 32.4707 15.5958C32.8912 16.0159 33.1506 16.4166 33.3688 16.9774C33.5337 17.4001 33.7287 18.0368 33.7819 19.2078C33.8401 20.4749 33.8517 20.8541 33.8517 24.0615C33.8517 27.269 33.8401 27.6482 33.7819 28.9153C33.7286 30.0863 33.5326 30.7228 33.3688 31.1457C33.1506 31.7065 32.8907 32.1066 32.4707 32.5263C32.0507 32.946 31.6502 33.2064 31.0896 33.4247C30.6669 33.5896 30.0304 33.7846 28.8598 33.8378C27.5941 33.8961 27.2139 33.9077 24.0074 33.9077C20.8009 33.9077 20.4218 33.8961 19.1565 33.8378ZM19.0571 12.1235C17.7789 12.1817 16.9054 12.3845 16.1426 12.6814C15.3527 12.988 14.6839 13.3993 14.0156 14.0667C13.3474 14.7342 12.9372 15.4042 12.6307 16.1944C12.3339 16.9579 12.1312 17.8311 12.073 19.1097C12.0138 20.3903 12.0002 20.7997 12.0002 24.0614C12.0002 27.3232 12.0138 27.7326 12.073 29.0132C12.1312 30.2919 12.3339 31.165 12.6307 31.9285C12.9372 32.7183 13.3475 33.389 14.0156 34.0561C14.6838 34.7233 15.3527 35.134 16.1426 35.4415C16.9069 35.7384 17.7789 35.9411 19.0571 35.9994C20.338 36.0576 20.7467 36.0721 24.0074 36.0721C27.2682 36.0721 27.6775 36.0586 28.9578 35.9994C30.2361 35.9411 31.109 35.7384 31.8723 35.4415C32.6618 35.134 33.331 34.7236 33.9993 34.0561C34.6675 33.3887 35.0768 32.7183 35.3842 31.9285C35.681 31.165 35.8847 30.2918 35.9419 29.0132C36.0001 27.7316 36.0137 27.3232 36.0137 24.0614C36.0137 20.7997 36.0001 20.3903 35.9419 19.1097C35.8837 17.831 35.681 16.9574 35.3842 16.1944C35.0768 15.4046 34.6665 14.7352 33.9993 14.0667C33.332 13.3983 32.6618 12.988 31.8732 12.6814C31.109 12.3845 30.236 12.1808 28.9587 12.1235C27.6785 12.0653 27.2692 12.0508 24.0084 12.0508C20.7476 12.0508 20.338 12.0643 19.0571 12.1235Z" fill="#FDFDFD"/>
</svg>
