<svg width="49" height="54" viewBox="0 0 49 54" fill="none" xmlns="http://www.w3.org/2000/svg">
<path d="M48.4825 26.9823C43.4587 28.418 37.2553 30.4699 33.614 34.311C29.1779 38.9913 27.7198 45.9456 26.4494 52.8716C26.3281 53.5387 25.3959 53.5719 25.2282 52.9119C23.8374 47.4394 22.0607 40.872 18.6539 36.888C14.3207 31.8197 7.84024 29.9021 1.49622 28.5351C0.832441 28.3924 0.803417 27.5142 1.45633 27.328C6.91382 25.7699 13.1605 23.7338 16.9583 19.3767C20.916 14.835 22.3362 7.87462 23.527 1.43507C23.6509 0.767873 24.5831 0.737065 24.7483 1.39471C26.2559 7.35704 28.7127 14.1058 32.5756 18.2638C36.7697 22.7792 42.5444 24.5016 48.4425 25.7728C49.1063 25.9154 49.1353 26.7937 48.4824 26.9799L48.4825 26.9823Z" fill="#F3993F"/>
</svg>
