<svg width="30" height="30" viewBox="0 0 30 30" fill="none" xmlns="http://www.w3.org/2000/svg">
<path d="M14.6667 0.5C22.6751 0.5 29.1667 6.99165 29.1667 15C29.1667 23.0083 22.6751 29.5 14.6667 29.5C6.6584 29.5 0.166748 23.0083 0.166748 15C0.166748 6.99165 6.6584 0.5 14.6667 0.5ZM11.5913 9.8728C11.331 9.60998 10.98 9.4566 10.6103 9.44406C10.2406 9.43152 9.88006 9.56075 9.60251 9.80532C9.32496 10.0499 9.15138 10.3913 9.1173 10.7597C9.08323 11.128 9.19122 11.4955 9.4192 11.7868L9.541 11.9245L12.615 14.9985L9.541 18.0754C9.27818 18.3358 9.1248 18.6867 9.11226 19.0564C9.09971 19.4262 9.22895 19.7867 9.47352 20.0642C9.71809 20.3418 10.0595 20.5154 10.4279 20.5494C10.7962 20.5835 11.1637 20.4755 11.455 20.2475L11.5913 20.1272L14.6667 17.0503L17.7422 20.1272C18.0025 20.39 18.3535 20.5434 18.7232 20.5559C19.0929 20.5685 19.4534 20.4392 19.731 20.1947C20.0085 19.9501 20.1821 19.6087 20.2162 19.2403C20.2503 18.872 20.1423 18.5045 19.9143 18.2132L19.7939 18.0754L16.717 15L19.7939 11.9245C20.0568 11.6642 20.2101 11.3133 20.2227 10.9436C20.2352 10.5738 20.106 10.2133 19.8614 9.93576C19.6169 9.65821 19.2754 9.48463 18.9071 9.45055C18.5387 9.41648 18.1713 9.52448 17.8799 9.75245L17.7422 9.8728L14.6667 12.9497L11.5913 9.8728Z" fill="#A4A7AE"/>
</svg>
