<svg width="50" height="32" viewBox="0 0 50 32" fill="none" xmlns="http://www.w3.org/2000/svg">
<g clip-path="url(#clip0_18420_4852)">
<path d="M49.1378 32.3792H0.862108C0.386034 32.3792 0 31.9932 0 31.5171V0.482713C0 0.00663945 0.386034 -0.379395 0.862108 -0.379395H49.1379C49.614 -0.379395 50 0.00663945 50 0.482713V31.5171C49.9999 31.9933 49.6139 32.3792 49.1378 32.3792Z" fill="#F5F5F5"/>
<path d="M49.9999 2.14062H0V0.482712C0 0.00663927 0.386034 -0.379395 0.862108 -0.379395H49.1379C49.614 -0.379395 50 0.00663927 50 0.482712L49.9999 2.14062Z" fill="#FF4B55"/>
<path d="M49.9999 9.7002H0V12.2201H49.9999V9.7002Z" fill="#FF4B55"/>
<path d="M49.9999 4.66016H0V7.18007H49.9999V4.66016Z" fill="#FF4B55"/>
<path d="M49.9999 17.2598H0.862108C0.386034 17.2598 0 16.8737 0 16.3977V14.7397H49.9999V17.2598Z" fill="#FF4B55"/>
<path d="M49.9999 24.8203H0V27.3402H49.9999V24.8203Z" fill="#FF4B55"/>
<path d="M49.1378 32.3793H0.862108C0.386034 32.3793 0 31.9933 0 31.5172V29.8594H49.9999V31.5173C49.9999 31.9934 49.6139 32.3793 49.1378 32.3793Z" fill="#FF4B55"/>
<path d="M49.9999 19.7803H0V22.3002H49.9999V19.7803Z" fill="#FF4B55"/>
<path d="M22.4137 -0.379395H0.862108C0.386034 -0.379395 0 0.00654179 0 0.482615V16.3976C0 16.8737 0.386034 17.2597 0.862108 17.2597H22.4138C22.8899 17.2597 23.2759 16.8737 23.2759 16.3976V0.482615C23.2758 0.00654179 22.8898 -0.379395 22.4137 -0.379395Z" fill="#41479B"/>
<path d="M2.42152 1.59952L2.61234 2.17179L3.21556 2.17638C3.29368 2.17706 3.32601 2.27667 3.26321 2.32306L2.77796 2.68145L2.95999 3.25655C2.98363 3.33096 2.89876 3.39268 2.83519 3.34718L2.34447 2.99649L1.85375 3.34727C1.79017 3.39268 1.7055 3.33106 1.72894 3.25665L1.91097 2.68155L1.42572 2.32315C1.36293 2.27667 1.39525 2.17716 1.47337 2.17648L2.0766 2.17189L2.26742 1.59962C2.29203 1.5254 2.39671 1.5254 2.42152 1.59952Z" fill="#F5F5F5"/>
<path d="M2.42103 4.5931L2.61185 5.16537L3.21507 5.16996C3.2932 5.17064 3.32552 5.27025 3.26273 5.31664L2.77747 5.67503L2.9595 6.25013C2.98314 6.32455 2.89827 6.38626 2.8347 6.34076L2.34398 5.99007L1.85326 6.34085C1.78968 6.38626 1.70501 6.32464 1.72845 6.25023L1.91048 5.67513L1.42523 5.31674C1.36244 5.27025 1.39476 5.17074 1.47289 5.17006L2.07611 5.16546L2.26693 4.5932C2.29154 4.51908 2.39622 4.51908 2.42103 4.5931Z" fill="#F5F5F5"/>
<path d="M2.42103 7.58675L2.61185 8.15902L3.21507 8.16361C3.2932 8.16429 3.32552 8.2639 3.26273 8.31029L2.77747 8.66869L2.9595 9.24378C2.98314 9.3182 2.89827 9.37991 2.8347 9.33441L2.34398 8.98372L1.85326 9.3345C1.78968 9.37991 1.70501 9.31829 1.72845 9.24388L1.91048 8.66878L1.42523 8.31039C1.36244 8.2639 1.39476 8.16439 1.47289 8.16371L2.07611 8.15912L2.26693 7.58685C2.29154 7.51273 2.39622 7.51273 2.42103 7.58675Z" fill="#F5F5F5"/>
<path d="M2.42103 10.5805L2.61185 11.1527L3.21507 11.1573C3.2932 11.158 3.32552 11.2576 3.26273 11.304L2.77747 11.6624L2.9595 12.2375C2.98314 12.3119 2.89827 12.3736 2.8347 12.3281L2.34398 11.9775L1.85326 12.3282C1.78968 12.3736 1.70501 12.312 1.72845 12.2376L1.91048 11.6625L1.42523 11.3041C1.36244 11.2576 1.39476 11.1581 1.47289 11.1574L2.07611 11.1528L2.26693 10.5806C2.29154 10.5064 2.39622 10.5064 2.42103 10.5805Z" fill="#F5F5F5"/>
<path d="M2.42103 13.5737L2.61185 14.146L3.21507 14.1506C3.2932 14.1513 3.32552 14.2509 3.26273 14.2973L2.77747 14.6556L2.9595 15.2307C2.98314 15.3052 2.89827 15.3669 2.8347 15.3214L2.34398 14.9707L1.85326 15.3215C1.78968 15.3669 1.70501 15.3053 1.72845 15.2308L1.91048 14.6557L1.42523 14.2973C1.36244 14.2509 1.39476 14.1514 1.47289 14.1507L2.07611 14.1461L2.26693 13.5738C2.29154 13.4995 2.39622 13.4995 2.42103 13.5737Z" fill="#F5F5F5"/>
<path d="M4.74452 3.06724L4.93533 3.6395L5.53856 3.64409C5.61668 3.64477 5.64901 3.74438 5.58621 3.79077L5.10096 4.14917L5.28299 4.72427C5.30662 4.79868 5.22176 4.8604 5.15819 4.81489L4.66746 4.46411L4.17674 4.81489C4.11317 4.8603 4.0285 4.79868 4.05194 4.72427L4.23397 4.14917L3.74872 3.79077C3.68592 3.74429 3.71825 3.64477 3.79637 3.64409L4.39959 3.6395L4.59041 3.06724C4.61493 2.99321 4.71981 2.99321 4.74452 3.06724Z" fill="#F5F5F5"/>
<path d="M4.74452 6.06096L4.93533 6.63323L5.53856 6.63781C5.61668 6.6385 5.64901 6.73811 5.58621 6.78449L5.10096 7.14289L5.28299 7.71799C5.30662 7.7924 5.22176 7.85412 5.15819 7.80861L4.66746 7.45783L4.17674 7.80861C4.11317 7.85402 4.0285 7.7925 4.05194 7.71799L4.23397 7.14289L3.74872 6.78449C3.68592 6.73801 3.71825 6.6385 3.79637 6.63781L4.39959 6.63323L4.59041 6.06096C4.61493 5.98684 4.71981 5.98684 4.74452 6.06096Z" fill="#F5F5F5"/>
<path d="M4.74452 9.05461L4.93533 9.62688L5.53856 9.63147C5.61668 9.63215 5.64901 9.73176 5.58621 9.77815L5.10096 10.1365L5.28299 10.7116C5.30662 10.7861 5.22176 10.8478 5.15819 10.8023L4.66746 10.4515L4.17674 10.8023C4.11317 10.8477 4.0285 10.7861 4.05194 10.7116L4.23397 10.1365L3.74872 9.77815C3.68592 9.73166 3.71825 9.63215 3.79637 9.63147L4.39959 9.62688L4.59041 9.05461C4.61493 8.98049 4.71981 8.98049 4.74452 9.05461Z" fill="#F5F5F5"/>
<path d="M4.74452 12.0477L4.93533 12.62L5.53856 12.6246C5.61668 12.6252 5.64901 12.7249 5.58621 12.7712L5.10096 13.1296L5.28299 13.7047C5.30662 13.7791 5.22176 13.8409 5.15819 13.7954L4.66746 13.4446L4.17674 13.7954C4.11317 13.8408 4.0285 13.7791 4.05194 13.7047L4.23397 13.1296L3.74872 12.7712C3.68592 12.7248 3.71825 12.6252 3.79637 12.6246L4.39959 12.62L4.59041 12.0477C4.61493 11.9737 4.71981 11.9737 4.74452 12.0477Z" fill="#F5F5F5"/>
<path d="M7.068 1.59954L7.25882 2.1718L7.86204 2.17639C7.94017 2.17707 7.97249 2.27668 7.9097 2.32307L7.42445 2.68147L7.60648 3.25656C7.63011 3.33098 7.54525 3.39269 7.48167 3.34719L6.99095 2.99641L6.50023 3.34719C6.43666 3.3926 6.35199 3.33098 6.37542 3.25656L6.55746 2.68147L6.0722 2.32307C6.00941 2.27658 6.04173 2.17707 6.11986 2.17639L6.72308 2.1718L6.9139 1.59954C6.93851 1.52542 7.04329 1.52542 7.068 1.59954Z" fill="#F5F5F5"/>
<path d="M7.068 4.59312L7.25882 5.16538L7.86204 5.16997C7.94017 5.17065 7.97249 5.27026 7.9097 5.31665L7.42445 5.67505L7.60648 6.25014C7.63011 6.32456 7.54525 6.38627 7.48167 6.34077L6.99095 5.98999L6.50023 6.34077C6.43666 6.38618 6.35199 6.32456 6.37542 6.25014L6.55746 5.67505L6.0722 5.31665C6.00941 5.27016 6.04173 5.17065 6.11986 5.16997L6.72308 5.16538L6.9139 4.59312C6.93851 4.51909 7.04329 4.51909 7.068 4.59312Z" fill="#F5F5F5"/>
<path d="M7.068 7.58677L7.25882 8.15903L7.86204 8.16362C7.94017 8.16431 7.97249 8.26392 7.9097 8.3103L7.42445 8.6687L7.60648 9.2438C7.63011 9.31821 7.54525 9.37993 7.48167 9.33442L6.99095 8.98364L6.50023 9.33442C6.43666 9.37983 6.35199 9.31821 6.37542 9.2438L6.55746 8.6687L6.0722 8.3103C6.00941 8.26382 6.04173 8.16431 6.11986 8.16362L6.72308 8.15903L6.9139 7.58677C6.93851 7.51274 7.04329 7.51274 7.068 7.58677Z" fill="#F5F5F5"/>
<path d="M7.068 10.5805L7.25882 11.1528L7.86204 11.1573C7.94017 11.158 7.97249 11.2576 7.9097 11.304L7.42445 11.6624L7.60648 12.2375C7.63011 12.3119 7.54525 12.3737 7.48167 12.3281L6.99095 11.9774L6.50023 12.3281C6.43666 12.3736 6.35199 12.3119 6.37542 12.2375L6.55746 11.6624L6.0722 11.304C6.00941 11.2575 6.04173 11.158 6.11986 11.1573L6.72308 11.1528L6.9139 10.5805C6.93851 10.5064 7.04329 10.5064 7.068 10.5805Z" fill="#F5F5F5"/>
<path d="M7.068 13.5737L7.25882 14.146L7.86204 14.1506C7.94017 14.1513 7.97249 14.2509 7.9097 14.2973L7.42445 14.6557L7.60648 15.2308C7.63011 15.3052 7.54525 15.3669 7.48167 15.3214L6.99095 14.9706L6.50023 15.3214C6.43666 15.3668 6.35199 15.3052 6.37542 15.2308L6.55746 14.6557L6.0722 14.2973C6.00941 14.2508 6.04173 14.1513 6.11986 14.1506L6.72308 14.146L6.9139 13.5737C6.93851 13.4995 7.04329 13.4995 7.068 13.5737Z" fill="#F5F5F5"/>
<path d="M9.39173 3.06724L9.58255 3.6395L10.1858 3.64409C10.2639 3.64477 10.2962 3.74438 10.2334 3.79077L9.74818 4.14917L9.93021 4.72427C9.95384 4.79868 9.86898 4.8604 9.8054 4.81489L9.31468 4.46411L8.82396 4.81489C8.76039 4.8603 8.67572 4.79868 8.69916 4.72427L8.88119 4.14917L8.39593 3.79077C8.33314 3.74429 8.36546 3.64477 8.44359 3.64409L9.04681 3.6395L9.23763 3.06724C9.26214 2.99321 9.36702 2.99321 9.39173 3.06724Z" fill="#F5F5F5"/>
<path d="M9.39173 6.06096L9.58255 6.63323L10.1858 6.63781C10.2639 6.6385 10.2962 6.73811 10.2334 6.78449L9.74818 7.14289L9.93021 7.71799C9.95384 7.7924 9.86898 7.85412 9.8054 7.80861L9.31468 7.45783L8.82396 7.80861C8.76039 7.85402 8.67572 7.7925 8.69916 7.71799L8.88119 7.14289L8.39593 6.78449C8.33314 6.73801 8.36546 6.6385 8.44359 6.63781L9.04681 6.63323L9.23763 6.06096C9.26214 5.98684 9.36702 5.98684 9.39173 6.06096Z" fill="#F5F5F5"/>
<path d="M9.39173 9.05461L9.58255 9.62688L10.1858 9.63147C10.2639 9.63215 10.2962 9.73176 10.2334 9.77815L9.74818 10.1365L9.93021 10.7116C9.95384 10.7861 9.86898 10.8478 9.8054 10.8023L9.31468 10.4515L8.82396 10.8023C8.76039 10.8477 8.67572 10.7861 8.69916 10.7116L8.88119 10.1365L8.39593 9.77815C8.33314 9.73166 8.36546 9.63215 8.44359 9.63147L9.04681 9.62688L9.23763 9.05461C9.26214 8.98049 9.36702 8.98049 9.39173 9.05461Z" fill="#F5F5F5"/>
<path d="M9.39173 12.0477L9.58255 12.62L10.1858 12.6246C10.2639 12.6252 10.2962 12.7249 10.2334 12.7712L9.74818 13.1296L9.93021 13.7047C9.95384 13.7791 9.86898 13.8409 9.8054 13.7954L9.31468 13.4446L8.82396 13.7954C8.76039 13.8408 8.67572 13.7791 8.69916 13.7047L8.88119 13.1296L8.39593 12.7712C8.33314 12.7248 8.36546 12.6252 8.44359 12.6246L9.04681 12.62L9.23763 12.0477C9.26214 11.9737 9.36702 11.9737 9.39173 12.0477Z" fill="#F5F5F5"/>
<path d="M11.7153 1.59954L11.9061 2.1718L12.5094 2.17639C12.5875 2.17707 12.6198 2.27668 12.557 2.32307L12.0718 2.68147L12.2538 3.25656C12.2774 3.33098 12.1926 3.39269 12.129 3.34719L11.6382 2.99641L11.1474 3.34719C11.0839 3.3926 10.9992 3.33098 11.0226 3.25656L11.2047 2.68147L10.7194 2.32307C10.6566 2.27658 10.689 2.17707 10.7671 2.17639L11.3703 2.1718L11.5611 1.59954C11.5858 1.52542 11.6906 1.52542 11.7153 1.59954Z" fill="#F5F5F5"/>
<path d="M11.7153 4.59312L11.9061 5.16538L12.5094 5.16997C12.5875 5.17065 12.6198 5.27026 12.557 5.31665L12.0718 5.67505L12.2538 6.25014C12.2774 6.32456 12.1926 6.38627 12.129 6.34077L11.6382 5.98999L11.1474 6.34077C11.0839 6.38618 10.9992 6.32456 11.0226 6.25014L11.2047 5.67505L10.7194 5.31665C10.6566 5.27016 10.689 5.17065 10.7671 5.16997L11.3703 5.16538L11.5611 4.59312C11.5858 4.51909 11.6906 4.51909 11.7153 4.59312Z" fill="#F5F5F5"/>
<path d="M11.7153 7.58677L11.9061 8.15903L12.5094 8.16362C12.5875 8.16431 12.6198 8.26392 12.557 8.3103L12.0718 8.6687L12.2538 9.2438C12.2774 9.31821 12.1926 9.37993 12.129 9.33442L11.6382 8.98364L11.1474 9.33442C11.0839 9.37983 10.9992 9.31821 11.0226 9.2438L11.2047 8.6687L10.7194 8.3103C10.6566 8.26382 10.689 8.16431 10.7671 8.16362L11.3703 8.15903L11.5611 7.58677C11.5858 7.51274 11.6906 7.51274 11.7153 7.58677Z" fill="#F5F5F5"/>
<path d="M11.7153 10.5805L11.9061 11.1528L12.5094 11.1573C12.5875 11.158 12.6198 11.2576 12.557 11.304L12.0718 11.6624L12.2538 12.2375C12.2774 12.3119 12.1926 12.3737 12.129 12.3281L11.6382 11.9774L11.1474 12.3281C11.0839 12.3736 10.9992 12.3119 11.0226 12.2375L11.2047 11.6624L10.7194 11.304C10.6566 11.2575 10.689 11.158 10.7671 11.1573L11.3703 11.1528L11.5611 10.5805C11.5858 10.5064 11.6906 10.5064 11.7153 10.5805Z" fill="#F5F5F5"/>
<path d="M11.7153 13.5737L11.9061 14.146L12.5094 14.1506C12.5875 14.1513 12.6198 14.2509 12.557 14.2973L12.0718 14.6557L12.2538 15.2308C12.2774 15.3052 12.1926 15.3669 12.129 15.3214L11.6382 14.9706L11.1474 15.3214C11.0839 15.3668 10.9992 15.3052 11.0226 15.2308L11.2047 14.6557L10.7194 14.2973C10.6566 14.2508 10.689 14.1513 10.7671 14.1506L11.3703 14.146L11.5611 13.5737C11.5858 13.4995 11.6906 13.4995 11.7153 13.5737Z" fill="#F5F5F5"/>
<path d="M14.039 3.06724L14.2298 3.6395L14.833 3.64409C14.9111 3.64477 14.9434 3.74438 14.8806 3.79077L14.3954 4.14917L14.5774 4.72427C14.6011 4.79868 14.5162 4.8604 14.4526 4.81489L13.9619 4.46411L13.4712 4.81489C13.4076 4.8603 13.3229 4.79868 13.3464 4.72427L13.5284 4.14917L13.0432 3.79077C12.9804 3.74429 13.0127 3.64477 13.0908 3.64409L13.694 3.6395L13.8848 3.06724C13.9096 2.99321 14.0142 2.99321 14.039 3.06724Z" fill="#F5F5F5"/>
<path d="M14.039 6.06096L14.2298 6.63323L14.833 6.63781C14.9111 6.6385 14.9434 6.73811 14.8806 6.78449L14.3954 7.14289L14.5774 7.71799C14.6011 7.7924 14.5162 7.85412 14.4526 7.80861L13.9619 7.45783L13.4712 7.80861C13.4076 7.85402 13.3229 7.7925 13.3464 7.71799L13.5284 7.14289L13.0432 6.78449C12.9804 6.73801 13.0127 6.6385 13.0908 6.63781L13.694 6.63323L13.8848 6.06096C13.9096 5.98684 14.0142 5.98684 14.039 6.06096Z" fill="#F5F5F5"/>
<path d="M14.039 9.05461L14.2298 9.62688L14.833 9.63147C14.9111 9.63215 14.9434 9.73176 14.8806 9.77815L14.3954 10.1365L14.5774 10.7116C14.6011 10.7861 14.5162 10.8478 14.4526 10.8023L13.9619 10.4515L13.4712 10.8023C13.4076 10.8477 13.3229 10.7861 13.3464 10.7116L13.5284 10.1365L13.0432 9.77815C12.9804 9.73166 13.0127 9.63215 13.0908 9.63147L13.694 9.62688L13.8848 9.05461C13.9096 8.98049 14.0142 8.98049 14.039 9.05461Z" fill="#F5F5F5"/>
<path d="M14.039 12.0477L14.2298 12.62L14.833 12.6246C14.9111 12.6252 14.9434 12.7249 14.8806 12.7712L14.3954 13.1296L14.5774 13.7047C14.6011 13.7791 14.5162 13.8409 14.4526 13.7954L13.9619 13.4446L13.4712 13.7954C13.4076 13.8408 13.3229 13.7791 13.3464 13.7047L13.5284 13.1296L13.0432 12.7712C12.9804 12.7248 13.0127 12.6252 13.0908 12.6246L13.694 12.62L13.8848 12.0477C13.9096 11.9737 14.0142 11.9737 14.039 12.0477Z" fill="#F5F5F5"/>
<path d="M16.3624 1.59954L16.5533 2.1718L17.1565 2.17639C17.2346 2.17707 17.2669 2.27668 17.2041 2.32307L16.7189 2.68147L16.9009 3.25656C16.9245 3.33098 16.8397 3.39269 16.7761 3.34719L16.2854 2.99641L15.7947 3.34719C15.7311 3.3926 15.6464 3.33098 15.6699 3.25656L15.8519 2.68147L15.3666 2.32307C15.3038 2.27658 15.3362 2.17707 15.4143 2.17639L16.0175 2.1718L16.2083 1.59954C16.2328 1.52542 16.3377 1.52542 16.3624 1.59954Z" fill="#F5F5F5"/>
<path d="M16.3624 4.59312L16.5533 5.16538L17.1565 5.16997C17.2346 5.17065 17.2669 5.27026 17.2041 5.31665L16.7189 5.67505L16.9009 6.25014C16.9245 6.32456 16.8397 6.38627 16.7761 6.34077L16.2854 5.98999L15.7947 6.34077C15.7311 6.38618 15.6464 6.32456 15.6699 6.25014L15.8519 5.67505L15.3666 5.31665C15.3038 5.27016 15.3362 5.17065 15.4143 5.16997L16.0175 5.16538L16.2083 4.59312C16.2328 4.51909 16.3377 4.51909 16.3624 4.59312Z" fill="#F5F5F5"/>
<path d="M16.3624 7.58677L16.5533 8.15903L17.1565 8.16362C17.2346 8.16431 17.2669 8.26392 17.2041 8.3103L16.7189 8.6687L16.9009 9.2438C16.9245 9.31821 16.8397 9.37993 16.7761 9.33442L16.2854 8.98364L15.7947 9.33442C15.7311 9.37983 15.6464 9.31821 15.6699 9.2438L15.8519 8.6687L15.3666 8.3103C15.3038 8.26382 15.3362 8.16431 15.4143 8.16362L16.0175 8.15903L16.2083 7.58677C16.2328 7.51274 16.3377 7.51274 16.3624 7.58677Z" fill="#F5F5F5"/>
<path d="M16.3624 10.5805L16.5533 11.1528L17.1565 11.1573C17.2346 11.158 17.2669 11.2576 17.2041 11.304L16.7189 11.6624L16.9009 12.2375C16.9245 12.3119 16.8397 12.3737 16.7761 12.3281L16.2854 11.9774L15.7947 12.3281C15.7311 12.3736 15.6464 12.3119 15.6699 12.2375L15.8519 11.6624L15.3666 11.304C15.3038 11.2575 15.3362 11.158 15.4143 11.1573L16.0175 11.1528L16.2083 10.5805C16.2328 10.5064 16.3377 10.5064 16.3624 10.5805Z" fill="#F5F5F5"/>
<path d="M16.3624 13.5737L16.5533 14.146L17.1565 14.1506C17.2346 14.1513 17.2669 14.2509 17.2041 14.2973L16.7189 14.6557L16.9009 15.2308C16.9245 15.3052 16.8397 15.3669 16.7761 15.3214L16.2854 14.9706L15.7947 15.3214C15.7311 15.3668 15.6464 15.3052 15.6699 15.2308L15.8519 14.6557L15.3666 14.2973C15.3038 14.2508 15.3362 14.1513 15.4143 14.1506L16.0175 14.146L16.2083 13.5737C16.2328 13.4995 16.3377 13.4995 16.3624 13.5737Z" fill="#F5F5F5"/>
<path d="M18.6859 3.06724L18.8767 3.6395L19.48 3.64409C19.5581 3.64477 19.5904 3.74438 19.5276 3.79077L19.0424 4.14917L19.2244 4.72427C19.248 4.79868 19.1632 4.8604 19.0996 4.81489L18.6089 4.46411L18.1181 4.81489C18.0546 4.8603 17.9699 4.79868 17.9933 4.72427L18.1754 4.14917L17.6901 3.79077C17.6273 3.74429 17.6597 3.64477 17.7378 3.64409L18.341 3.6395L18.5318 3.06724C18.5564 2.99321 18.6613 2.99321 18.6859 3.06724Z" fill="#F5F5F5"/>
<path d="M18.6859 6.06096L18.8767 6.63323L19.48 6.63781C19.5581 6.6385 19.5904 6.73811 19.5276 6.78449L19.0424 7.14289L19.2244 7.71799C19.248 7.7924 19.1632 7.85412 19.0996 7.80861L18.6089 7.45783L18.1181 7.80861C18.0546 7.85402 17.9699 7.7925 17.9933 7.71799L18.1754 7.14289L17.6901 6.78449C17.6273 6.73801 17.6597 6.6385 17.7378 6.63781L18.341 6.63323L18.5318 6.06096C18.5564 5.98684 18.6613 5.98684 18.6859 6.06096Z" fill="#F5F5F5"/>
<path d="M18.6859 9.05461L18.8767 9.62688L19.48 9.63147C19.5581 9.63215 19.5904 9.73176 19.5276 9.77815L19.0424 10.1365L19.2244 10.7116C19.248 10.7861 19.1632 10.8478 19.0996 10.8023L18.6089 10.4515L18.1181 10.8023C18.0546 10.8477 17.9699 10.7861 17.9933 10.7116L18.1754 10.1365L17.6901 9.77815C17.6273 9.73166 17.6597 9.63215 17.7378 9.63147L18.341 9.62688L18.5318 9.05461C18.5564 8.98049 18.6613 8.98049 18.6859 9.05461Z" fill="#F5F5F5"/>
<path d="M18.6859 12.0477L18.8767 12.62L19.48 12.6246C19.5581 12.6252 19.5904 12.7249 19.5276 12.7712L19.0424 13.1296L19.2244 13.7047C19.248 13.7791 19.1632 13.8409 19.0996 13.7954L18.6089 13.4446L18.1181 13.7954C18.0546 13.8408 17.9699 13.7791 17.9933 13.7047L18.1754 13.1296L17.6901 12.7712C17.6273 12.7248 17.6597 12.6252 17.7378 12.6246L18.341 12.62L18.5318 12.0477C18.5564 11.9737 18.6613 11.9737 18.6859 12.0477Z" fill="#F5F5F5"/>
<path d="M21.0097 1.59954L21.2005 2.1718L21.8037 2.17639C21.8818 2.17707 21.9141 2.27668 21.8514 2.32307L21.3661 2.68147L21.5481 3.25656C21.5718 3.33098 21.4869 3.39269 21.4233 3.34719L20.9326 2.99641L20.4419 3.34719C20.3783 3.3926 20.2936 3.33098 20.3171 3.25656L20.4991 2.68147L20.0139 2.32307C19.9511 2.27658 19.9834 2.17707 20.0615 2.17639L20.6647 2.1718L20.8556 1.59954C20.8802 1.52542 20.9848 1.52542 21.0097 1.59954Z" fill="#F5F5F5"/>
<path d="M21.0097 4.59312L21.2005 5.16538L21.8037 5.16997C21.8818 5.17065 21.9141 5.27026 21.8514 5.31665L21.3661 5.67505L21.5481 6.25014C21.5718 6.32456 21.4869 6.38627 21.4233 6.34077L20.9326 5.98999L20.4419 6.34077C20.3783 6.38618 20.2936 6.32456 20.3171 6.25014L20.4991 5.67505L20.0139 5.31665C19.9511 5.27016 19.9834 5.17065 20.0615 5.16997L20.6647 5.16538L20.8556 4.59312C20.8802 4.51909 20.9848 4.51909 21.0097 4.59312Z" fill="#F5F5F5"/>
<path d="M21.0097 7.58677L21.2005 8.15903L21.8037 8.16362C21.8818 8.16431 21.9141 8.26392 21.8514 8.3103L21.3661 8.6687L21.5481 9.2438C21.5718 9.31821 21.4869 9.37993 21.4233 9.33442L20.9326 8.98364L20.4419 9.33442C20.3783 9.37983 20.2936 9.31821 20.3171 9.2438L20.4991 8.6687L20.0139 8.3103C19.9511 8.26382 19.9834 8.16431 20.0615 8.16362L20.6647 8.15903L20.8556 7.58677C20.8802 7.51274 20.9848 7.51274 21.0097 7.58677Z" fill="#F5F5F5"/>
<path d="M21.0097 10.5805L21.2005 11.1528L21.8037 11.1573C21.8818 11.158 21.9141 11.2576 21.8514 11.304L21.3661 11.6624L21.5481 12.2375C21.5718 12.3119 21.4869 12.3737 21.4233 12.3281L20.9326 11.9774L20.4419 12.3281C20.3783 12.3736 20.2936 12.3119 20.3171 12.2375L20.4991 11.6624L20.0139 11.304C19.9511 11.2575 19.9834 11.158 20.0615 11.1573L20.6647 11.1528L20.8556 10.5805C20.8802 10.5064 20.9848 10.5064 21.0097 10.5805Z" fill="#F5F5F5"/>
<path d="M21.0097 13.5737L21.2005 14.146L21.8037 14.1506C21.8818 14.1513 21.9141 14.2509 21.8514 14.2973L21.3661 14.6557L21.5481 15.2308C21.5718 15.3052 21.4869 15.3669 21.4233 15.3214L20.9326 14.9706L20.4419 15.3214C20.3783 15.3668 20.2936 15.3052 20.3171 15.2308L20.4991 14.6557L20.0139 14.2973C19.9511 14.2508 19.9834 14.1513 20.0615 14.1506L20.6647 14.146L20.8556 13.5737C20.8802 13.4995 20.9848 13.4995 21.0097 13.5737Z" fill="#F5F5F5"/>
</g>
<defs>
<clipPath id="clip0_18420_4852">
<rect width="50" height="32" fill="white"/>
</clipPath>
</defs>
</svg>
