<svg width="152" height="48" viewBox="0 0 152 48" fill="none" xmlns="http://www.w3.org/2000/svg">
<rect width="152" height="48" fill="white"/>
<path d="M17.2533 17.2492L21.637 25.135L12.1838 40.6862H3L17.2533 17.2492ZM25.5064 4L20.3145 12.8409L29.7432 29.8126L25.7513 32.5065L24.5023 30.2289L21.2207 35.5923H32.927L35.7923 40.7597H45.8822L25.5064 4Z" fill="#C65115"/>
<path d="M67.311 15.5837L65.8906 20.9226H62.6089L61.4334 25.6247L64.6171 25.6981L62.315 36.4003L62.2415 36.8412L62.266 37.282L62.364 37.6983L62.5109 38.1146L62.7313 38.5065L63.0252 38.8493L63.3681 39.1922L63.7354 39.4861L64.1518 39.78L64.6171 40.0249L65.0824 40.2453L65.6212 40.3922L66.1599 40.5637L66.6987 40.6616L67.262 40.7106L67.8253 40.7351H71.2784L72.6498 35.8615L70.8376 35.2493L70.5927 35.1513L70.3967 35.0044L70.2498 34.8085L70.1518 34.5881L70.0784 34.3432V34.0983L70.1518 33.8534L70.2498 33.5595L71.9886 25.8941H75.2458L76.2989 21.2409H72.9437L74.2172 15.5837H67.311ZM55.1149 13.9429L49.1638 40.7596H56.9027L62.6579 13.9429H55.1149ZM45.7352 13.9674L42.6494 27.3145L47.7923 36.5962L52.8863 13.9919H45.7352V13.9674ZM81.1479 29.2002H89.0582C89.0582 29.2002 88.7643 26.1635 85.2133 26.09C81.6622 26.0165 81.1479 29.2002 81.1479 29.2002ZM74.707 27.7798C74.707 27.7798 76.9111 21.5593 85.2867 21.045C85.2867 21.045 90.846 20.8246 93.5644 24.3022C93.5644 24.3022 95.7195 26.1635 95.6951 30.939C95.6951 30.939 95.6216 32.286 95.4746 32.8003L80.6336 32.7758C80.6336 32.7758 80.3397 35.4942 85.0418 35.886C85.0418 35.886 86.6582 35.9105 87.5643 35.5187C87.5643 35.5187 88.6664 35.2738 88.6909 34.637L94.9604 34.5636C94.9604 34.5636 94.3481 37.282 91.2868 39.0942C91.2868 39.0942 88.1031 41.1024 83.7194 40.7351C83.7194 40.7351 79.1887 40.8086 76.7642 38.8738C76.7642 38.8738 73.6784 36.8901 73.7274 31.7717C73.7274 31.7717 73.9723 29.1268 74.707 27.7798ZM119.353 28.1472C118.961 24.1063 115.214 22.245 115.214 22.245C113.059 20.8981 109.067 20.9471 109.067 20.9471C104.781 21.143 102.797 22.6124 102.797 22.6124C98.2665 25.2328 97.1645 29.6411 97.1645 29.6411C97.1645 29.6411 96.1359 33.5595 97.9726 36.5228C99.8094 39.4861 103.165 40.2698 103.165 40.2698C103.165 40.2698 106.128 41.1514 109.312 40.6861C112.495 40.2208 114.357 39.3636 116.218 37.3065C118.079 35.2493 118.593 32.3595 118.593 32.3595H112.152C112.079 32.7268 111.467 33.6819 111.467 33.6819C110.854 35.0044 108.724 35.9595 107.181 35.6901C105.638 35.4452 104.903 34.7105 104.903 34.7105C103.581 33.3146 103.948 31.086 103.948 31.086C104.022 30.0329 104.707 28.0492 106.152 26.7267C107.573 25.4043 109.336 25.4532 110.756 26.0655C112.373 26.7757 112.618 28.9308 112.618 28.9308H119.426L119.353 28.1472ZM129.393 28.6614C129.393 28.6614 130.055 27.3635 131.72 27.0696C133.263 26.8002 133.973 27.2165 134.218 27.339C134.218 27.339 134.659 27.5104 134.781 28.0737C134.806 28.1961 134.83 28.3921 134.806 28.588L132.577 40.7351H140.169L142.471 25.6492L142.496 25.3553L142.471 25.0369L142.373 24.7185L142.251 24.3757L142.055 24.0328L141.834 23.69L141.59 23.3471L141.271 23.0287L140.904 22.7103L140.488 22.392L140.022 22.1471L139.508 21.9022L138.969 21.7062L138.357 21.5593L137.72 21.4613L137.01 21.4369H136.594H136.153H135.712L135.271 21.4613L134.806 21.5348L134.34 21.6083L133.875 21.7062L133.434 21.8042L132.969 21.9022L132.528 22.0491L132.112 22.1716L131.696 22.3675L131.353 22.5634L130.961 22.7593L130.691 22.9308L130.398 23.1757L132.014 13.9429H124.349L118.814 40.7351H126.602L129.026 29.5921C129.051 29.5921 129.173 28.9063 129.393 28.6614ZM145.777 20.1879H146.243C146.757 20.1879 147.222 19.9919 147.222 19.5021C147.222 19.1593 146.977 18.8164 146.243 18.8164C146.047 18.8164 145.9 18.8409 145.777 18.8409V20.1879ZM145.777 22.392H145.141V18.4246C145.483 18.3756 145.802 18.3266 146.267 18.3266C146.879 18.3266 147.271 18.4491 147.492 18.6205C147.737 18.7919 147.859 19.0613 147.859 19.4532C147.859 19.9674 147.516 20.2858 147.075 20.4083V20.4328C147.418 20.5062 147.663 20.8246 147.737 21.3879C147.835 22.0001 147.933 22.245 147.981 22.3675H147.345C147.247 22.245 147.149 21.8777 147.075 21.3634C146.977 20.8491 146.733 20.6532 146.218 20.6532H145.777V22.392ZM146.439 17.298C144.871 17.298 143.598 18.645 143.598 20.3103C143.598 22.0001 144.871 23.3226 146.463 23.3226C148.055 23.3471 149.304 22.0001 149.304 20.3103C149.304 18.645 148.03 17.298 146.439 17.298ZM146.463 16.7592C148.398 16.7592 149.965 18.3511 149.965 20.3103C149.965 22.3185 148.422 23.8859 146.463 23.8859C144.528 23.8859 142.937 22.3185 142.937 20.3103C142.912 18.3266 144.479 16.7592 146.463 16.7592Z" fill="black"/>
</svg>
