<svg width="141" height="33" viewBox="0 0 141 33" fill="none" xmlns="http://www.w3.org/2000/svg">
<path fill-rule="evenodd" clip-rule="evenodd" d="M17.4195 2.07227L0 8.01941V24.6714L6.27656 22.5285V12.2539L17.4195 8.44965V2.07227Z" fill="#F5F5F5"/>
<path fill-rule="evenodd" clip-rule="evenodd" d="M8.88049 13.8163L26.3 7.86919V24.5212L8.88049 30.4683V13.8163Z" fill="#F5F5F5"/>
<path d="M41.02 18.7187L35.2174 9.50267H38.5667L43.068 16.884H41.148L45.6494 9.50267H48.956L43.0894 18.7187H41.02ZM40.636 24.5V17.1613H43.5587V24.5H40.636ZM52.3092 24.7133C51.271 24.7133 50.3323 24.4787 49.4932 24.0093C48.6683 23.5258 48.007 22.8787 47.5092 22.068C47.0257 21.2431 46.7839 20.3258 46.7839 19.316C46.7839 18.3062 47.0257 17.4031 47.5092 16.6067C47.9928 15.796 48.6541 15.156 49.4932 14.6867C50.3323 14.2031 51.2639 13.9613 52.2879 13.9613C53.3403 13.9613 54.279 14.2031 55.1039 14.6867C55.943 15.156 56.6043 15.796 57.0879 16.6067C57.5714 17.4031 57.8132 18.3062 57.8132 19.316C57.8132 20.3258 57.5714 21.2431 57.0879 22.068C56.6043 22.8787 55.943 23.5258 55.1039 24.0093C54.279 24.4787 53.3474 24.7133 52.3092 24.7133ZM52.2879 22.1107C52.8141 22.1107 53.2763 21.9969 53.6745 21.7693C54.087 21.5276 54.3999 21.2004 54.6132 20.788C54.8408 20.3613 54.9545 19.8778 54.9545 19.3373C54.9545 18.7969 54.8408 18.3204 54.6132 17.908C54.3857 17.4956 54.0728 17.1756 53.6745 16.948C53.2763 16.7062 52.8141 16.5853 52.2879 16.5853C51.7759 16.5853 51.3208 16.7062 50.9225 16.948C50.5243 17.1756 50.2114 17.4956 49.9839 17.908C49.7563 18.3204 49.6425 18.7969 49.6425 19.3373C49.6425 19.8778 49.7563 20.3613 49.9839 20.788C50.2114 21.2004 50.5243 21.5276 50.9225 21.7693C51.3208 21.9969 51.7759 22.1107 52.2879 22.1107ZM64.007 24.7133C63.0968 24.7133 62.2862 24.5213 61.575 24.1373C60.8782 23.7533 60.3306 23.22 59.9324 22.5373C59.5342 21.8547 59.335 21.0653 59.335 20.1693V14.196H62.151V20.1053C62.151 20.532 62.2222 20.9018 62.3644 21.2147C62.5066 21.5133 62.7199 21.7409 63.0044 21.8973C63.2888 22.0538 63.623 22.132 64.007 22.132C64.5902 22.132 65.0453 21.9542 65.3724 21.5987C65.6995 21.2431 65.863 20.7453 65.863 20.1053V14.196H68.6577V20.1693C68.6577 21.0796 68.4586 21.876 68.0604 22.5587C67.6764 23.2413 67.1288 23.7747 66.4177 24.1587C65.7208 24.5284 64.9173 24.7133 64.007 24.7133ZM70.8832 24.5V14.196H73.6779V24.5H70.8832ZM73.6779 18.804L72.5899 18.0787C72.7179 16.8129 73.0877 15.8173 73.6992 15.092C74.3108 14.3524 75.1925 13.9827 76.3445 13.9827C76.8423 13.9827 77.2903 14.068 77.6885 14.2387C78.0868 14.3951 78.4494 14.6582 78.7765 15.028L77.0272 17.0333C76.8708 16.8627 76.6788 16.7347 76.4512 16.6493C76.2379 16.564 75.989 16.5213 75.7045 16.5213C75.1072 16.5213 74.6165 16.7133 74.2325 17.0973C73.8628 17.4671 73.6779 18.036 73.6779 18.804ZM84.5985 24.5V9.50267H87.4999V24.5H84.5985ZM86.7319 24.5V21.9187H94.3692V24.5H86.7319ZM100.726 24.7133C99.6877 24.7133 98.749 24.4787 97.9099 24.0093C97.085 23.5258 96.4237 22.8787 95.9259 22.068C95.4423 21.2431 95.2005 20.3258 95.2005 19.316C95.2005 18.3062 95.4423 17.4031 95.9259 16.6067C96.4094 15.796 97.0708 15.156 97.9099 14.6867C98.749 14.2031 99.6805 13.9613 100.705 13.9613C101.757 13.9613 102.696 14.2031 103.521 14.6867C104.36 15.156 105.021 15.796 105.505 16.6067C105.988 17.4031 106.23 18.3062 106.23 19.316C106.23 20.3258 105.988 21.2431 105.505 22.068C105.021 22.8787 104.36 23.5258 103.521 24.0093C102.696 24.4787 101.764 24.7133 100.726 24.7133ZM100.705 22.1107C101.231 22.1107 101.693 21.9969 102.091 21.7693C102.504 21.5276 102.817 21.2004 103.03 20.788C103.257 20.3613 103.371 19.8778 103.371 19.3373C103.371 18.7969 103.257 18.3204 103.03 17.908C102.802 17.4956 102.489 17.1756 102.091 16.948C101.693 16.7062 101.231 16.5853 100.705 16.5853C100.193 16.5853 99.7374 16.7062 99.3392 16.948C98.941 17.1756 98.6281 17.4956 98.4005 17.908C98.173 18.3204 98.0592 18.7969 98.0592 19.3373C98.0592 19.8778 98.173 20.3613 98.4005 20.788C98.6281 21.2004 98.941 21.5276 99.3392 21.7693C99.7374 21.9969 100.193 22.1107 100.705 22.1107ZM112.338 29.0653C111.243 29.0653 110.276 28.8662 109.437 28.468C108.598 28.084 107.929 27.5364 107.432 26.8253L109.202 25.0547C109.601 25.524 110.041 25.8796 110.525 26.1213C111.023 26.3773 111.62 26.5053 112.317 26.5053C113.185 26.5053 113.867 26.2849 114.365 25.844C114.877 25.4031 115.133 24.7916 115.133 24.0093V21.428L115.602 19.1667L115.154 16.9053V14.196H117.928V23.9667C117.928 24.9907 117.686 25.8796 117.202 26.6333C116.733 27.4013 116.079 27.9987 115.24 28.4253C114.401 28.852 113.433 29.0653 112.338 29.0653ZM112.21 24.2227C111.286 24.2227 110.454 24.0022 109.714 23.5613C108.975 23.1062 108.392 22.4876 107.965 21.7053C107.553 20.9231 107.346 20.0484 107.346 19.0813C107.346 18.1142 107.553 17.2467 107.965 16.4787C108.392 15.7107 108.975 15.1062 109.714 14.6653C110.454 14.2102 111.286 13.9827 112.21 13.9827C112.978 13.9827 113.654 14.132 114.237 14.4307C114.834 14.7293 115.304 15.1418 115.645 15.668C115.986 16.18 116.171 16.7844 116.2 17.4813V20.724C116.171 21.4067 115.979 22.0182 115.624 22.5587C115.282 23.0849 114.813 23.4973 114.216 23.796C113.633 24.0804 112.964 24.2227 112.21 24.2227ZM112.765 21.684C113.277 21.684 113.718 21.5773 114.088 21.364C114.472 21.1364 114.77 20.8307 114.984 20.4467C115.197 20.0484 115.304 19.6004 115.304 19.1027C115.304 18.5907 115.197 18.1427 114.984 17.7587C114.77 17.3747 114.472 17.076 114.088 16.8627C113.718 16.6351 113.277 16.5213 112.765 16.5213C112.253 16.5213 111.805 16.6351 111.421 16.8627C111.037 17.076 110.738 17.3818 110.525 17.78C110.312 18.164 110.205 18.6049 110.205 19.1027C110.205 19.5862 110.312 20.0271 110.525 20.4253C110.738 20.8093 111.037 21.1151 111.421 21.3427C111.805 21.5702 112.253 21.684 112.765 21.684ZM125.226 24.7133C124.188 24.7133 123.249 24.4787 122.41 24.0093C121.585 23.5258 120.924 22.8787 120.426 22.068C119.942 21.2431 119.701 20.3258 119.701 19.316C119.701 18.3062 119.942 17.4031 120.426 16.6067C120.909 15.796 121.571 15.156 122.41 14.6867C123.249 14.2031 124.181 13.9613 125.205 13.9613C126.257 13.9613 127.196 14.2031 128.021 14.6867C128.86 15.156 129.521 15.796 130.005 16.6067C130.488 17.4031 130.73 18.3062 130.73 19.316C130.73 20.3258 130.488 21.2431 130.005 22.068C129.521 22.8787 128.86 23.5258 128.021 24.0093C127.196 24.4787 126.264 24.7133 125.226 24.7133ZM125.205 22.1107C125.731 22.1107 126.193 21.9969 126.591 21.7693C127.004 21.5276 127.317 21.2004 127.53 20.788C127.757 20.3613 127.871 19.8778 127.871 19.3373C127.871 18.7969 127.757 18.3204 127.53 17.908C127.302 17.4956 126.989 17.1756 126.591 16.948C126.193 16.7062 125.731 16.5853 125.205 16.5853C124.693 16.5853 124.237 16.7062 123.839 16.948C123.441 17.1756 123.128 17.4956 122.901 17.908C122.673 18.3204 122.559 18.7969 122.559 19.3373C122.559 19.8778 122.673 20.3613 122.901 20.788C123.128 21.2004 123.441 21.5276 123.839 21.7693C124.237 21.9969 124.693 22.1107 125.205 22.1107Z" fill="white"/>
</svg>
