<svg width="141" height="32" viewBox="0 0 141 32" fill="none" xmlns="http://www.w3.org/2000/svg">
<path fill-rule="evenodd" clip-rule="evenodd" d="M17.4195 1.57227L0 7.51941V24.1714L6.27656 22.0285V11.7539L17.4195 7.94965V1.57227Z" fill="#0A0D12"/>
<path fill-rule="evenodd" clip-rule="evenodd" d="M8.88062 13.3163L26.3001 7.36919V24.0212L8.88062 29.9683V13.3163Z" fill="#0A0D12"/>
<path d="M41.0199 18.2187L35.2173 9.00267H38.5666L43.0679 16.384H41.1479L45.6493 9.00267H48.9559L43.0893 18.2187H41.0199ZM40.6359 24V16.6613H43.5586V24H40.6359ZM52.3091 24.2133C51.2709 24.2133 50.3322 23.9787 49.4931 23.5093C48.6682 23.0258 48.0069 22.3787 47.5091 21.568C47.0255 20.7431 46.7838 19.8258 46.7838 18.816C46.7838 17.8062 47.0255 16.9031 47.5091 16.1067C47.9926 15.296 48.654 14.656 49.4931 14.1867C50.3322 13.7031 51.2638 13.4613 52.2878 13.4613C53.3402 13.4613 54.2789 13.7031 55.1038 14.1867C55.9429 14.656 56.6042 15.296 57.0878 16.1067C57.5713 16.9031 57.8131 17.8062 57.8131 18.816C57.8131 19.8258 57.5713 20.7431 57.0878 21.568C56.6042 22.3787 55.9429 23.0258 55.1038 23.5093C54.2789 23.9787 53.3473 24.2133 52.3091 24.2133ZM52.2878 21.6107C52.814 21.6107 53.2762 21.4969 53.6744 21.2693C54.0869 21.0276 54.3998 20.7004 54.6131 20.288C54.8406 19.8613 54.9544 19.3778 54.9544 18.8373C54.9544 18.2969 54.8406 17.8204 54.6131 17.408C54.3855 16.9956 54.0726 16.6756 53.6744 16.448C53.2762 16.2062 52.814 16.0853 52.2878 16.0853C51.7758 16.0853 51.3206 16.2062 50.9224 16.448C50.5242 16.6756 50.2113 16.9956 49.9838 17.408C49.7562 17.8204 49.6424 18.2969 49.6424 18.8373C49.6424 19.3778 49.7562 19.8613 49.9838 20.288C50.2113 20.7004 50.5242 21.0276 50.9224 21.2693C51.3206 21.4969 51.7758 21.6107 52.2878 21.6107ZM64.0069 24.2133C63.0967 24.2133 62.286 24.0213 61.5749 23.6373C60.878 23.2533 60.3305 22.72 59.9323 22.0373C59.534 21.3547 59.3349 20.5653 59.3349 19.6693V13.696H62.1509V19.6053C62.1509 20.032 62.222 20.4018 62.3643 20.7147C62.5065 21.0133 62.7198 21.2409 63.0043 21.3973C63.2887 21.5538 63.6229 21.632 64.0069 21.632C64.59 21.632 65.0451 21.4542 65.3723 21.0987C65.6994 20.7431 65.8629 20.2453 65.8629 19.6053V13.696H68.6576V19.6693C68.6576 20.5796 68.4585 21.376 68.0603 22.0587C67.6763 22.7413 67.1287 23.2747 66.4176 23.6587C65.7207 24.0284 64.9171 24.2133 64.0069 24.2133ZM70.8831 24V13.696H73.6778V24H70.8831ZM73.6778 18.304L72.5898 17.5787C72.7178 16.3129 73.0875 15.3173 73.6991 14.592C74.3106 13.8524 75.1924 13.4827 76.3444 13.4827C76.8422 13.4827 77.2902 13.568 77.6884 13.7387C78.0866 13.8951 78.4493 14.1582 78.7764 14.528L77.0271 16.5333C76.8706 16.3627 76.6786 16.2347 76.4511 16.1493C76.2378 16.064 75.9889 16.0213 75.7044 16.0213C75.1071 16.0213 74.6164 16.2133 74.2324 16.5973C73.8626 16.9671 73.6778 17.536 73.6778 18.304ZM84.5984 24V9.00267H87.4998V24H84.5984ZM86.7318 24V21.4187H94.3691V24H86.7318ZM100.726 24.2133C99.6875 24.2133 98.7489 23.9787 97.9098 23.5093C97.0849 23.0258 96.4235 22.3787 95.9258 21.568C95.4422 20.7431 95.2004 19.8258 95.2004 18.816C95.2004 17.8062 95.4422 16.9031 95.9258 16.1067C96.4093 15.296 97.0706 14.656 97.9098 14.1867C98.7489 13.7031 99.6804 13.4613 100.704 13.4613C101.757 13.4613 102.696 13.7031 103.52 14.1867C104.36 14.656 105.021 15.296 105.504 16.1067C105.988 16.9031 106.23 17.8062 106.23 18.816C106.23 19.8258 105.988 20.7431 105.504 21.568C105.021 22.3787 104.36 23.0258 103.52 23.5093C102.696 23.9787 101.764 24.2133 100.726 24.2133ZM100.704 21.6107C101.231 21.6107 101.693 21.4969 102.091 21.2693C102.504 21.0276 102.816 20.7004 103.03 20.288C103.257 19.8613 103.371 19.3778 103.371 18.8373C103.371 18.2969 103.257 17.8204 103.03 17.408C102.802 16.9956 102.489 16.6756 102.091 16.448C101.693 16.2062 101.231 16.0853 100.704 16.0853C100.192 16.0853 99.7373 16.2062 99.3391 16.448C98.9409 16.6756 98.628 16.9956 98.4004 17.408C98.1729 17.8204 98.0591 18.2969 98.0591 18.8373C98.0591 19.3778 98.1729 19.8613 98.4004 20.288C98.628 20.7004 98.9409 21.0276 99.3391 21.2693C99.7373 21.4969 100.192 21.6107 100.704 21.6107ZM112.338 28.5653C111.243 28.5653 110.276 28.3662 109.437 27.968C108.598 27.584 107.929 27.0364 107.432 26.3253L109.202 24.5547C109.6 25.024 110.041 25.3796 110.525 25.6213C111.023 25.8773 111.62 26.0053 112.317 26.0053C113.184 26.0053 113.867 25.7849 114.365 25.344C114.877 24.9031 115.133 24.2916 115.133 23.5093V20.928L115.602 18.6667L115.154 16.4053V13.696H117.928V23.4667C117.928 24.4907 117.686 25.3796 117.202 26.1333C116.733 26.9013 116.079 27.4987 115.24 27.9253C114.4 28.352 113.433 28.5653 112.338 28.5653ZM112.21 23.7227C111.286 23.7227 110.454 23.5022 109.714 23.0613C108.975 22.6062 108.392 21.9876 107.965 21.2053C107.552 20.4231 107.346 19.5484 107.346 18.5813C107.346 17.6142 107.552 16.7467 107.965 15.9787C108.392 15.2107 108.975 14.6062 109.714 14.1653C110.454 13.7102 111.286 13.4827 112.21 13.4827C112.978 13.4827 113.654 13.632 114.237 13.9307C114.834 14.2293 115.304 14.6418 115.645 15.168C115.986 15.68 116.171 16.2844 116.2 16.9813V20.224C116.171 20.9067 115.979 21.5182 115.624 22.0587C115.282 22.5849 114.813 22.9973 114.216 23.296C113.632 23.5804 112.964 23.7227 112.21 23.7227ZM112.765 21.184C113.277 21.184 113.718 21.0773 114.088 20.864C114.472 20.6364 114.77 20.3307 114.984 19.9467C115.197 19.5484 115.304 19.1004 115.304 18.6027C115.304 18.0907 115.197 17.6427 114.984 17.2587C114.77 16.8747 114.472 16.576 114.088 16.3627C113.718 16.1351 113.277 16.0213 112.765 16.0213C112.253 16.0213 111.805 16.1351 111.421 16.3627C111.037 16.576 110.738 16.8818 110.525 17.28C110.312 17.664 110.205 18.1049 110.205 18.6027C110.205 19.0862 110.312 19.5271 110.525 19.9253C110.738 20.3093 111.037 20.6151 111.421 20.8427C111.805 21.0702 112.253 21.184 112.765 21.184ZM125.226 24.2133C124.188 24.2133 123.249 23.9787 122.41 23.5093C121.585 23.0258 120.924 22.3787 120.426 21.568C119.942 20.7431 119.7 19.8258 119.7 18.816C119.7 17.8062 119.942 16.9031 120.426 16.1067C120.909 15.296 121.571 14.656 122.41 14.1867C123.249 13.7031 124.18 13.4613 125.204 13.4613C126.257 13.4613 127.196 13.7031 128.02 14.1867C128.86 14.656 129.521 15.296 130.004 16.1067C130.488 16.9031 130.73 17.8062 130.73 18.816C130.73 19.8258 130.488 20.7431 130.004 21.568C129.521 22.3787 128.86 23.0258 128.02 23.5093C127.196 23.9787 126.264 24.2133 125.226 24.2133ZM125.204 21.6107C125.731 21.6107 126.193 21.4969 126.591 21.2693C127.004 21.0276 127.316 20.7004 127.53 20.288C127.757 19.8613 127.871 19.3778 127.871 18.8373C127.871 18.2969 127.757 17.8204 127.53 17.408C127.302 16.9956 126.989 16.6756 126.591 16.448C126.193 16.2062 125.731 16.0853 125.204 16.0853C124.692 16.0853 124.237 16.2062 123.839 16.448C123.441 16.6756 123.128 16.9956 122.9 17.408C122.673 17.8204 122.559 18.2969 122.559 18.8373C122.559 19.3778 122.673 19.8613 122.9 20.288C123.128 20.7004 123.441 21.0276 123.839 21.2693C124.237 21.4969 124.692 21.6107 125.204 21.6107Z" fill="#0A0D12"/>
</svg>
