<?xml version="1.0" encoding="UTF-8" standalone="no"?>
<!-- Created with Inkscape (http://www.inkscape.org/) -->

<svg
   xmlns:dc="http://purl.org/dc/elements/1.1/"
   xmlns:cc="http://creativecommons.org/ns#"
   xmlns:rdf="http://www.w3.org/1999/02/22-rdf-syntax-ns#"
   xmlns:svg="http://www.w3.org/2000/svg"
   xmlns="http://www.w3.org/2000/svg"
   xmlns:sodipodi="http://sodipodi.sourceforge.net/DTD/sodipodi-0.dtd"
   xmlns:inkscape="http://www.inkscape.org/namespaces/inkscape"
   width="103.37724"
   height="28.8708"
   viewBox="0 0 27.351894 7.6387326"
   version="1.1"
   id="svg4030"
   inkscape:version="0.92.0 r15299"
   sodipodi:docname="novus.svg">
  <defs
     id="defs4024" />
  <sodipodi:namedview
     id="base"
     pagecolor="#ffffff"
     bordercolor="#666666"
     borderopacity="1.0"
     inkscape:pageopacity="0.0"
     inkscape:pageshadow="2"
     inkscape:zoom="7.8337728"
     inkscape:cx="51.188617"
     inkscape:cy="13.935402"
     inkscape:document-units="mm"
     inkscape:current-layer="layer1"
     showgrid="false"
     fit-margin-top="0"
     fit-margin-left="0"
     fit-margin-right="0"
     fit-margin-bottom="0"
     units="px"
     inkscape:window-width="1280"
     inkscape:window-height="744"
     inkscape:window-x="-4"
     inkscape:window-y="-4"
     inkscape:window-maximized="1" />
  <metadata
     id="metadata4027">
    <rdf:RDF>
      <cc:Work
         rdf:about="">
        <dc:format>image/svg+xml</dc:format>
        <dc:type
           rdf:resource="http://purl.org/dc/dcmitype/StillImage" />
        <dc:title></dc:title>
      </cc:Work>
    </rdf:RDF>
  </metadata>
  <g
     inkscape:label="Layer 1"
     inkscape:groupmode="layer"
     id="layer1"
     transform="translate(-110.43253,-188.72689)">
    <path
       d="m 136.33523,189.72247 v 3.35033 c 0,0.58208 -0.47167,1.05339 -1.05375,1.05339 -0.28363,0 -0.54081,-0.11218 -0.73025,-0.29421 v 0 l -1.14053,-1.08621 -0.0995,-0.0942 c -0.072,-0.0709 -0.18239,-0.10512 -0.26811,-0.10512 -0.21802,0 -0.39511,0.17674 -0.39511,0.39475 v 0.13194 2.91747 c 0.40922,0.15629 0.85266,0.24272 1.31656,0.24272 2.03729,0 3.68759,-1.6503 3.68759,-3.68724 0,-1.13382 -0.51188,-2.14736 -1.31692,-2.82363 m -4.74063,2.29729 v 0 -3.5e-4 c 0,-0.58173 0.47167,-1.05304 1.0534,-1.05304 0.27763,0 0.52987,0.10725 0.71825,0.28293 v -3.5e-4 l 1.15429,1.09643 0.11924,0.1136 c 0.0677,0.0543 0.15311,0.0871 0.24659,0.0871 0.21837,0 0.39511,-0.17674 0.39511,-0.39511 v -0.13159 c 3.5e-4,0 3.5e-4,0 3.5e-4,0 v -2.91748 c -0.40922,-0.15628 -0.85301,-0.24271 -1.31727,-0.24271 -2.03623,0 -3.68688,1.65064 -3.68688,3.68688 0,1.13382 0.51188,2.14771 1.31692,2.82398 z m -5.73299,1.27388 c 0.10583,0.055 0.18979,0.10901 0.25576,0.133 0.0871,0.0325 0.22543,0.0892 0.37324,0.0892 0.17745,0 0.28081,-0.0409 0.34467,-0.0928 0.0617,-0.0497 0.11077,-0.12771 0.11077,-0.20567 0,-0.0783 -0.0279,-0.13935 -0.0924,-0.19579 -0.073,-0.0635 -0.2226,-0.11677 -0.46531,-0.17675 -0.39688,-0.0984 -0.6978,-0.20672 -0.86396,-0.37712 -0.16686,-0.17003 -0.24412,-0.31467 -0.24412,-0.55033 0,-0.24871 0.10866,-0.46955 0.32561,-0.66216 0.21696,-0.19297 0.5006,-0.28928 0.8502,-0.28928 0.20038,0 0.38982,0.03 0.56832,0.09 0.17851,0.06 0.35878,0.13652 0.64241,0.36195 0,0 -0.1778,0.38876 -0.58596,0.28963 -0.11113,-0.0268 -0.27905,-0.121 -0.36054,-0.14993 -0.0815,-0.0293 -0.17321,-0.0508 -0.25576,-0.0508 -0.13829,0 -0.26812,0.0399 -0.35208,0.11289 -0.0843,0.073 -0.1083,0.13864 -0.1083,0.23036 0,0.0822 0.031,0.13159 0.10019,0.19509 0.0691,0.0635 0.30198,0.11536 0.57397,0.17745 0.37641,0.0857 0.58138,0.17885 0.73095,0.29139 0.20955,0.15311 0.31433,0.35701 0.31433,0.61136 0,0.27129 -0.10866,0.50236 -0.32561,0.69321 -0.21696,0.19085 -0.52917,0.30974 -0.94051,0.30974 -0.25823,0 -0.48542,-0.0582 -0.68051,-0.14217 -0.30092,-0.12982 -0.46813,-0.29774 -0.60783,-0.50235 0,0 0.31326,-0.387 0.6925,-0.19015 m -6.17926,0.58632 c -0.0617,0.13088 -0.19332,0.22119 -0.33831,0.22119 -0.14499,0 -0.27623,-0.0903 -0.33831,-0.22119 l -1.33386,-2.91007 h 0.58597 c 0.17956,0 0.28998,0.0861 0.34537,0.21696 l 0.74083,1.74731 0.7426,-1.74378 c 0.0621,-0.13794 0.18626,-0.22049 0.34501,-0.22049 h 0.58209 z m -3.84316,-2.19569 c -0.4766,0 -0.76658,0.4004 -0.76658,0.86324 0,0.4625 0.28998,0.86325 0.76658,0.86325 0.47625,0 0.76624,-0.40075 0.76624,-0.86325 0,-0.46284 -0.28999,-0.86324 -0.76624,-0.86324 m 0,2.44404 c -0.93204,0 -1.58115,-0.71085 -1.58115,-1.5808 0,-0.8703 0.64911,-1.5815 1.58115,-1.5815 0.93204,0 1.58115,0.7112 1.58115,1.5815 0,0.86995 -0.64911,1.5808 -1.58115,1.5808 m -3.81035,-3.1623 c 0.83538,0 1.46403,0.60113 1.46403,1.42946 v 1.70568 h -0.41452 c -0.22789,0 -0.41416,-0.18662 -0.41416,-0.41452 v -1.35325 c 0,-0.37254 -0.24871,-0.63535 -0.63535,-0.63535 -0.38665,0 -0.63535,0.26281 -0.63535,0.63535 v 1.35325 c 0,0.2279 -0.18627,0.41452 -0.41416,0.41452 h -0.41452 v -1.70568 c 0,-0.82833 0.6283,-1.42946 1.46403,-1.42946 m 11.07793,3.13478 c -0.83538,0 -1.46403,-0.60078 -1.46403,-1.4291 v -1.70568 h 0.41451 c 0.2279,0 0.41416,0.18662 0.41416,0.41416 v 1.35326 c 0,0.37288 0.24836,0.63535 0.63536,0.63535 0.38664,0 0.635,-0.26247 0.635,-0.63535 v -1.35326 c 0,-0.22754 0.18662,-0.41416 0.41451,-0.41416 h 0.41416 v 1.70568 c 0,0.82832 -0.6283,1.4291 -1.46367,1.4291 m 2.75484,-0.80715 c 0.10583,0.055 0.18979,0.10901 0.25576,0.133 0.0871,0.0325 0.22543,0.0892 0.37324,0.0892 0.17745,0 0.28081,-0.0409 0.34466,-0.0928 0.0617,-0.0497 0.11078,-0.12771 0.11078,-0.20567 0,-0.0783 -0.0279,-0.13935 -0.0924,-0.19579 -0.073,-0.0635 -0.22261,-0.11677 -0.46532,-0.17675 -0.39687,-0.0984 -0.69779,-0.20672 -0.86395,-0.37712 -0.16686,-0.17003 -0.24412,-0.31467 -0.24412,-0.55033 0,-0.24871 0.10865,-0.46955 0.32561,-0.66216 0.21696,-0.19297 0.50059,-0.28928 0.8502,-0.28928 0.20037,0 0.38982,0.03 0.56832,0.09 0.17851,0.06 0.35878,0.13652 0.64241,0.36195 0,0 -0.1778,0.38876 -0.58596,0.28963 -0.11113,-0.0268 -0.27905,-0.121 -0.36054,-0.14993 -0.0815,-0.0293 -0.17322,-0.0508 -0.25577,-0.0508 -0.13829,0 -0.26811,0.0399 -0.35207,0.11289 -0.0843,0.073 -0.1083,0.13864 -0.1083,0.23036 0,0.0822 0.031,0.13159 0.10019,0.19509 0.0691,0.0635 0.30198,0.11536 0.57397,0.17745 0.37641,0.0857 0.58137,0.17885 0.73095,0.29139 0.20955,0.15311 0.31433,0.35701 0.31433,0.61136 0,0.27129 -0.10866,0.50236 -0.32562,0.69321 -0.21695,0.19085 -0.52916,0.30974 -0.9405,0.30974 -0.25824,0 -0.48542,-0.0582 -0.68051,-0.14217 -0.30092,-0.12982 -0.46814,-0.29774 -0.60784,-0.50235 0,0 0.31327,-0.387 0.69251,-0.19015 m -6.17926,0.58632 c -0.0617,0.13088 -0.19332,0.22119 -0.33831,0.22119 -0.14499,0 -0.27623,-0.0903 -0.33832,-0.22119 l -1.33385,-2.91007 h 0.58597 c 0.17956,0 0.28998,0.0861 0.34537,0.21696 l 0.74083,1.74731 0.7426,-1.74378 c 0.0621,-0.13794 0.18626,-0.22049 0.34501,-0.22049 h 0.58209 z m -3.84316,-2.19569 c -0.4766,0 -0.76659,0.4004 -0.76659,0.86324 0,0.4625 0.28999,0.86325 0.76659,0.86325 0.47625,0 0.76623,-0.40075 0.76623,-0.86325 0,-0.46284 -0.28998,-0.86324 -0.76623,-0.86324 m 0,2.44404 c -0.93204,0 -1.58115,-0.71085 -1.58115,-1.5808 0,-0.8703 0.64911,-1.5815 1.58115,-1.5815 0.93204,0 1.58115,0.7112 1.58115,1.5815 0,0.86995 -0.64911,1.5808 -1.58115,1.5808 m -3.81035,-3.1623 c 0.83537,0 1.46403,0.60113 1.46403,1.42946 v 1.70568 h -0.41452 c -0.22789,0 -0.41416,-0.18662 -0.41416,-0.41452 v -1.35325 c 0,-0.37254 -0.24871,-0.63535 -0.63535,-0.63535 -0.38665,0 -0.63536,0.26281 -0.63536,0.63535 v 1.35325 c 0,0.2279 -0.18626,0.41452 -0.41416,0.41452 h -0.41451 v -1.70568 c 0,-0.82833 0.6283,-1.42946 1.46403,-1.42946 m 11.07792,3.13478 c -0.83537,0 -1.46402,-0.60078 -1.46402,-1.4291 v -1.70568 h 0.41451 c 0.2279,0 0.41416,0.18662 0.41416,0.41416 v 1.35326 c 0,0.37288 0.24836,0.63535 0.63535,0.63535 0.38665,0 0.635,-0.26247 0.635,-0.63535 v -1.35326 c 0,-0.22754 0.18662,-0.41416 0.41452,-0.41416 h 0.41416 v 1.70568 c 0,0.82832 -0.6283,1.4291 -1.46368,1.4291"
       style="fill:#00a9e0;fill-opacity:1;fill-rule:nonzero;stroke:none;stroke-width:0.35277778"
       id="path813"
       inkscape:connector-curvature="0" />
  </g>
</svg>
