<svg width="152" height="48" viewBox="0 0 152 48" fill="none" xmlns="http://www.w3.org/2000/svg">
<rect width="152" height="48" fill="white"/>
<path d="M15.1158 13.2828C14.4072 12.3969 13.322 10.8688 13.322 10.8688C13.322 10.8688 13.5656 12.707 13.5656 13.8143V31.4651H10.9302V5.06644H11.3731L26.9864 23.5366C27.6951 24.4225 28.6031 25.6627 28.6031 25.6627C28.6031 25.6627 28.6031 24.0903 28.6031 22.983V5.35435H31.1721V31.753H30.7291L15.1158 13.2828ZM66.983 5.3322H69.9727L78.2777 26.5928L86.5383 5.3322H89.3509L78.477 31.7308H78.0341L66.983 5.3322ZM96.0613 22.5843V5.35435H98.8296V22.385C98.8296 27.0358 101.376 29.3612 105.451 29.3612C109.504 29.3612 112.073 27.0358 112.073 22.385V5.35435H114.842V22.5843C114.842 28.6968 110.767 31.7973 105.474 31.7973C100.092 31.7973 96.0613 28.6746 96.0613 22.5843ZM122.017 26.4821L124.342 25.2419C125.583 27.4566 127.376 29.3169 131.075 29.3169C134.109 29.3169 136.501 27.6337 136.501 24.8654C136.501 22.2078 134.84 20.8569 131.584 19.3952L129.525 18.4208C125.782 16.7376 123.767 14.9216 123.767 11.2675C123.767 7.48041 126.712 5 130.654 5C134.153 5 136.346 6.6167 137.741 8.91993L135.504 10.3152C134.508 8.69847 133.112 7.48041 130.654 7.48041C128.085 7.48041 126.491 8.98637 126.491 11.2232C126.491 13.5486 127.731 14.5673 130.654 15.9182L132.714 16.8927C137.055 18.8194 139.269 20.9676 139.269 24.8654C139.269 29.184 135.859 31.7973 131.141 31.7973C126.114 31.7973 123.39 29.2504 122.017 26.4821ZM56.1533 41.2095L55.7104 41.0102C55.1124 40.7223 54.9131 40.5009 54.9131 40.0579C54.9131 39.5928 55.2232 39.2606 55.7768 39.2606C56.3305 39.2606 56.5741 39.5707 56.7291 39.8365L56.7513 39.8807L57.0392 39.6814L57.017 39.6371C56.7291 39.1721 56.3083 38.9285 55.7547 38.9285C55.0681 38.9285 54.5588 39.3935 54.5588 40.0579C54.5588 40.7002 54.9353 41.0545 55.5775 41.3424L56.0204 41.5417C56.707 41.8518 56.9727 42.1618 56.9727 42.6712C56.9727 43.2249 56.5298 43.6014 55.8876 43.6014C55.0903 43.6014 54.7802 43.1584 54.5809 42.7819L54.5588 42.7376L54.2487 42.8927L54.2709 42.937C54.4923 43.3799 54.9353 43.9336 55.8876 43.9336C56.7513 43.9336 57.3271 43.4242 57.3271 42.6712C57.3271 42.029 56.9727 41.586 56.1533 41.2095ZM58.678 41.6082H60.8927V41.276H58.678V39.3492H61.1363V39.017H58.3015V43.9114H61.247V43.5571H58.678V41.6082ZM65.2112 40.4566C65.2112 39.5264 64.6133 38.9949 63.5503 38.9949H62.2436V43.8893H62.6201V41.8961H63.5503C63.661 41.8961 63.7496 41.8961 63.8603 41.8739L65.0119 43.8671H65.4549L64.2589 41.8075C64.8569 41.6303 65.2112 41.1431 65.2112 40.4566ZM62.598 39.3271H63.5281C64.414 39.3271 64.8569 39.7036 64.8569 40.4566C64.8569 41.2095 64.414 41.586 63.5281 41.586H62.598V39.3271ZM67.891 43.2913L66.2964 39.017L66.2743 38.9949H65.8756L67.8024 43.9336H67.8245H67.9574L69.8842 38.9949H69.5298L67.891 43.2913ZM70.77 38.9949H71.1465V43.8893H70.77V38.9949ZM76.2845 42.7819C75.908 43.3135 75.3101 43.6457 74.6235 43.6457C73.4276 43.6457 72.5639 42.7155 72.5639 41.4974C72.5639 40.2572 73.4719 39.3492 74.6235 39.3492C75.3322 39.3492 75.8859 39.615 76.2402 40.1465L76.2624 40.1908L76.5503 39.9693L76.5281 39.925C76.1295 39.3271 75.4429 38.9949 74.6235 38.9949C73.2283 38.9949 72.1652 40.0801 72.1652 41.4974C72.1652 42.937 73.2283 44 74.6235 44C75.4651 44 76.1516 43.6457 76.5724 43.0034L76.5946 42.9591L76.3066 42.7598L76.2845 42.7819ZM77.8569 41.6082H80.0715V41.276H77.8569V39.3492H80.3152V39.017H77.4804V43.9114H80.4259V43.5571H77.8569V41.6082ZM11.9046 41.2095L11.4617 41.0102C10.8637 40.7223 10.6644 40.5009 10.6644 40.0579C10.6644 39.5928 10.9744 39.2606 11.5281 39.2606C12.0596 39.2606 12.3254 39.5707 12.4804 39.8365L12.5026 39.8807L12.7905 39.6814L12.7683 39.6371C12.4804 39.1721 12.0596 38.9285 11.506 38.9285C10.8194 38.9285 10.3101 39.3935 10.3101 40.0579C10.3101 40.7002 10.6865 41.0545 11.3288 41.3424L11.7717 41.5417C12.4583 41.8518 12.724 42.1618 12.724 42.6712C12.724 43.2249 12.2811 43.6014 11.6388 43.6014C10.8416 43.6014 10.5315 43.1584 10.3322 42.7819L10.3101 42.7376L10 42.8927L10.0221 42.937C10.2436 43.3799 10.6865 43.9336 11.6388 43.9336C12.5026 43.9336 13.0784 43.4242 13.0784 42.6712C13.0784 42.029 12.7019 41.586 11.9046 41.2095ZM16.201 38.9285C14.8058 38.9285 13.7428 40.0136 13.7428 41.431C13.7428 42.8705 14.8058 43.9336 16.201 43.9336C17.5963 43.9336 18.6593 42.8484 18.6593 41.431C18.6593 40.0136 17.5963 38.9285 16.201 38.9285ZM16.201 43.6014C15.0051 43.6014 14.1414 42.6712 14.1414 41.4532C14.1414 40.2129 15.0494 39.3049 16.201 39.3049C17.3526 39.3049 18.2606 40.2351 18.2606 41.4532C18.2606 42.6712 17.3748 43.6014 16.201 43.6014ZM19.9659 38.9949H19.6116V43.8893H22.2692V43.5571H19.9659V38.9949ZM25.9455 42.2283C25.9455 43.092 25.4804 43.6235 24.6831 43.6235C23.8859 43.6235 23.4208 43.1141 23.4208 42.2283V38.9949H23.0443V42.2504C23.0443 43.2913 23.6865 43.9557 24.6831 43.9557C25.6797 43.9557 26.322 43.2913 26.322 42.2504V38.9949H25.9455V42.2283ZM27.075 39.3271H28.5809V43.8893H28.9353V39.3271H30.4191V38.9949H27.075V39.3271ZM31.2606 38.9949H31.6371V43.8893H31.2606V38.9949ZM35.092 38.9285C33.6968 38.9285 32.6337 40.0136 32.6337 41.431C32.6337 42.8705 33.6968 43.9336 35.092 43.9336C36.4872 43.9336 37.5503 42.8484 37.5503 41.431C37.5503 40.0136 36.4872 38.9285 35.092 38.9285ZM35.092 43.6014C33.8961 43.6014 33.0324 42.6712 33.0324 41.4532C33.0324 40.2129 33.9404 39.3049 35.092 39.3049C36.2879 39.3049 37.1516 40.2351 37.1516 41.4532C37.1516 42.6712 36.2436 43.6014 35.092 43.6014ZM41.8024 43.1363L38.6576 38.9506L38.6354 38.9285H38.5026V43.8893H38.8348V39.7479L41.9796 43.9336H42.0017H42.1346V38.9949H41.8024V43.1363ZM44.8807 41.2095L44.4378 41.0102C43.8399 40.7223 43.6405 40.5009 43.6405 40.0579C43.6405 39.5928 43.9506 39.2606 44.5043 39.2606C45.0358 39.2606 45.3015 39.5707 45.4566 39.8365L45.4787 39.8807L45.7666 39.6814L45.7445 39.6371C45.4344 39.1721 45.0358 38.9285 44.4821 38.9285C43.7956 38.9285 43.2862 39.3935 43.2862 40.0579C43.2862 40.7002 43.6627 41.0545 44.3049 41.3424L44.7479 41.5417C45.4344 41.8518 45.7002 42.1618 45.7002 42.6712C45.7002 43.2249 45.2572 43.6014 44.615 43.6014C43.8177 43.6014 43.5077 43.1584 43.3083 42.7819L43.2862 42.7376L42.9762 42.8927L42.9983 42.937C43.2198 43.3799 43.6627 43.9336 44.615 43.9336C45.4787 43.9336 46.0545 43.4242 46.0545 42.6712C46.0324 42.029 45.7002 41.586 44.8807 41.2095ZM90.5468 41.2095L90.1039 41.0102C89.506 40.7223 89.3066 40.5009 89.3066 40.0579C89.3066 39.5928 89.6167 39.2606 90.1704 39.2606C90.724 39.2606 90.9676 39.5486 91.1227 39.8365L91.1448 39.8807L91.4327 39.6814L91.4106 39.6371C91.1227 39.1721 90.7019 38.9285 90.1482 38.9285C89.4617 38.9285 88.9523 39.3935 88.9523 40.0579C88.9523 40.7002 89.3288 41.0545 89.971 41.3424L90.414 41.5417C91.1005 41.8518 91.3663 42.1618 91.3663 42.6712C91.3663 43.2249 90.9233 43.6014 90.2811 43.6014C89.4838 43.6014 89.1738 43.1584 88.9744 42.7819L88.9523 42.7376L88.6423 42.8927L88.6644 42.937C88.8859 43.3799 89.3288 43.9336 90.2811 43.9336C91.1448 43.9336 91.7206 43.4242 91.7206 42.6712C91.6763 42.029 91.3441 41.586 90.5468 41.2095ZM95.5298 42.2283C95.5298 43.092 95.0647 43.6235 94.2675 43.6235C93.4702 43.6235 93.0051 43.1141 93.0051 42.2283V38.9949H92.6286V42.2504C92.6286 43.3135 93.2487 43.9557 94.2675 43.9557C95.2641 43.9557 95.9063 43.2913 95.9063 42.2504V38.9949H95.5298V42.2283ZM98.5639 41.2095L98.1209 41.0102C97.523 40.7223 97.3237 40.5009 97.3237 40.0579C97.3237 39.5928 97.6337 39.2606 98.1874 39.2606C98.7189 39.2606 98.9847 39.5486 99.1397 39.8365L99.1618 39.8807L99.4497 39.6814L99.4276 39.6371C99.1397 39.1721 98.7189 38.9285 98.1652 38.9285C97.4566 38.9285 96.9693 39.3714 96.9693 40.0579C96.9693 40.7002 97.3458 41.0545 97.9881 41.3424L98.431 41.5417C99.1175 41.8518 99.3833 42.1618 99.3833 42.6712C99.3833 43.2249 98.9404 43.6014 98.2981 43.6014C97.5008 43.6014 97.1908 43.1584 96.9915 42.7819L96.9693 42.7376L96.6593 42.8927L96.6814 42.937C96.9029 43.3799 97.3458 43.9336 98.2981 43.9336C99.1618 43.9336 99.7376 43.4242 99.7376 42.6712C99.7376 42.029 99.4054 41.586 98.5639 41.2095ZM100.225 39.3271H101.731V43.8893H102.107V39.3271H103.591V38.9949H100.225V39.3271ZM106.049 38.9285H105.917L103.99 43.8228L103.968 43.8671H104.344L104.853 42.5826H107.135L107.644 43.8671H108.02L106.049 38.9285ZM107.002 42.2726H105.009C105.164 41.8739 105.85 40.1022 106.005 39.6371C106.16 40.0801 106.847 41.8518 107.002 42.2726ZM108.884 38.9949H109.261V43.8893H108.884V38.9949ZM113.867 43.1363L110.744 38.9506L110.722 38.9285H110.589V43.8893H110.922V39.7479L114.066 43.9336H114.089H114.221V38.9949H113.867V43.1363ZM117.145 38.9285H117.012L115.085 43.8671H115.462L115.971 42.5826H118.252L118.761 43.8671H119.138L117.145 38.9285ZM118.097 42.2726H116.104C116.259 41.8739 116.945 40.1022 117.101 39.6371C117.256 40.0801 117.92 41.8518 118.097 42.2726ZM122.216 41.2981C122.593 41.121 122.792 40.7888 122.792 40.2351C122.792 39.4378 122.283 38.9949 121.441 38.9949H119.98V43.8893H121.618C122.571 43.8893 123.08 43.402 123.08 42.494C123.058 41.8739 122.77 41.431 122.216 41.2981ZM120.334 41.4974H121.53C122.305 41.4974 122.704 41.8518 122.704 42.5605C122.704 43.247 122.327 43.6235 121.574 43.6235H120.334V41.4974ZM120.334 41.121V39.3271H121.441C122.305 39.3271 122.46 39.8143 122.46 40.2351C122.46 40.6337 122.305 41.1431 121.552 41.1431H120.334V41.121ZM124.099 38.9949H124.475V43.8893H124.099V38.9949ZM126.136 38.9949H125.76V43.8893H128.417V43.5571H126.136V38.9949ZM129.281 38.9949H129.658V43.8893H129.281V38.9949ZM130.477 39.3271H131.983V43.8893H132.337V39.3271H133.843V38.9949H130.477V39.3271ZM137.52 38.9949C136.457 40.9438 136.146 41.5639 136.058 41.7411C135.881 41.3867 135.083 39.925 134.618 38.9949L134.596 38.9727H134.175L135.836 42.0732V43.8671H136.213V42.0732L137.852 39.0392L137.896 38.9727H137.52V38.9949Z" fill="#204156"/>
<path d="M139.78 7.94536C139.78 7.03735 140.466 6.3951 141.308 6.3951C142.149 6.3951 142.858 7.03735 142.858 7.94536C142.858 8.83122 142.149 9.47347 141.308 9.47347C140.488 9.47347 139.78 8.83122 139.78 7.94536ZM142.592 7.94536C142.592 7.14808 142.061 6.63872 141.33 6.63872C140.621 6.63872 140.09 7.14808 140.09 7.94536C140.09 8.74263 140.599 9.22986 141.33 9.22986C142.061 9.22986 142.592 8.72049 142.592 7.94536ZM140.776 7.08165H141.352C141.773 7.08165 141.994 7.30311 141.994 7.61316C141.994 7.85677 141.884 8.05609 141.662 8.12253L142.039 8.76478H141.706L141.352 8.16682H141.086V8.76478H140.776V7.08165ZM141.352 7.94536C141.574 7.94536 141.662 7.83463 141.662 7.63531C141.662 7.45814 141.551 7.3474 141.352 7.3474H141.064V7.92321L141.352 7.94536ZM51.8138 12.9283C48.2482 12.9283 45.2806 15.8074 45.2806 19.3508C45.2806 22.9164 48.1817 25.419 51.703 25.7733C55.3129 26.1498 59.2107 23.3593 59.2771 19.2401C59.3214 15.6966 56.7082 11.3559 52.2788 11.0459L52.301 10.9794C56.1102 11.068 60.8938 14.3014 60.8938 19.373C60.8938 25.5297 56.9518 29.0288 51.7695 29.0288C46.5872 29.0288 41.9807 24.3338 41.9807 19.1293C41.9807 13.9249 46.5872 9.65064 51.8138 9.65064V12.9283ZM51.8138 9.11912C46.1443 9.11912 41.4271 13.7035 41.4271 19.3951C41.4271 25.0646 46.0114 29.6711 51.703 29.6711C57.9926 29.6711 62.9092 25.6847 62.9092 19.3508C62.9092 13.7699 60.2294 8.36614 52.4339 7.56887L52.456 7.48028C57.6383 7.50243 64.4594 11.7103 64.5259 19.4615C64.5923 27.5229 59.4765 32.6609 51.9688 32.6609C44.5054 32.6609 38.0608 26.9471 38.0608 19.4615C38.0608 11.9982 44.3061 5.57568 51.7916 5.57568L51.8138 9.11912ZM138.119 39.0833V38.9948H139.248V39.0833H138.739V40.5007H138.65V39.0833H138.119ZM139.359 38.9948H139.492L140.068 40.39L140.643 38.9948H140.776V40.5007H140.688V39.1055L140.134 40.5007H140.023L139.448 39.1055V40.5007H139.359V38.9948Z" fill="#204156"/>
</svg>
