<?xml version="1.0" encoding="UTF-8"?><svg id="Layer_2" xmlns="http://www.w3.org/2000/svg" viewBox="0 0 391.21 75"><defs><style>.cls-1{fill:#00bdf2;}</style></defs><g id="ARTWORK"><g><path class="cls-1" d="m61.59,3.74v67.15h-12.76L15.35,30.13v40.77H0V3.74h12.85l33.39,40.77V3.74h15.35Z"/><path class="cls-1" d="m230.68,3.74l-29.07,67.15h-15.35L157.28,3.74h16.79l20.44,47.97L215.23,3.74h15.44Z"/><path class="cls-1" d="m245.86,41.35V3.74h15.54v37.03c0,12.76,5.56,18.03,14.97,18.03s14.97-5.28,14.97-18.03V3.74h15.35v37.61c0,19.76-11.32,30.7-30.41,30.7s-30.41-10.94-30.41-30.7Z"/><path class="cls-1" d="m324.13,64.28l5.28-11.7c5.66,4.12,14.1,7,22.16,7,9.21,0,12.95-3.07,12.95-7.2,0-12.57-39.05-3.93-39.05-28.87,0-11.42,9.21-20.91,28.3-20.91,8.44,0,17.08,2.01,23.31,5.95l-4.8,11.8c-6.24-3.55-12.66-5.28-18.61-5.28-9.21,0-12.76,3.45-12.76,7.67,0,12.38,39.05,3.84,39.05,28.49,0,11.22-9.31,20.82-28.49,20.82-10.65,0-21.39-3.17-27.34-7.77Z"/><g><path class="cls-1" d="m152.13,37.49c-.77-18.74-16.08-32.98-34.49-33.01v1.12c7.86.72,15.13,4.69,20.02,10.37,10.5,11.71,9.91,30.82-1.71,41.33-7.98,7.62-20.25,9.83-30.28,5.48-10.06-4.07-17.07-14.4-17.02-25.29-.26-14.81,12.69-27.75,27.49-27.49V0c-20.42-.18-37.67,17.07-37.49,37.49-.13,26.66,27.17,45.11,51.76,34.43,13.44-5.65,22.46-19.93,21.73-34.43Z"/><path class="cls-1" d="m117.64,17.01v1.12c4.37.61,8.54,3.3,11.17,6.7,8.67,11.06,1.59,27.74-12.67,27.59-13.42-.29-20.42-15.94-10.75-25.67,2.84-2.8,6.77-4.35,10.75-4.25v-10c-13.36-.02-24.97,11.63-24.74,24.99-.15,17.67,17.86,30.27,34.26,22.99,22.49-10.44,16.74-43.03-8.03-43.48Z"/></g><path class="cls-1" d="m391.21,10.2c0,2.77-2.16,4.95-4.94,4.95s-4.91-2.17-4.91-4.92,2.13-4.92,4.94-4.92,4.91,2.12,4.91,4.89Zm-1.31,0c0-2.11-1.48-3.67-3.6-3.67s-3.62,1.6-3.62,3.69,1.51,3.69,3.6,3.69c1.05,0,1.95-.4,2.59-1.07h-1.7l-.86-1.34h-.32v1.34h-2.01v-5.24h2.5c1.56,0,2.47.77,2.47,1.95,0,.74-.29,1.27-.84,1.59l.96,1.49c.53-.66.84-1.49.84-2.44Zm-3.56-.07c.38,0,.59-.22.59-.57s-.21-.57-.59-.57h-.36v1.14h.36Z"/></g></g></svg>