<svg width="200" height="100" viewBox="0 0 200 100" fill="none" xmlns="http://www.w3.org/2000/svg">
<g clip-path="url(#clip0_4_454)">
<mask id="mask0_4_454" style="mask-type:luminance" maskUnits="userSpaceOnUse" x="9" y="15" width="69" height="69">
<path d="M78 15H9V84H78V15Z" fill="white"/>
</mask>
<g mask="url(#mask0_4_454)">
<path fill-rule="evenodd" clip-rule="evenodd" d="M9 15H32V38H9V15ZM54.9999 38H32V60.9999H9V84H32V60.9999H54.9999V84H78V60.9999H54.9999V38ZM54.9999 38H78V15H54.9999V38Z" fill="white"/>
</g>
</g>
<path d="M88.475 45.5V24.26H98.564C100.137 24.26 101.485 24.5353 102.606 25.086C103.746 25.6367 104.621 26.4037 105.231 27.387C105.86 28.3703 106.175 29.5208 106.175 30.8385C106.175 32.1562 105.86 33.3165 105.231 34.3195C104.602 35.3225 103.717 36.1092 102.576 36.6795C101.455 37.2302 100.118 37.5055 98.564 37.5055H92.074V34.0245H98.328C99.3703 34.0245 100.177 33.7393 100.747 33.169C101.337 32.579 101.632 31.812 101.632 30.868C101.632 29.924 101.337 29.1668 100.747 28.5965C100.177 28.0262 99.3703 27.741 98.328 27.741H93.018V45.5H88.475ZM107.504 45.5V30.455H111.929V45.5H107.504ZM107.356 28.449V23.67H112.076V28.449H107.356ZM124.205 45.5L119.751 38.892L113.349 30.455H118.305L122.288 36.3845L129.161 45.5H124.205ZM120.105 36.1485L124.087 30.455H128.925L122.199 39.246L120.105 36.1485ZM121.816 39.482L117.538 45.5H112.73L119.721 36.3845L121.816 39.482ZM136.581 45.795C134.909 45.795 133.454 45.4705 132.215 44.8215C130.976 44.1528 130.012 43.2285 129.324 42.0485C128.655 40.8685 128.321 39.5115 128.321 37.9775C128.321 36.4238 128.655 35.0668 129.324 33.9065C130.012 32.7265 130.966 31.812 132.185 31.163C133.405 30.4943 134.821 30.16 136.433 30.16C137.987 30.16 139.334 30.4747 140.475 31.104C141.615 31.7333 142.5 32.6085 143.13 33.7295C143.759 34.8505 144.074 36.1682 144.074 37.6825C144.074 37.9972 144.064 38.2922 144.044 38.5675C144.025 38.8232 143.995 39.069 143.956 39.305H130.917V36.3845H140.386L139.619 36.9155C139.619 35.6962 139.324 34.8013 138.734 34.231C138.164 33.641 137.377 33.346 136.374 33.346C135.214 33.346 134.309 33.7393 133.66 34.526C133.031 35.3127 132.716 36.4927 132.716 38.066C132.716 39.6 133.031 40.7407 133.66 41.488C134.309 42.2353 135.273 42.609 136.551 42.609C137.259 42.609 137.869 42.491 138.38 42.255C138.892 42.019 139.275 41.6355 139.531 41.1045H143.69C143.199 42.5598 142.353 43.7103 141.153 44.556C139.973 45.382 138.449 45.795 136.581 45.795ZM145.555 45.5V24.26H149.98V45.5H145.555Z" fill="white"/>
<path d="M88.475 75.5V54.26H98.564C100.137 54.26 101.485 54.5353 102.606 55.086C103.746 55.6367 104.621 56.4037 105.231 57.387C105.86 58.3703 106.175 59.5208 106.175 60.8385C106.175 62.1562 105.86 63.3165 105.231 64.3195C104.602 65.3225 103.717 66.1092 102.576 66.6795C101.455 67.2302 100.118 67.5055 98.564 67.5055H92.074V64.0245H98.328C99.3703 64.0245 100.177 63.7393 100.747 63.169C101.337 62.579 101.632 61.812 101.632 60.868C101.632 59.924 101.337 59.1668 100.747 58.5965C100.177 58.0262 99.3703 57.741 98.328 57.741H93.018V75.5H88.475ZM114.036 75.795C112.365 75.795 110.909 75.4705 109.67 74.8215C108.431 74.1528 107.468 73.2285 106.779 72.0485C106.111 70.8685 105.776 69.5115 105.776 67.9775C105.776 66.4238 106.111 65.0668 106.779 63.9065C107.468 62.7265 108.421 61.812 109.641 61.163C110.86 60.4943 112.276 60.16 113.889 60.16C115.442 60.16 116.79 60.4747 117.93 61.104C119.071 61.7333 119.956 62.6085 120.585 63.7295C121.215 64.8505 121.529 66.1682 121.529 67.6825C121.529 67.9972 121.519 68.2922 121.5 68.5675C121.48 68.8232 121.451 69.069 121.411 69.305H108.372V66.3845H117.842L117.075 66.9155C117.075 65.6962 116.78 64.8013 116.19 64.231C115.619 63.641 114.833 63.346 113.83 63.346C112.669 63.346 111.765 63.7393 111.116 64.526C110.486 65.3127 110.172 66.4927 110.172 68.066C110.172 69.6 110.486 70.7407 111.116 71.488C111.765 72.2353 112.728 72.609 114.007 72.609C114.715 72.609 115.324 72.491 115.836 72.255C116.347 72.019 116.731 71.6355 116.986 71.1045H121.146C120.654 72.5598 119.808 73.7103 118.609 74.556C117.429 75.382 115.905 75.795 114.036 75.795ZM123.011 75.5V60.455H127.347V63.995H127.436V75.5H123.011ZM127.436 67.653L127.052 64.0835C127.406 62.8052 127.986 61.8317 128.793 61.163C129.599 60.4943 130.602 60.16 131.802 60.16C132.175 60.16 132.451 60.1993 132.628 60.278V64.408C132.529 64.3687 132.392 64.349 132.215 64.349C132.038 64.3293 131.821 64.3195 131.566 64.3195C130.15 64.3195 129.107 64.5752 128.439 65.0865C127.77 65.5782 127.436 66.4337 127.436 67.653ZM135.405 75.5V59.452C135.405 57.6427 135.896 56.2758 136.88 55.3515C137.863 54.4272 139.318 53.965 141.246 53.965C141.659 53.965 142.013 53.9847 142.308 54.024C142.622 54.0633 142.927 54.1322 143.222 54.2305V57.623C143.084 57.564 142.917 57.5247 142.721 57.505C142.524 57.4657 142.288 57.446 142.013 57.446C141.265 57.446 140.715 57.623 140.361 57.977C140.007 58.331 139.83 58.8423 139.83 59.511V75.5H135.405ZM132.897 63.818V60.455H142.898V63.818H132.897ZM150.907 75.795C149.235 75.795 147.78 75.4705 146.541 74.8215C145.302 74.1528 144.338 73.2285 143.65 72.0485C142.981 70.8685 142.647 69.5115 142.647 67.9775C142.647 66.4238 142.981 65.0668 143.65 63.9065C144.338 62.7265 145.292 61.812 146.511 61.163C147.731 60.4943 149.147 60.16 150.759 60.16C152.313 60.16 153.66 60.4747 154.801 61.104C155.941 61.7333 156.826 62.6085 157.456 63.7295C158.085 64.8505 158.4 66.1682 158.4 67.6825C158.4 67.9972 158.39 68.2922 158.37 68.5675C158.351 68.8232 158.321 69.069 158.282 69.305H145.243V66.3845H154.712L153.945 66.9155C153.945 65.6962 153.65 64.8013 153.06 64.231C152.49 63.641 151.703 63.346 150.7 63.346C149.54 63.346 148.635 63.7393 147.986 64.526C147.357 65.3127 147.042 66.4927 147.042 68.066C147.042 69.6 147.357 70.7407 147.986 71.488C148.635 72.2353 149.599 72.609 150.877 72.609C151.585 72.609 152.195 72.491 152.706 72.255C153.218 72.019 153.601 71.6355 153.857 71.1045H158.016C157.525 72.5598 156.679 73.7103 155.479 74.556C154.299 75.382 152.775 75.795 150.907 75.795ZM166.984 75.795C165.41 75.795 164.024 75.4607 162.824 74.792C161.625 74.1233 160.681 73.199 159.992 72.019C159.324 70.839 158.989 69.4918 158.989 67.9775C158.989 66.4632 159.324 65.116 159.992 63.936C160.681 62.756 161.625 61.8317 162.824 61.163C164.024 60.4943 165.41 60.16 166.984 60.16C168.301 60.16 169.481 60.4058 170.524 60.8975C171.586 61.3695 172.451 62.0283 173.12 62.874C173.808 63.7197 174.251 64.7128 174.447 65.8535H170.17C169.953 65.1258 169.56 64.5752 168.99 64.2015C168.439 63.8278 167.79 63.641 167.043 63.641C166.335 63.641 165.715 63.818 165.184 64.172C164.673 64.526 164.28 65.0275 164.004 65.6765C163.729 66.3255 163.591 67.0925 163.591 67.9775C163.591 68.8625 163.729 69.6295 164.004 70.2785C164.28 70.9275 164.673 71.429 165.184 71.783C165.715 72.137 166.335 72.314 167.043 72.314C167.79 72.314 168.439 72.1272 168.99 71.7535C169.56 71.3798 169.953 70.8292 170.17 70.1015H174.447C174.251 71.2422 173.808 72.2353 173.12 73.081C172.451 73.9267 171.586 74.5953 170.524 75.087C169.481 75.559 168.301 75.795 166.984 75.795ZM182.787 75.8245C180.859 75.8245 179.424 75.3623 178.48 74.438C177.555 73.494 177.093 72.0682 177.093 70.1605V57.092L181.518 55.44V70.308C181.518 70.9767 181.705 71.4782 182.079 71.8125C182.452 72.1468 183.032 72.314 183.819 72.314C184.114 72.314 184.389 72.2845 184.645 72.2255C184.901 72.1665 185.156 72.0977 185.412 72.019V75.382C185.156 75.5197 184.793 75.6278 184.321 75.7065C183.868 75.7852 183.357 75.8245 182.787 75.8245ZM174.291 63.818V60.455H185.412V63.818H174.291Z" fill="white"/>
<defs>
<clipPath id="clip0_4_454">
<rect width="69" height="69" fill="white" transform="translate(9 15)"/>
</clipPath>
</defs>
</svg>
