<svg width="152" height="48" viewBox="0 0 152 48" fill="none" xmlns="http://www.w3.org/2000/svg">
<path d="M39.6399 14.4668H54.8976V17.3819H48.89V33.8151H45.5972V17.3819H39.6147L39.6399 14.4668ZM54.244 19.8069H57.0593V22.5157H57.1096C57.2101 22.1287 57.3861 21.7675 57.6374 21.4064C57.8888 21.0452 58.1904 20.7098 58.5675 20.4261C58.9194 20.1165 59.3216 19.8843 59.774 19.7037C60.2013 19.5231 60.6538 19.4199 61.1062 19.4199C61.4581 19.4199 61.7095 19.4457 61.8352 19.4457C61.9609 19.4715 62.1117 19.4973 62.2374 19.4973V22.4641C62.0363 22.4125 61.81 22.3867 61.5838 22.3609C61.3576 22.3351 61.1565 22.3093 60.9303 22.3093C60.4275 22.3093 59.95 22.4125 59.4975 22.6189C59.0451 22.8252 58.668 23.1348 58.3161 23.5218C57.9893 23.9345 57.7128 24.4247 57.5117 25.0181C57.3107 25.6114 57.2101 26.3079 57.2101 27.0819V33.7377H54.1938L54.244 19.8069ZM76.0623 33.8151H73.0962V31.8544H73.0459C72.6689 32.5768 72.1159 33.1185 71.3869 33.5571C70.658 33.9956 69.9039 34.202 69.1498 34.202C67.3651 34.202 66.0581 33.7635 65.2537 32.8347C64.4493 31.9318 64.0472 30.5388 64.0472 28.7071V19.8069H67.0635V28.3976C67.0635 29.6358 67.2897 30.513 67.7673 31.0031C68.2198 31.5191 68.8733 31.777 69.7028 31.777C70.3312 31.777 70.8591 31.6739 71.2864 31.4675C71.7137 31.2611 72.0656 31.0031 72.317 30.6677C72.5935 30.3324 72.7694 29.9196 72.8951 29.4552C73.0208 28.9909 73.0711 28.4749 73.0711 27.9332V19.8069H76.0874V33.8151H76.0623ZM81.1901 29.3263C81.2906 30.2292 81.6174 30.8483 82.1955 31.2353C82.7737 31.5965 83.4775 31.777 84.2818 31.777C84.5583 31.777 84.8851 31.7512 85.237 31.6997C85.5889 31.6481 85.9408 31.5707 86.2425 31.4417C86.5692 31.3127 86.8206 31.1321 87.0217 30.8741C87.2228 30.6161 87.3233 30.3066 87.2982 29.9196C87.273 29.5326 87.1474 29.1973 86.8709 28.9393C86.5944 28.6813 86.2676 28.5007 85.8654 28.3202C85.4632 28.1654 84.9856 28.0364 84.4578 27.9332C83.9299 27.83 83.4021 27.701 82.8491 27.572C82.2961 27.443 81.7431 27.2882 81.2152 27.1077C80.6874 26.9271 80.2349 26.6949 79.8076 26.3595C79.4054 26.05 79.0535 25.663 78.8273 25.1728C78.5759 24.6827 78.4502 24.1151 78.4502 23.3928C78.4502 22.6189 78.6262 21.9997 79.0032 21.4838C79.3551 20.9678 79.8327 20.5551 80.3857 20.2455C80.9387 19.9359 81.5671 19.7037 82.2458 19.5747C82.9245 19.4457 83.578 19.3941 84.1813 19.3941C84.8851 19.3941 85.5638 19.4715 86.1922 19.6263C86.8206 19.7811 87.4239 20.0133 87.9266 20.3745C88.4544 20.7098 88.8818 21.1742 89.2085 21.7159C89.5604 22.2577 89.7615 22.9284 89.8621 23.7024H86.72C86.5692 22.9542 86.2425 22.4641 85.7397 22.2061C85.2119 21.9481 84.6337 21.8191 83.9551 21.8191C83.754 21.8191 83.4775 21.8449 83.201 21.8707C82.8993 21.9223 82.648 21.9739 82.3715 22.0771C82.1201 22.1803 81.8939 22.3351 81.7179 22.5157C81.542 22.6963 81.4414 22.9542 81.4414 23.2638C81.4414 23.6508 81.5671 23.9345 81.8185 24.1667C82.0698 24.3989 82.3966 24.5795 82.8239 24.7601C83.2261 24.9149 83.7037 25.0438 84.2316 25.147C84.7594 25.2502 85.3124 25.3792 85.8654 25.5082C86.4184 25.6372 86.9463 25.792 87.4741 25.9726C88.002 26.1531 88.4796 26.3853 88.8818 26.7207C89.2839 27.0303 89.6359 27.4172 89.8872 27.8816C90.1386 28.346 90.2643 28.9393 90.2643 29.61C90.2643 30.4356 90.0883 31.1321 89.7113 31.7255C89.3342 32.293 88.8566 32.7832 88.2785 33.1443C87.7004 33.5055 87.0217 33.7635 86.3179 33.9441C85.5889 34.0988 84.8851 34.202 84.1813 34.202C83.3267 34.202 82.5223 34.0988 81.7933 33.8925C81.0644 33.6861 80.4109 33.3765 79.883 32.9895C79.3551 32.5768 78.9278 32.0866 78.6262 31.4675C78.3245 30.8741 78.1486 30.1518 78.1235 29.3005H81.1649V29.3263H81.1901ZM91.1189 19.8069H93.4063V15.5761H96.4226V19.7811H99.1373V22.0771H96.4226V29.5584C96.4226 29.8938 96.4478 30.1518 96.4729 30.4098C96.498 30.6419 96.5735 30.8483 96.6489 31.0031C96.7494 31.1579 96.9002 31.2869 97.0762 31.3643C97.2773 31.4417 97.5286 31.4933 97.8805 31.4933C98.0816 31.4933 98.3079 31.4933 98.5089 31.4675C98.71 31.4417 98.9363 31.4159 99.1373 31.3643V33.7635C98.8106 33.8151 98.4838 33.8409 98.157 33.8667C97.8303 33.9183 97.5286 33.9183 97.1767 33.9183C96.3724 33.9183 95.744 33.8409 95.2664 33.6861C94.7888 33.5313 94.4117 33.2991 94.1352 33.0153C93.8587 32.7058 93.6828 32.3446 93.5822 31.906C93.4817 31.4675 93.4314 30.9257 93.4063 30.3582V22.1029H91.1189V19.7553V19.8069ZM101.249 19.8069H104.089V21.7159H104.139C104.567 20.8904 105.145 20.3229 105.899 19.9617C106.653 19.6005 107.457 19.4199 108.362 19.4199C109.443 19.4199 110.373 19.6005 111.178 20.0133C111.982 20.4003 112.636 20.9162 113.163 21.6128C113.691 22.2835 114.093 23.0832 114.345 23.9861C114.596 24.8891 114.747 25.8694 114.747 26.8755C114.747 27.83 114.621 28.7329 114.395 29.61C114.144 30.4872 113.792 31.2869 113.314 31.9576C112.837 32.6284 112.233 33.1701 111.479 33.5829C110.725 33.9956 109.871 34.202 108.865 34.202C108.438 34.202 107.985 34.1504 107.558 34.073C107.131 33.9956 106.703 33.8667 106.301 33.6861C105.899 33.5055 105.522 33.2733 105.195 32.9895C104.843 32.7058 104.567 32.3704 104.341 32.0092H104.29V39.0004H101.274V19.8069H101.249ZM111.781 26.8239C111.781 26.2047 111.705 25.5856 111.53 24.9923C111.379 24.3989 111.127 23.8829 110.801 23.4186C110.474 22.9542 110.072 22.5931 109.619 22.3093C109.142 22.0255 108.589 21.8965 107.985 21.8965C106.728 21.8965 105.773 22.3351 105.12 23.238C104.491 24.1409 104.165 25.3534 104.165 26.8497C104.165 27.572 104.24 28.217 104.416 28.8103C104.592 29.4037 104.818 29.9196 105.17 30.3582C105.497 30.7967 105.899 31.1321 106.377 31.3901C106.854 31.6481 107.382 31.777 108.01 31.777C108.714 31.777 109.267 31.6223 109.745 31.3385C110.222 31.0547 110.599 30.6677 110.926 30.2292C111.228 29.7648 111.454 29.2489 111.58 28.6555C111.705 28.0364 111.781 27.443 111.781 26.8239V26.8239ZM117.085 14.4668H120.101V17.3819H117.085V14.4668ZM117.085 19.8069H120.101V33.8151H117.085V19.8069ZM122.791 14.4668H125.807V33.8151H122.791V14.4668ZM135.007 34.202C133.926 34.202 132.946 34.0214 132.091 33.6345C131.236 33.2475 130.533 32.7574 129.929 32.1124C129.351 31.4675 128.899 30.6677 128.597 29.7648C128.295 28.8619 128.119 27.8558 128.119 26.7981C128.119 25.7404 128.27 24.7601 128.597 23.8572C128.899 22.9542 129.351 22.1803 129.929 21.5096C130.507 20.8646 131.236 20.3487 132.091 19.9875C132.946 19.6263 133.926 19.4199 135.007 19.4199C136.088 19.4199 137.068 19.6005 137.923 19.9875C138.777 20.3487 139.481 20.8646 140.084 21.5096C140.662 22.1545 141.115 22.9542 141.416 23.8572C141.718 24.7601 141.894 25.7404 141.894 26.7981C141.894 27.8816 141.743 28.8619 141.416 29.7648C141.09 30.6677 140.662 31.4417 140.084 32.1124C139.506 32.7574 138.777 33.2733 137.923 33.6345C137.068 33.9956 136.113 34.202 135.007 34.202ZM135.007 31.7513C135.66 31.7513 136.264 31.5965 136.741 31.3127C137.244 31.0289 137.621 30.6419 137.948 30.1776C138.274 29.7132 138.501 29.1715 138.652 28.6039C138.802 28.0106 138.878 27.4172 138.878 26.7981C138.878 26.2047 138.802 25.6114 138.652 25.0181C138.501 24.4247 138.274 23.9087 137.948 23.4444C137.621 22.98 137.219 22.6189 136.741 22.3351C136.238 22.0513 135.66 21.8965 135.007 21.8965C134.353 21.8965 133.75 22.0513 133.272 22.3351C132.77 22.6189 132.393 23.0058 132.066 23.4444C131.739 23.9087 131.513 24.4247 131.362 25.0181C131.211 25.6114 131.136 26.2047 131.136 26.7981C131.136 27.4172 131.211 28.0106 131.362 28.6039C131.513 29.1973 131.739 29.7132 132.066 30.1776C132.393 30.6419 132.795 31.0289 133.272 31.3127C133.775 31.6223 134.353 31.7513 135.007 31.7513ZM142.799 19.8069H145.086V15.5761H148.103V19.7811H150.817V22.0771H148.103V29.5584C148.103 29.8938 148.128 30.1518 148.153 30.4098C148.178 30.6419 148.254 30.8483 148.329 31.0031C148.43 31.1579 148.58 31.2869 148.756 31.3643C148.957 31.4417 149.209 31.4933 149.561 31.4933C149.762 31.4933 149.988 31.4933 150.189 31.4675C150.39 31.4417 150.616 31.4159 150.817 31.3643V33.7635C150.491 33.8151 150.164 33.8409 149.837 33.8667C149.51 33.9183 149.209 33.9183 148.857 33.9183C148.052 33.9183 147.424 33.8409 146.946 33.6861C146.469 33.5313 146.092 33.2991 145.815 33.0153C145.539 32.7058 145.363 32.3446 145.262 31.906C145.162 31.4675 145.112 30.9257 145.086 30.3582V22.1029H142.799V19.7553V19.8069Z" fill="black"/>
<path d="M36.1207 14.4664H22.321L18.0729 1L13.7998 14.4664L0 14.4406L11.1605 22.7733L6.88732 36.2397L18.0478 27.907L29.2083 36.2397L24.9603 22.7733L36.1207 14.4664Z" fill="#00B67A"/>
</svg>
