<svg width="115" height="48" viewBox="0 0 115 48" fill="none" xmlns="http://www.w3.org/2000/svg">
<g clip-path="url(#clip0_22444_40)">
<path d="M31.957 31.0833C28.7736 31.0833 26.6662 28.6718 26.0783 27.7377C26.8326 21.8285 29.0399 19.9601 31.957 19.9601C34.841 19.9601 37.0816 22.2195 37.0816 25.5216C37.0816 28.8239 34.841 31.0833 31.957 31.0833ZM31.957 16.332C26.7661 16.332 23.86 19.6451 23.028 23.0559C22.0852 21.3179 21.3865 18.9934 20.843 16.8317H13.6664V25.576C13.6664 28.7479 12.1912 31.0942 9.30727 31.0942C6.42335 31.0942 4.77066 28.7479 4.77066 25.576L4.80393 16.8317H0.666626V25.576C0.666626 28.1287 1.50962 30.4425 3.0514 32.0935C4.63756 33.7989 6.80048 34.6896 9.30727 34.6896C14.2986 34.6896 17.7816 30.9421 17.7816 25.576V19.6994C18.3028 21.6329 19.5452 25.3479 21.9188 28.6067L19.7005 40.9791H23.9044L25.3684 32.213C25.8454 32.604 26.3556 32.9516 26.8991 33.2667C28.3078 34.1357 29.9161 34.6245 31.58 34.6788C31.58 34.6788 31.835 34.6896 31.9682 34.6896C37.1149 34.6896 41.2077 30.7901 41.2077 25.5216C41.2077 20.2534 37.1037 16.332 31.957 16.332Z" fill="#14A800"/>
<path d="M91.3991 18.7014V16.8331H87.3395V34.137H91.4546V27.3589C91.4546 23.1877 91.8428 20.1896 97.5551 20.5807V16.6267C94.8931 16.4312 92.8189 16.9743 91.3991 18.7014Z" fill="#14A800"/>
<path d="M62.8273 16.834L59.8436 28.9348L56.6602 16.834H51.4248L48.2303 28.9348L45.2577 16.834H41.087L45.657 34.1489H50.604L54.0425 21.8525L57.4477 34.1489H62.3947L67.2309 16.834H62.8273Z" fill="#14A800"/>
<path d="M76.2929 31.0942C73.3647 31.0942 71.1685 28.8348 71.1685 25.5216C71.1685 22.2086 73.3758 19.9601 76.2929 19.9601C79.1769 19.9601 81.4175 22.2195 81.4175 25.5216C81.4175 28.8238 79.1769 31.0942 76.2929 31.0942ZM76.2929 16.332C71.1129 16.332 67.0533 20.2643 67.0533 25.5216C67.0533 30.7791 71.1129 34.6788 76.2929 34.6788C81.4396 34.6788 85.5326 30.7791 85.5326 25.5216C85.5326 20.2643 81.4507 16.332 76.2929 16.332Z" fill="#14A800"/>
<path d="M103.457 25.6312H104.411L110.156 34.1473H114.804L108.193 24.7078C111.399 23.4804 113.551 20.2759 113.551 16.8325H109.447C109.447 20.5692 106.441 21.9813 103.457 21.9813V10H99.3307V34.1473H103.446L103.457 25.6312Z" fill="#14A800"/>
</g>
<defs>
<clipPath id="clip0_22444_40">
<rect width="114" height="48" fill="white" transform="translate(0.666626)"/>
</clipPath>
</defs>
</svg>
