<svg width="115" height="48" viewBox="0 0 115 48" fill="none" xmlns="http://www.w3.org/2000/svg">
<g clip-path="url(#clip0_22444_323)">
<path fill-rule="evenodd" clip-rule="evenodd" d="M93.0539 20.5972C93.4892 21.2429 93.6317 21.9774 93.6787 22.8032L93.7405 23.9039V31.6007L93.8036 32.7025C93.9299 34.502 95.4737 35.8325 97.583 35.9457L98.8581 36V23.9039L98.9212 22.8032C98.9736 21.9867 99.1147 21.2382 99.5567 20.588C100.007 19.921 100.654 19.3677 101.432 18.9835C102.209 18.5993 103.091 18.3978 103.988 18.3992C104.885 18.4006 105.766 18.6049 106.543 18.9915C107.319 19.3781 107.963 19.9335 108.411 20.6018C108.846 21.2475 108.982 21.9959 109.034 22.8032L109.097 23.9005V31.6007L109.16 32.7025C109.292 34.5112 110.824 35.8418 112.94 35.9457L114.215 36V22.8032C114.215 20.4697 113.137 18.2317 111.218 16.5813C109.299 14.9309 106.696 14.0032 103.981 14.0023C102.528 14.001 101.092 14.2662 99.7675 14.7803C98.4434 15.2944 97.2621 16.0454 96.3026 16.9833C95.3427 16.0458 94.1614 15.2949 92.8374 14.7807C91.5134 14.2665 90.0771 14.0007 88.6243 14.0012C86.4988 14.0012 84.5265 14.5555 82.8927 15.513C81.8958 14.5567 79.6655 14.0012 78.3851 14.0012V36L79.6655 35.9457C81.8071 35.8244 83.3549 34.5297 83.4382 32.7025L83.5067 31.6007V23.9039L83.5699 22.8032C83.6236 21.9728 83.758 21.2429 84.1946 20.5926C84.6454 19.9261 85.2917 19.3728 86.069 18.9882C86.8463 18.6035 87.7274 18.4009 88.6243 18.4005C89.5219 18.4006 90.4036 18.6037 91.1811 18.9893C91.9586 19.3748 92.6044 19.9294 93.0539 20.5972V20.5972ZM5.45081 35.9469L6.73121 36H25.9237L25.8606 34.9028C25.6873 33.0941 24.1973 31.7728 22.0866 31.655L20.8062 31.6007H9.29201L24.6433 18.3993L24.5802 17.3032C24.4808 15.4761 22.9276 14.1559 20.8062 14.0554L19.5258 14.0058L0.333252 14.0012L0.396399 15.1019C0.564342 16.8932 2.07583 18.2422 4.16907 18.3462L5.45081 18.4005H16.965L1.61365 31.6018L1.6768 32.7025C1.80309 34.5159 3.32533 35.8291 5.45081 35.9457V35.9469ZM73.3616 17.2212C74.55 18.2426 75.4927 19.4552 76.1358 20.7898C76.779 22.1244 77.11 23.5548 77.11 24.9994C77.11 26.444 76.779 27.8744 76.1358 29.209C75.4927 30.5436 74.55 31.7562 73.3616 32.7776C70.9607 34.8399 67.7055 35.9983 64.3115 35.9983C60.9175 35.9983 57.6623 34.8399 55.2614 32.7776C50.2647 28.4823 50.2647 21.5166 55.2614 17.2212C56.4487 16.2002 57.8583 15.3902 59.4097 14.8375C60.9612 14.2848 62.624 14.0002 64.3034 14C65.9856 13.999 67.6514 14.2831 69.2057 14.836C70.76 15.3889 72.1722 16.1999 73.3616 17.2224V17.2212ZM69.7408 20.3362C71.18 21.5744 71.9884 23.2531 71.9884 25.0035C71.9884 26.7538 71.18 28.4326 69.7408 29.6707C68.3005 30.908 66.3476 31.6029 64.3115 31.6029C62.2754 31.6029 60.3225 30.908 58.8822 29.6707C57.443 28.4326 56.6346 26.7538 56.6346 25.0035C56.6346 23.2531 57.443 21.5744 58.8822 20.3362C60.3225 19.099 62.2754 18.404 64.3115 18.404C66.3476 18.404 68.3005 19.099 69.7408 20.3362V20.3362ZM37.4487 14C39.1281 14.0004 40.7911 14.2851 42.3425 14.8381C43.894 15.391 45.3035 16.2012 46.4907 17.2224C51.4887 21.5166 51.4887 28.4834 46.4907 32.7776C44.0898 34.8399 40.8346 35.9983 37.4406 35.9983C34.0466 35.9983 30.7914 34.8399 28.3905 32.7776C23.3938 28.4823 23.3938 21.5166 28.3905 17.2212C29.5778 16.2002 30.9874 15.3902 32.5388 14.8375C34.0903 14.2848 35.7532 14.0002 37.4325 14H37.4487ZM42.8699 20.3339C44.3095 21.5721 45.1182 23.2511 45.1182 25.0017C45.1182 26.7524 44.3095 28.4314 42.8699 29.6696C41.4296 30.9068 39.4767 31.6018 37.4406 31.6018C35.4045 31.6018 33.4517 30.9068 32.0113 29.6696C30.5721 28.4314 29.7637 26.7527 29.7637 25.0023C29.7637 23.252 30.5721 21.5732 32.0113 20.335C33.4517 19.0978 35.4045 18.4028 37.4406 18.4028C39.4767 18.4028 41.4296 19.0978 42.8699 20.335V20.3339Z" fill="#2D8CFF"/>
</g>
<defs>
<clipPath id="clip0_22444_323">
<rect width="114" height="48" fill="white" transform="translate(0.333252)"/>
</clipPath>
</defs>
</svg>
